<svg width="15" height="24" viewBox="0 0 15 24" fill="none" xmlns="http://www.w3.org/2000/svg" data-v-48e9fbf7=""><g clip-path="url(#clip0_371_1722)"><path d="M4.16293 23V23.5H4.66293H9.07326H9.57326V23V13.177H13.4027H13.8769L13.902 12.7034L14.0989 8.98663L14.1268 8.46017H13.5996H9.57326V6.24623C9.57326 5.7411 9.64156 5.50255 9.75727 5.37085C9.86068 5.25316 10.1114 5.10402 10.8177 5.10402C11.5111 5.10402 12.1757 5.10677 12.6671 5.10953C12.9127 5.11091 13.115 5.11229 13.2558 5.11332L13.4186 5.11457L13.4613 5.11492L13.4721 5.11501L13.4749 5.11504L13.4755 5.11504L13.4757 5.11504L13.4758 5.11504L13.966 5.1193L13.9799 4.62923L14.0782 1.15837L14.0912 0.700123L13.6358 0.647513L13.5785 1.14421L13.6357 0.647503L13.6356 0.647489L13.6353 0.647453L13.6343 0.64734L13.631 0.646961L13.619 0.645618L13.5739 0.640765C13.5347 0.636639 13.4776 0.630823 13.404 0.623884C13.2568 0.610009 13.0438 0.59163 12.7776 0.573288C12.2457 0.536627 11.4999 0.5 10.642 0.5C8.46683 0.5 6.84061 1.09872 5.75265 2.08722C4.66262 3.07759 4.16293 4.41462 4.16293 5.78555V8.46017H1.59961H1.09961V8.96017V12.677V13.177H1.59961H4.16293V23Z" stroke="url(#paint0_linear_371_1722)"></path></g><defs><linearGradient id="paint0_linear_371_1722" x1="1.13774" y1="1.47712" x2="19.9333" y2="8.19688" gradientUnits="userSpaceOnUse"><stop stop-color="#e1bb64"></stop><stop offset="0.242874" stop-color="#e1bb64"></stop><stop offset="0.515487" stop-color="#d4aa5c"></stop><stop offset="0.729115" stop-color="#c49552"></stop><stop offset="1" stop-color="#ba874b"></stop></linearGradient><clipPath id="clip0_371_1722"><rect width="14" height="24" fill="white" transform="translate(0.599609)"></rect></clipPath></defs></svg>