<svg width="24" height="24" viewBox="0 0 24 24" fill="none" xmlns="http://www.w3.org/2000/svg" data-v-48e9fbf7=""><path fill-rule="evenodd" clip-rule="evenodd" d="M7.16406 4.49609C7.16406 5.87681 6.04477 6.99609 4.66406 6.99609C3.28335 6.99609 2.16406 5.87681 2.16406 4.49609C2.16406 3.11538 3.28335 1.99609 4.66406 1.99609C6.04477 1.99609 7.16406 3.11538 7.16406 4.49609ZM5.82498 7.79896C7.18737 7.32012 8.16406 6.02216 8.16406 4.49609C8.16406 2.5631 6.59706 0.996094 4.66406 0.996094C2.73107 0.996094 1.16406 2.5631 1.16406 4.49609C1.16406 6.02216 2.14075 7.32012 3.50315 7.79896H2.57256H1.57256V8.79896V21.83V22.83H2.57256H6.57256H7.57256V21.83V8.79896V7.79896H6.57256H5.82498ZM9.43156 7.96896H8.43156V8.96896V22V23H9.43156H13.4316H14.4316V22V15.687C14.4316 14.7251 14.6149 14.1049 14.8718 13.7481C15.0868 13.4494 15.4288 13.227 16.1056 13.227C16.2881 13.227 16.3864 13.2668 16.4452 13.3037C16.5066 13.3422 16.5894 13.4182 16.6763 13.5865C16.868 13.9576 17.0026 14.6259 17.0026 15.688V22V23H18.0026H22.0026H23.0026V22V14.803C23.0026 12.8364 22.7783 11.0516 21.8522 9.76078C20.8635 8.38265 19.2626 7.79896 17.1136 7.79896C15.9653 7.79896 14.9601 8.05999 14.1456 8.49553V7.96896H13.1456H9.43156ZM13.1456 10.819C13.3543 10.4037 13.6906 10.0049 14.1456 9.67301C14.8564 9.15439 15.8569 8.79896 17.1136 8.79896C21.0646 8.79896 22.0026 10.917 22.0026 14.803V21V22H21.0026H19.0026H18.0026V21V15.688C18.0026 13.475 17.4676 12.227 16.1056 12.227C14.2166 12.227 13.4316 13.572 13.4316 15.687V21V22H12.4316H10.4316H9.43156V21V9.96896V8.96896H10.4316H12.1456H13.1456V9.2003V9.96896V10.819ZM6.57256 21.83V20.83V9.79896V8.79896H5.57256H3.57256H2.57256V9.79896V20.83V21.83H3.57256H5.57256H6.57256Z" fill="#D3A188"></path><path fill-rule="evenodd" clip-rule="evenodd" d="M7.16406 4.49609C7.16406 5.87681 6.04477 6.99609 4.66406 6.99609C3.28335 6.99609 2.16406 5.87681 2.16406 4.49609C2.16406 3.11538 3.28335 1.99609 4.66406 1.99609C6.04477 1.99609 7.16406 3.11538 7.16406 4.49609ZM5.82498 7.79896C7.18737 7.32012 8.16406 6.02216 8.16406 4.49609C8.16406 2.5631 6.59706 0.996094 4.66406 0.996094C2.73107 0.996094 1.16406 2.5631 1.16406 4.49609C1.16406 6.02216 2.14075 7.32012 3.50315 7.79896H2.57256H1.57256V8.79896V21.83V22.83H2.57256H6.57256H7.57256V21.83V8.79896V7.79896H6.57256H5.82498ZM9.43156 7.96896H8.43156V8.96896V22V23H9.43156H13.4316H14.4316V22V15.687C14.4316 14.7251 14.6149 14.1049 14.8718 13.7481C15.0868 13.4494 15.4288 13.227 16.1056 13.227C16.2881 13.227 16.3864 13.2668 16.4452 13.3037C16.5066 13.3422 16.5894 13.4182 16.6763 13.5865C16.868 13.9576 17.0026 14.6259 17.0026 15.688V22V23H18.0026H22.0026H23.0026V22V14.803C23.0026 12.8364 22.7783 11.0516 21.8522 9.76078C20.8635 8.38265 19.2626 7.79896 17.1136 7.79896C15.9653 7.79896 14.9601 8.05999 14.1456 8.49553V7.96896H13.1456H9.43156ZM13.1456 10.819C13.3543 10.4037 13.6906 10.0049 14.1456 9.67301C14.8564 9.15439 15.8569 8.79896 17.1136 8.79896C21.0646 8.79896 22.0026 10.917 22.0026 14.803V21V22H21.0026H19.0026H18.0026V21V15.688C18.0026 13.475 17.4676 12.227 16.1056 12.227C14.2166 12.227 13.4316 13.572 13.4316 15.687V21V22H12.4316H10.4316H9.43156V21V9.96896V8.96896H10.4316H12.1456H13.1456V9.2003V9.96896V10.819ZM6.57256 21.83V20.83V9.79896V8.79896H5.57256H3.57256H2.57256V9.79896V20.83V21.83H3.57256H5.57256H6.57256Z" fill="url(#paint0_linear_6266_33259)"></path><defs><linearGradient id="paint0_linear_6266_33259" x1="1.22715" y1="-1.68031" x2="22.9528" y2="-2.09097" gradientUnits="userSpaceOnUse"><stop stop-color="#e1bb64"></stop><stop offset="0.242874" stop-color="#e1bb64"></stop><stop offset="0.515487" stop-color="#d4aa5c"></stop><stop offset="0.729115" stop-color="#c49552"></stop><stop offset="1" stop-color="#ba874b"></stop></linearGradient></defs></svg>