<svg width="25" height="24" viewBox="0 0 25 24" fill="none" xmlns="http://www.w3.org/2000/svg" data-v-48e9fbf7=""><path fill-rule="evenodd" clip-rule="evenodd" d="M16.5202 14.3495C16.2831 14.231 15.1209 13.6598 14.9045 13.5803C14.6882 13.5015 14.5307 13.4625 14.3724 13.6996C14.2149 13.935 13.7622 14.468 13.6246 14.6255C13.4862 14.7838 13.3486 14.8029 13.1123 14.6852C12.8761 14.5659 12.114 14.3169 11.2112 13.5119C10.5087 12.885 10.0338 12.111 9.89623 11.874C9.75861 11.6377 9.88112 11.5096 9.99964 11.3919C10.1062 11.2861 10.2359 11.1159 10.3544 10.9783C10.4729 10.8399 10.5119 10.7412 10.5907 10.5829C10.6702 10.4254 10.6305 10.2878 10.5708 10.1693C10.5119 10.0507 10.0394 8.88696 9.84214 8.41365C9.65043 7.95307 9.45554 8.01591 9.31076 8.00795C9.17235 8.00159 9.01484 8 8.85734 8C8.69983 8 8.44369 8.05887 8.22732 8.29592C8.01015 8.53217 7.40002 9.10412 7.40002 10.2679C7.40002 11.4309 8.24641 12.5549 8.36494 12.7132C8.48346 12.8707 10.0315 15.2587 12.4028 16.2825C12.9676 16.5259 13.4075 16.6715 13.7503 16.7797C14.3167 16.9602 14.8322 16.9348 15.2394 16.8735C15.6929 16.8059 16.6379 16.3016 16.8352 15.7495C17.0317 15.1975 17.0317 14.7242 16.9728 14.6255C16.9139 14.5269 16.7572 14.468 16.5202 14.3495Z" fill="#D3A188"></path><path fill-rule="evenodd" clip-rule="evenodd" d="M16.5202 14.3495C16.2831 14.231 15.1209 13.6598 14.9045 13.5803C14.6882 13.5015 14.5307 13.4625 14.3724 13.6996C14.2149 13.935 13.7622 14.468 13.6246 14.6255C13.4862 14.7838 13.3486 14.8029 13.1123 14.6852C12.8761 14.5659 12.114 14.3169 11.2112 13.5119C10.5087 12.885 10.0338 12.111 9.89623 11.874C9.75861 11.6377 9.88112 11.5096 9.99964 11.3919C10.1062 11.2861 10.2359 11.1159 10.3544 10.9783C10.4729 10.8399 10.5119 10.7412 10.5907 10.5829C10.6702 10.4254 10.6305 10.2878 10.5708 10.1693C10.5119 10.0507 10.0394 8.88696 9.84214 8.41365C9.65043 7.95307 9.45554 8.01591 9.31076 8.00795C9.17235 8.00159 9.01484 8 8.85734 8C8.69983 8 8.44369 8.05887 8.22732 8.29592C8.01015 8.53217 7.40002 9.10412 7.40002 10.2679C7.40002 11.4309 8.24641 12.5549 8.36494 12.7132C8.48346 12.8707 10.0315 15.2587 12.4028 16.2825C12.9676 16.5259 13.4075 16.6715 13.7503 16.7797C14.3167 16.9602 14.8322 16.9348 15.2394 16.8735C15.6929 16.8059 16.6379 16.3016 16.8352 15.7495C17.0317 15.1975 17.0317 14.7242 16.9728 14.6255C16.9139 14.5269 16.7572 14.468 16.5202 14.3495Z" fill="url(#paint0_linear_1_13)"></path><path d="M20.9043 6.85613C17.9125 1.99984 11.8044 0.556079 7.06743 3.57485C2.45514 6.59362 0.959261 13.1562 3.95102 18.0125L4.20033 18.4062L3.20308 22.3437L6.94277 21.2937L7.31674 21.5562C8.93728 22.475 10.6825 23 12.4277 23C14.2975 23 16.1674 22.475 17.7879 21.425C22.4002 18.275 23.7714 11.8437 20.9043 6.85613Z" stroke="url(#paint1_linear_1_13)" stroke-width="1.2"></path><defs><linearGradient id="paint0_linear_1_13" x1="7.42778" y1="6.91513" x2="16.9846" y2="6.71908" gradientUnits="userSpaceOnUse"><stop stop-color="#e1bb64"></stop><stop offset="0.242874" stop-color="#e1bb64"></stop><stop offset="0.515487" stop-color="#d4aa5c"></stop><stop offset="0.729115" stop-color="#c49552"></stop><stop offset="1" stop-color="#ba874b"></stop></linearGradient><linearGradient id="paint1_linear_1_13" x1="1.63025" y1="2.45543" x2="27.0535" y2="18.3256" gradientUnits="userSpaceOnUse"><stop stop-color="#e1bb64"></stop><stop offset="0.242874" stop-color="#e1bb64"></stop><stop offset="0.515487" stop-color="#d4aa5c"></stop><stop offset="0.729115" stop-color="#c49552"></stop><stop offset="1" stop-color="#ba874b"></stop></linearGradient></defs></svg>