<?xml version="1.0" encoding="UTF-8"?>
<svg id="Layer_1" data-name="Layer 1" xmlns="http://www.w3.org/2000/svg" viewBox="0 0 7673.62 2411.61">
  <defs>
    <style>
      .cls-1 {
        fill: #585858;
      }
    </style>
  </defs>
  <path class="cls-1" d="m3570.08,2060.83c7.34-1.06,13.77-1.99,20.89-3.02,6-13.44,2.58-27.21,2.82-40.8-7.23-4.9-14.77-3.19-21.85-3.21-54.66-.16-109.32-.07-163.98-.12-6.66,0-13.32-.26-19.96-.7-3.96-.26-5.64-3.18-5.88-6.78-.26-3.87,1.8-6.53,5.64-6.72,11.97-.59,23.95-1.12,35.94-1.19,29.99-.17,59.99.02,89.99-.14,6.48-.04,13.39,1.39,19.59-3.73,2.68-10.71,3.44-21.89,1.94-33.18-1-7.59-3.76-10.39-11.71-11.01-7.29-.57-14.65-.48-21.98-.47-193.3.19-386.6.46-579.9.58-91.31.06-182.62-.14-273.94-.29-3.88,0-7.76-.73-12.75-1.24-1-6.94-1.91-13.31-2.93-20.42-3.98-.89-7.71-2.22-11.52-2.46-6.64-.42-13.32-.19-19.99-.19-189.31,0-378.61,0-567.92,0-57.32,0-114.64.06-171.96-.08-8.53-.02-17.27,1.16-25.33-1.78-2.58-5.47-2.29-9.56,3.76-11.38,3.09-.93,6.29-1.51,10.14-2.41.45-5.71,1.2-10.93,1.22-16.16.11-35.99-.43-71.98.32-107.95.27-13.12-3.57-23.61-12.92-32.06-7.87-7.11-16.22-13.77-24.84-19.97-7.63-5.48-15.85-5.46-24.53-1.22-14.25,6.97-24.82,17.65-33.58,30.53-3.63,5.33-3.64,11.26-3.65,17.27-.05,22.66-.1,45.31-.16,67.97-.04,15.99-.14,31.97-.12,47.96,0,3.93.37,7.87.58,12.05,4.51,2.22,8.72,3.91,12.45,6.33,1.29.83,2.15,3.59,1.87,5.24-.27,1.64-2.06,4.11-3.46,4.31-5.89.84-11.88,1.28-17.83,1.29-35.99.11-71.98.06-107.98.06-214.63,0-429.27-.01-643.9.05-8.51,0-17.22-1.19-26.51,2-1.16,6.57-2.27,12.91-3.55,20.17-4.5.82-8.95,2.33-13.4,2.34-59.31.14-118.62.06-177.94.05-197.3,0-394.61.02-591.91-.03-23.99,0-47.98-.44-71.98-.56-6.6-.03-13.19.34-20.14.54-7.22,14.83-2.35,29.27-3.42,41.91,5.35,6.15,10.9,5.92,16.11,6,27.98.45,55.97.67,83.95,1.01,8.66.11,17.35-.11,25.95.67,6.44.59,6.59,5.35,4.34,11.95-4.39.46-9.42,1.45-14.45,1.46-45.33.12-90.65.04-135.98.11-7.2.01-14.4.46-22.71.75-.62,5.57-1.5,9.99-1.53,14.42-.14,25.99-.04,51.98-.12,77.97-.02,4.63.01,9.4-1.09,13.83-.47,1.87-3.7,3.96-5.89,4.23-2.11.25-5.8-1.17-6.48-2.82-1.74-4.19-3.08-8.94-3-13.43.6-33.95,1.56-67.88,2.49-101.82.03-1.26.82-2.49,1.37-4.06,5.41-5.03,12.39-3.02,18.81-3.21q22.76-.65,23.16-24.1c.2-11.92.75-23.83,1.1-34.38,6.35-6.09,12.64-4.64,18.47-4.65,38.66-.12,77.32-.06,115.98-.06,7.28,0,14.56,0,22.35,0,1.3-4.16,3-7.17,3.07-10.21,1.64-74.57,3.11-149.15,4.56-223.72.02-1.27-.62-2.55-1.39-5.45-2.58-1.03-6.23-2.15-9.56-3.89-3.99-2.08-4.01-7.15-.2-9.66,1.65-1.08,3.54-1.8,5.34-2.64,1.78-.82,3.59-1.58,6.29-2.76,2.69-7.17,2.54-15.11,2.73-23.03,1.68-69.24,3.32-138.49,5.18-207.73.54-19.96,1.85-39.9,2.58-59.85.31-8.56.05-17.14.05-26.35-4.75-1.5-8.73-2.14-11.98-4.03-1.82-1.05-3.41-4.21-3.32-6.34.09-2.11,1.96-4.9,3.86-6.01,2.75-1.62,6.23-2,10-3.08.7-3.27,1.88-6.43,1.99-9.62,1.3-39.93,2.6-79.86,3.57-119.8.68-27.97.61-55.96,1.33-83.94,1.18-45.93,2.75-91.85,4.09-137.78.06-1.94-.6-3.89-.91-5.82-5.84-4.55-12.86-3.12-19.25-4.39-3.58-.71-4.01-1.63-4.5-10.33,6.86-.89,13.86-1.79,20.72-2.68,6.81-15.67,8.1-43.75,2.88-67.47-7.23-.99-14.89-2.04-23.19-3.18v-10.73c7.66-.9,14.78-1.74,22.69-2.67,1.14-3.86,3.1-7.53,3.18-11.23.56-27.28,13.72-45.1,39.44-53.87,1.23-.42,2.26-1.39,5.26-3.28,8.06-21.98,4.4-48.05,13.82-75.38,3.77,26.89,6.99,49.89,10.32,73.63,3.29,1.98,6.38,4.7,9.98,5.89,23.23,7.63,33.18,25.16,36.5,47.86.75,5.13,1.58,10.25,2.47,16.04,7.45.83,14.03,1.16,20.39,2.53,1.79.39,3.97,3.77,4.07,5.88.1,2.02-1.87,4.66-3.68,6.08-1.32,1.03-3.84.53-5.83.7-4.59.4-9.17.79-13.45,1.16-5.43,15.69-5.27,51.56.36,67.64,6.7.9,13.83,1.85,21.83,2.92.45,3.09.9,6.12,1.52,10.37-8.09,1.03-15.15,1.93-23.63,3.02-.9,4.01-2.75,8.32-2.67,12.6.71,35.95,1.79,71.89,2.72,107.83,1.32,51.26,2.49,102.52,3.96,153.78.73,25.28,1.96,50.55,3.04,75.83.08,1.96.71,3.9,1.3,6.95,3.07,1.28,6.82,2.39,10.03,4.37,1.97,1.22,3.94,3.6,4.43,5.79.77,3.5-1,6.37-4.82,7.47-3.08.89-6.12,1.89-10.27,3.18,0,13.1-.31,25.67.05,38.21,1.62,56.58,3.4,113.16,5.18,169.74,1,31.94,2.19,63.88,3.15,95.83.23,7.7.55,14.65,10.44,16.59,2.02.4,4.27,4.91,4.52,7.69.36,4-3.64,4.79-6.88,5.71-1.88.53-3.63,1.51-6.55,2.77-2.88,39.53,2.35,79.29,2.04,119.09-.31,39.14,1.56,78.22,4.95,118.14,14.29,2.82,27.56,1.29,40.7,1.56,12.66.26,25.33.12,37.99.04,13.22-.08,26.44-.29,40.47-.45.94-4.99,2.03-8.72,2.26-12.5.49-7.97.54-15.98.74-23.97.91-35.28,1.78-70.55,2.74-105.83.47-17.47.54-17.46-7.84-33.06,8.79-7.27,8.13-17.81,8.79-28.48,3.47-56.55,3.72-113.16,4.32-169.77.1-9.24,1.29-18.76-6.09-27,8.49-9.07,8.08-19.71,8.22-30.4.48-35.31.99-70.61,2.02-105.91.91-31.26,2.53-62.49,3.85-94.09-4.67-3.62-8.68-6.72-13.5-10.46.94-2.18,1.35-5.77,2.99-6.46,10.44-4.42,12.06-13.24,12.43-22.88.1-2.66-.02-5.33.08-7.99.3-8.53-3.06-14.07-12.05-15.38-1.07-.16-1.97-1.49-3.01-2.32-1.42-5.98,2.82-8.4,7.08-10.34,4.55-2.07,8.24-4.73,8.55-10.03.92-15.74,10.12-25.44,23.09-32.63,2.86-1.58,5.38-3.76,8.44-5.93,1.53-12.58,3.04-25.05,4.64-38.14,6.09,8.28,6.17,8.27,7.57,16.58,1.1,6.55,1.97,13.13,3.11,20.78,4.37,3.03,9.15,6.5,14.1,9.74,8.74,5.72,15.25,13.4,17.24,23.59,1.98,10.17,6.89,16.92,16.65,20.33.95.33,1.41,2.1,2.14,3.28-.86,8.67-10.83,3.23-14.89,11.23-1.6,9.3-.08,21.17-.36,33.86,4.67,2.73,9.09,5.32,14.76,8.64-1.45,2.47-2.56,6.73-4.4,7.08-8.42,1.59-10.56,6.66-10.43,14.31.52,30.64.55,61.3,1.26,91.94.83,35.95,2.4,71.88,3.14,107.82.19,9.18,1.35,17.15,11.05,22.05-3.72,5.6-8.2,9.96-9.65,15.16-1.55,5.54-.34,11.88-.18,17.87,1.41,53.93,2.86,107.85,4.27,161.78.28,10.59-.43,21.21,9.03,29.26,3.07,2.61,2.83,8.35-.7,10.68-5.53,3.65-5.79,8.55-5.62,13.91.93,29.28,1.99,58.56,2.93,87.84.43,13.32.7,26.64,1.02,39.96.19,7.9-.09,15.86,2.72,24.59,5.45.62,10.56,1.67,15.66,1.69,23.99.08,47.99-.21,71.99-.23,65.32-.04,130.65-.02,195.97-.02,7.28,0,14.56,0,22.76,0,2.44-7.76,4.56-14.49,6.86-21.82,15.05-5.2,31.56.78,47.66-4.38.82-4.02,2.14-7.78,2.27-11.58.62-19.31.86-38.63,1.39-57.94.22-7.98.51-15.97,1.34-23.9,1.06-10.23,1.38-20.06-8.47-27.05,3.56-5.16,7.54-9.04,9.13-13.72,1.65-4.87,1.1-10.52,1.33-15.83,1.3-29.93,2.62-59.87,3.77-89.81.31-7.96.05-15.94.05-25.26-2.12-1.43-4.84-3.08-7.35-4.99-6.1-4.66-6.46-8.4.14-11.68,5.72-2.84,7.93-6.54,7.94-12.36,0-6.66.17-13.33.03-19.99-.2-9.86-.29-9.86-10.15-17.4,4.26-4.57,10.46-7.32,10.76-15.24.72-18.67,10.93-30.79,28.3-37.2,1.8-.66,3.26-2.22,6.19-4.28,1.75-10.01,3.67-21.04,5.58-31.98,4.43-1.23,4.03,2.15,4.46,4.39.62,3.26,1.06,6.58,1.32,9.89.95,12.12,5.65,21.16,17.5,26.65,13.08,6.05,19.96,17.17,20.8,31.78.15,2.62.74,5.22,1.14,7.9,3.83,2.69,7.48,5.26,12.36,8.68-4.53,2.15-7.87,3.73-12.15,5.77-2.15,10.64-.43,21.89-.51,33.06-.03,4.37,2.63,6.91,6.24,9.38,9.33,6.4,9.03,8.21-1.11,14.31-1.12.67-2.16,1.47-4.26,2.92-1.9,6.93-1.21,14.9-.91,22.78,1.11,29.94,2.43,59.87,3.57,89.81.68,17.71.59,17.72,10.22,30.29-7.39,13.88-7.21,13.88-6.83,31.36.45,20.65.28,41.31.92,61.95.3,9.81-1.12,20.04,4.19,29.3,2.01.64,3.88,1.76,5.75,1.76,173.3.13,346.6.19,519.89.17,1.85,0,3.7-1.09,5.17-1.55,4.92-5.48,3.42-11.76,3.44-17.55.16-38.65-.13-77.3.18-115.95.17-20.63,1.52-41.24,1.83-61.87.19-12.62-.49-25.26-.95-37.89-.21-5.62-3.05-8.74-8.24-9.56-1.97-.31-3.98-.44-5.97-.44-10.11.03-13.29,2.95-13.27,12.96.05,19.32.46,38.64.51,57.96.02,7.23-.54,14.47-.88,22.6-5.22,1.35-9.49,2.9-13.88,3.46-4.6.59-9.32.27-13.98.28-141.98,0-283.96.04-425.94-.08-7.93,0-15.9-.91-23.74-2.13-1.47-.23-3-3.87-3.32-6.11-.17-1.18,2.01-3.59,3.49-3.95,7.01-1.68,14.15-2.85,21.48-4.24.48-3.68,1.65-6.48,1.01-8.78-4.21-15.03-3.57-30.37-3.32-45.65.5-30.33,9.96-56.93,30.43-80.2,16.09-18.29,33.27-34.34,55.39-44.91,4.6-2.2,9.88-5.65,11.95-9.92,5.81-12.03,15.96-17.84,27.62-21.19,9.61-2.76,16.09-7.84,21.48-16.27,6.01-9.4,13.89-17.61,21.47-26.97-2.42-5.3-4.84-10.6-7.13-15.61,11.86-25.86,11.26-17.9,3.93-36.04,2.86-5.75,5.96-11.97,8.8-17.68,2.33,5.01,5.13,11.01,8.04,17.26-3.83,10.89-6.59,21.64,2.47,31.79,1.62,1.82,1.1,6.41.26,9.35-1.05,3.65-3.46,6.9-5.58,10.88,3.38,3.92,6.43,7.32,9.32,10.84,4.21,5.12,9.6,9.78,12.15,15.65,3.6,8.28,9.78,12.25,17.41,15.21,3.72,1.44,7.54,2.64,11.21,4.2,8.09,3.44,15.54,7.64,19.02,16.49,2.36,6,7.32,9.22,13.02,11.64,30.83,13.08,51.12,37.89,69.36,64.28,9.9,14.32,15.04,31.4,15.64,48.92.61,17.92-.6,35.9-1.14,53.85-.1,3.27-.76,6.53-1.24,10.46,2.67,1.04,5.02,2.76,7.38,2.77,28.65.12,57.31,0,85.96-.12,1.25,0,2.5-.74,5-1.54.82-3.74,2.53-8.1,2.6-12.49.3-20.65.4-41.32.02-61.97-.11-5.88-1.99-11.74-3.21-17.58-2.99-14.33-7.76-28.52-8.81-42.98-3.92-53.93,10.75-101.42,51.84-138.79,3.94-3.59,8.01-7.04,11.81-10.78,10.53-10.36,22.08-19.18,35.7-25.2,8.6-3.8,15.82-8.94,21.18-17.38,6.56-10.33,16.57-16.93,28.74-20.24,11.33-3.08,19.84-9.48,25.41-20.67,3.4-6.84,9.78-12.44,15.57-17.79,10.66-9.86,11.52-12.9,4.77-25.35-1.25-2.29-2.47-4.6-3.53-6.55,3.47-7.73,8.3-14.61,9.4-22.04,1.1-7.47-1.52-15.48-2.7-24.75,1.45-3.25,3.87-7.94,5.59-12.87.84-2.41.4-5.26.59-8.96.84,2.63,1.1,4.48,1.96,5.99,5.68,10.03,9.55,19.7,5.17,32.02-1.88,5.3,1.66,12.79,3.52,19.05,1.09,3.67,3.73,6.88,5.7,10.34-1.35,2.93-2.51,5.28-3.52,7.68-5.57,13.24-4.78,16.56,4.76,26.48,5.04,5.24,10.21,10.6,14.02,16.71,4.82,7.73,11.14,13.27,19.25,16.75,16.74,7.19,31.85,16.26,42.94,31.39,2.94,4.01,8.51,6.19,13.06,8.89,30.13,17.92,56.2,39.86,75.93,69.51,15.28,22.96,22.89,47.91,25.47,74.72,1.86,19.31,1.4,38.7-4.87,57.34-5.61,16.68-7.1,33.76-6.88,51.18.19,14.66-.05,29.32.12,43.98.05,4.52.79,9.02,1.27,14.15,11.05,3.96,21.75,1.84,32.17,2.16,11.32.34,22.67.32,33.99,0,10.49-.3,21.17,1.62,32.89-1.93-1.11-10.9-1.8-21.36-3.31-31.71-4.19-28.83,2.52-55.53,15.56-80.91,14.18-27.59,36.89-46.78,63.05-62.42,6.27-3.74,14.75-6.47,17.96-12.09,7.65-13.39,19.62-18.96,32.75-24.04,3.6-1.39,7.2-3.79,9.78-6.65,8.45-9.38,16.49-19.14,24.57-28.85,2.73-3.28,3.44-7.16,1.88-11.24-1.4-3.67-2.92-7.29-4.42-11.01,1.63-3.25,3.09-6.21,4.6-9.14,3.5-6.8,5.07-13.51,1.29-20.95-2.15-4.22-2.46-9.14,1.04-13.13,1.18-1.35,3.35-2.63,5-2.55,1.61.08,4.18,1.68,4.5,3.04.89,3.75,2.29,8.41.86,11.5-3.85,8.31-1.67,15.78,1.67,23.02,2.7,5.87,3.48,10.87.47,17.02-3.37,6.87-.52,12.76,5.35,17.47,7.31,5.87,13.44,12.6,18.06,21.05,2.3,4.21,7.52,7.2,11.99,9.75,6.33,3.61,13.32,6.03,19.77,9.46,5.23,2.78,9.75,5.98,12.46,12.2,1.89,4.34,7.18,7.48,11.45,10.44,8.74,6.07,18.21,11.14,26.7,17.53,43.73,32.92,63.89,77.02,61.19,131.56-.26,5.25-1.92,10.42-2.89,15.64-.84,4.51-1.61,9.02-2.43,13.61,7.47,5.9,16.21,1.56,24.74,5.02.42,2.35,1.64,5.44,1.36,8.4-.38,3.99-4.06,4.98-7.44,5.22-5.31.38-10.65.51-15.97.51-143.31.02-286.62.04-429.94-.05-7.85,0-16.02,1.37-24.58-3.79-.46-3.68-1.44-8.12-1.49-12.57-.24-21.98-.14-43.97-.34-65.95-.11-12.51-2.83-15.03-15.46-14.62-2.54.08-5.04,1.13-8.62,1.99-.67,3.95-1.85,7.71-1.86,11.48-.19,69.96-.29,139.93-.27,209.89,0,6.48-1.45,13.31,3.31,20.52,3.22.3,7.04.93,10.88.98,166.76,2.45,501.52,1.06,520.41-2.26.94-3.4,2.74-7.12,2.89-10.91,1.26-31.95,1.88-63.92,3.49-95.85.4-8.03-8.17-8.09-9.78-14.93,2.92-3.4,7.66-6.74,9.13-11.17,2.04-6.15,1.95-13.11,2.2-19.74,1.2-32.61,2.23-65.22,3.28-97.83.15-4.64.02-9.29.02-14.58-4.85-3.33-9.57-6.56-14.62-10.03,1.02-2.03,1.59-4.88,2.71-5.13,10.56-2.28,13.6-9.28,13.25-19.12-.31-8.61-.07-17.24-.07-26.32-4.52-1.51-8.12-2.72-12.01-4.02.12-6.21,7.55-4.63,11.03-12.29-.1.53.81-2.62,1.03-5.82,1.01-14.46,7.77-25.69,20.28-32.45,10.53-5.69,15.64-13.35,16-25.31.19-6.47,2.61-12.87,4.79-22.77,2.33,5.22,3.8,7.24,4.09,9.41.77,5.94,1.29,11.94,1.45,17.92.22,8.04,3.32,13.91,10.69,17.7,16.94,8.7,25.71,22.64,25.21,42.27,4.51,3.1,8.71,5.99,14.35,9.86-4.37,2.12-7.6,3.69-12,5.82.32,6.04,1.01,12.5.91,18.95-.09,5.9-1.05,11.79-1.76,19.16,1.99,1.19,4.67,2.86,7.42,4.43,8.31,4.74,8.27,7.94-.25,13.67-1.63,1.1-3.3,2.14-6.21,4.02.76,25.34,1.43,51.26,2.36,77.17.43,11.97,1.51,23.92,2.02,35.89.46,10.6-.95,21.62,9.43,28.21-3.42,6.95-6.92,11.89-8.21,17.36-1.19,5.01-.06,10.59.16,15.92,1.01,24.61,1.98,49.23,3.14,73.83.24,5.18,1.24,10.33,2,16.39,15.92,5.36,32.31.09,48.22,4.03,1.65,6.76,3.19,13.06,4.78,19.56,7.13,4.21,14.6,2.82,21.71,2.84,60.66.12,121.32.03,181.97.08,27.99.02,55.99.26,83.98.28,6.54,0,13.09-.49,18.76-.72,5.43-7.01,4.38-13.89,4.57-20.39.41-13.98.29-27.98.62-41.96.64-27.29,1.03-54.59,2.39-81.85.54-10.93-.24-20.92-7.74-28.7,8.24-14.33,8.32-14.33,8.74-30.72,1.46-57.26,2.65-114.52,4.46-171.77.29-9.09-.61-16.95-8.31-22.91,3.52-5.21,7.57-9.13,9.01-13.85,1.7-5.57,1.45-11.83,1.54-17.79.75-47.96,1.28-95.93,2.11-143.89.28-15.96,1.04-31.92,1.97-47.86.5-8.45-2.23-14.09-10.72-16.67-1.38-.42-2.11-2.98-3.1-4.49q13.74-12.28,14.43-26.15.89-17.92-13.96-28.84c.1-.64-.03-1.62.33-1.88,9.43-6.65,15.95-14.74,17.65-26.9.64-4.56,5.09-9.25,8.95-12.54,7.04-6.01,14.94-11.02,23.24-16.99,1.41-11.39,2.87-23.21,4.4-35.56,6.09,7.08,5.36,15.39,5.66,23.27.37,9.64,3.92,16.4,13.47,19.95,11.36,4.22,19.56,12.72,21.72,24.34,1.91,10.25,6.86,16.78,15.11,21.94.87.55.98,2.32,1.44,3.53-.13.65-.02,1.6-.41,1.9-4.02,3.05-9.8,5.19-11.73,9.2-2.07,4.3-.54,10.33-.56,15.61,0,2,.19,4.01.03,5.99-.71,8.75,1.64,15.72,10.51,19.32.87.35,1.14,2.17,1.69,3.3-.06.65.13,1.6-.22,1.89-3.4,2.81-8.63,4.86-9.97,8.4-2.02,5.33-1.81,11.69-1.74,17.6.47,42.64.94,85.27,1.82,127.9.48,23.29,2.15,46.56,2.46,69.85.1,7.56,6.61,11.24,8.18,17.17-7.64,14.14-7.82,14.14-7.46,28.13,1.49,57.26,3.03,114.51,4.68,171.76.43,14.81.64,14.8,10.62,27.65-2.59,3.21-5.38,6.67-8.54,10.58.68,48.84,1.36,98.12,2.09,147.4.04,2.65.33,5.33.84,7.93,1.22,6.23,4.87,9.44,11.01,9.35,34.62-.5,69.24-1.09,103.86-1.73,1.94-.04,3.87-.72,7.08-1.35.75-4.04,2.15-8.39,2.3-12.78,1.48-45.92,2.69-91.85,4.1-137.78.66-21.29,1.75-42.56,2.33-63.85.22-7.86-.46-15.74-.69-22.39-2.07-1.56-2.62-1.94-3.13-2.37-3.27-2.7-10.32-.25-10.39-7.11-.05-4.89,4.54-5.98,7.89-7.95,1.69-1,3.32-2.11,5.76-3.66.52-4.84,1.45-10.07,1.57-15.31.55-25.98.74-51.96,1.32-77.94,1.27-57.26,2.64-114.52,4.1-171.77.34-13.3,1.27-26.58,1.72-39.88.24-7.22-1.44-13.14-10.16-14.63-1.71-.29-3.64-3.61-4.1-5.82-.76-3.62,1.31-6.15,5-7.39,3.06-1.03,5.96-2.49,9.39-3.96.48-4.42,1.16-8.3,1.28-12.19,1.3-43.93,2.57-87.86,3.72-131.8.47-17.98.54-35.97.98-53.95,1.02-41.27,2.24-82.54,3.2-123.81.26-11.24-.15-22.49-.26-34.17-7.4-1.98-13.88-3.26-20-5.51-3.8-1.4-3.76-4.92-1.17-9.04,5.82-.86,12.29-1.81,18.54-2.73,3.68-13.95,4.4-43.76,1.51-67.05-5.27-.75-11.01-1.34-16.64-2.46-3.61-.72-6.08-3.52-5.22-7.15.48-2.05,2.97-4.63,5.01-5.12,5.05-1.21,10.36-1.35,16.56-2.03,1.47-6.75,3.71-13.09,4.08-19.54.85-14.7,9.32-24.55,19.57-33.5,2.5-2.18,5.07-4.85,8.07-5.79,17.25-5.35,19.87-19.34,21.4-34.41,1.34-13.24,3.23-26.43,5.03-39.62.42-3.09,1.51-6.09,3-11.86,4.49,8.49,5.14,14.89,5.95,21.24,1.76,13.86,3.78,27.69,5.23,41.59.91,8.67,4,15.07,12.65,18.56,4.86,1.96,9.36,5.12,13.56,8.34,11.47,8.79,19.65,19.71,21.76,34.55.92,6.49,2.64,12.87,4.19,20.2,6.18.8,12.11,1.11,17.74,2.57,1.78.46,3.85,4.01,3.8,6.09-.05,2.02-2.34,5.28-4.2,5.72-5.1,1.22-10.49,1.25-15.53,1.73-4.77,13.45-5.27,48.94-.91,67.7,5.46.84,11.37,1.32,16.97,2.88,1.76.49,3.29,3.79,3.75,6.04.22,1.1-2.05,3.64-3.55,4-5.7,1.35-11.55,2.08-17.69,3.1-.8,3.27-1.97,5.77-1.94,8.27,1.27,115.84,3.66,231.65,8.35,347.65,5.23,2.94,9.71,5.46,13.89,7.82,3.81,11.53-7.38,10.55-11.73,14.67-2.63,19.73,4.09,291.16,7.93,316.7,2.47.84,5.42,2,8.46,2.83,3.83,1.05,5.82,3.71,5.04,7.27-.47,2.12-2.63,4.32-4.62,5.53-2.68,1.63-5.92,2.33-8.42,3.24-3.01,19.57,2.2,208.88,6.33,236.43,5.57,4.9,12.51,3.06,18.93,3.08,45.33.16,90.65.03,135.98.15,6.56.02,13.32-1.27,20.52,2.23,7.21,17.9-.62,37.85,4.92,56.85,13.01,5.15,25.91,3.39,39.38.69,5.87-15.84-1.04-32.14,3.5-48.7,4.61-2,9.9-4.29,15.04-6.51,3.73-15.32,3.84-25.88.29-44.48-6.26-1.44-13.02-2.99-19.75-4.53,0-1.97-.54-3.74.08-4.4,6.91-7.33,12.18-15.21,14.81-25.38,1.55-6.01,6.29-11.59,10.68-16.37,4.45-4.85,10.13-8.62,15.45-12.62q15.58-11.69,19.2-30.31c4.14-.11,3.3,3.31,3.7,5.55.7,3.9.44,8.06,1.59,11.79,2.09,6.76,10.03,10.92,15.99,8.02,15.09-7.35,29.05-16.76,39.39-30.01,3.72-4.77,3.99-12.41,5.25-18.86,1.34-6.87-.67-14.35,3.39-22.2,6.05,8.58,6.33,17.15,6.27,25.45-.07,9.66,4.1,16.38,11.53,21.92,9.07,6.77,17.9,13.86,26.8,20.85,18.09,14.22,24.71,32.4,18.92,54.87-.83,3.22-1.57,6.49-1.99,9.79-.73,5.69,2.05,9.1,7.43,9.52,5.72.44,9.36-1.85,10.01-7.24.72-5.93.92-11.94.93-17.92.08-33.99,0-67.97.09-101.96.02-7.22.54-14.43.86-22.47,6.66-1.52,12.27-2.8,18.86-4.31.51-3.73,1.49-7.53,1.44-11.32-.12-8.65-.84-17.28-1.17-25.93-1.4-36.56,13.53-65.96,40.29-89.75,10.36-9.21,20.1-19.39,33.55-24.75,4.07-1.62,7.73-5.39,10.47-9.01,6.78-8.98,15.72-14.2,26.33-16.88,4.78-1.21,9.13-3.11,10.65-8.01,3.16-10.18,11.19-16.19,19.42-22.57-.96-11.12-6.53-22.68,3.04-30.72-.98-7.3-2.19-13.15-2.28-19.01-.02-1.58,3.18-3.65,5.31-4.56.71-.3,3.4,2.07,3.88,3.62.75,2.44.92,5.33.42,7.84-1.46,7.3-2.43,14.07,2.29,21.02,1.83,2.69.7,7.61.4,11.47-.24,3.15-1.25,6.24-2.04,9.95,3.8,2.51,6.9,4.96,10.34,6.74,4.38,2.26,7.67,5.07,8.72,10.15,1.67,8.07,7.29,12.16,14.71,14.76,10.16,3.57,19.75,8,25.51,18.06,1.2,2.11,3.87,3.68,6.21,4.78,19.72,9.3,35.19,24.39,49.45,39.9,23.94,26.03,30.6,58.29,26.83,92.95-.71,6.5-3.78,12.9-.41,20.74,6.22,1.42,13.1,2.99,21.07,4.81.34,6.71.94,13.23.96,19.76.1,35.32,0,70.64.09,105.96.01,5.97.17,12,.97,17.91.65,4.77,4.65,6.03,8.94,5.98,4.3-.05,7.62-3.3,7.41-7.6-.19-3.96-.68-7.97-1.56-11.84-5.46-24.13,1.94-43.22,22.04-57.55,5.96-4.25,11.54-9.06,17.6-13.16,11.32-7.65,17.34-18.01,17.84-31.72.16-4.35,1.11-8.67,2.04-15.54,5.66,6.34,4.97,11.87,4.96,16.61-.04,13.29,5.75,22.75,16.75,29.74,11.16,7.09,20.39,17.13,32.8,22.26,17.03-5.82,11.9-22.41,17.23-33.54,4.97.91,4.5,4.89,4.3,7.87-.86,12.78,4.95,21.54,15.47,28.02,3.95,2.43,7.64,5.38,11.13,8.45,7.07,6.23,13.81,13.14,15.97,22.48,1.92,8.31,5.55,14.59,12.61,19.37,1.52,1.03,1.28,4.64,2.16,8.37-7.25,1.45-13.48,2.7-20.11,4.02-5.59,13.01-4.04,26.3-2.98,39.44.41,5.14,3.8,8.21,9.28,8.75,2.52.25,4.97,1.22,8.51,2.14,3.82,36.57-1.78,73.28,4.46,109.99,7.36,1.72,14.35,3.36,21.25,4.98,3.76,7.28,2,14.74,2.21,21.93.29,9.99.11,19.99,0,29.98-.03,2.63.18,5.68-1.03,7.77-1.12,1.93-4.03,3.94-6.09,3.88-1.92-.06-5.17-2.63-5.38-4.39-.8-6.58-.59-13.28-.76-19.93-.2-7.89-.4-15.77-.63-24.81-8.75-1.16-16.4-2.17-23.79-3.14-6.82-7.49-.78-17.46-6.19-25.71-8.21-3.85-17.65-2.47-26.79-2.5-62.66-.15-125.31.1-187.97-.14-79.97-.3-159.93-1.26-239.9-1.34-55.3-.05-110.61,1.03-165.91,1.34-23.31.13-46.63-.57-69.95-.56-7.21,0-14.43,1.07-20.73,1.58-7.07,8.57-1.73,18.23-6.59,27.39-6.06.85-13.11,1.84-21.21,2.98-.74,3.62-2.06,7.3-2.13,11-.15,8.65.51,17.31.41,25.96-.04,3.22-.86,6.6-2.11,9.57-.59,1.41-3.23,3.09-4.57,2.82-2.21-.44-5.71-2.15-5.93-3.71-2.78-19.75-2.05-39.47.56-59.97Zm-1614.48-412.14c4.26,1.21,6.11,2.12,8.01,2.23,18,1.05,23.28-2.41,25.7-19.84,2.19-15.77,3.84-31.8,3.53-47.68-.23-11.76-2.7-23.86-6.36-35.1-15.85-48.6-52.23-79.23-94.32-104.12-8.02-4.74-16.91-6.85-19.88-17.45-.89-3.18-5.33-5.8-8.67-7.77-5.14-3.03-10.58-5.71-16.18-7.76-13.14-4.8-22.99-12.94-29.19-25.66-1.99-4.1-4.87-7.96-8.05-11.24-4.94-5.09-10.37-5.77-16.11-1.22-5.63,4.46-11.17,9.6-15.09,15.53-7.66,11.58-17.49,19.85-30.37,24.79-4.96,1.9-9.76,4.25-14.56,6.53-4.92,2.33-9.51,5.18-10.44,11.16-.81,5.21-3.95,8.23-8.51,10.14-17.43,7.28-32.18,18.83-46.61,30.5-42.55,34.39-65.53,78.08-61.09,134.02,1.21,15.2,3.27,30.24,10.53,44.18,8.99,2.52,17.35,2.82,26.16-.03,3.05-7.7,4.31-15.45,4.32-23.46.02-16.62.02-33.25.14-49.87.04-5.32.02-10.7.83-15.94,1.34-8.69,6.69-14.92,15.15-16.61,22.64-4.53,34.26,1.9,37.31,23.66.64,4.59.6,9.29.69,13.95.13,7.32-.21,14.67.27,21.97.24,3.7,1.85,7.31,3.17,12.15,59.96.3,119.18.13,178.39.08,3.88,0,7.76-.78,11.99-1.24.78-3.14,1.79-5.61,1.96-8.13.88-13.27,1.69-26.54,2.22-39.83.27-6.91,1.6-13.13,7.05-17.97,13.97-12.44,38.84-6.04,44.03,11.84,2.01,6.92,2.6,14.41,2.78,21.67.4,15.98.05,31.97.19,47.95.05,5.89.62,11.77,1.01,18.57Zm460.6,97.82c6.98-7.34,6.01-17.34,7.33-26.22,5.36-35.84-1.83-69.07-25.34-97.23-14.92-17.88-32.38-33.4-53.5-43.99-8.91-4.47-17.79-8.17-22.18-18.52-1.56-3.68-6.84-6.03-10.78-8.38-5.69-3.4-11.67-6.35-17.61-9.31-6.13-3.05-10.49-7.53-14.17-13.44-11.58-18.6-19.01-18.24-30.98.86-.35.56-.65,1.17-.87,1.79-1.96,5.47-6.39,8.14-11.33,10.49-6.59,3.13-13.33,6.15-19.4,10.13-4.87,3.2-10.17,7.02-12.88,11.9-3.56,6.4-8.5,9.94-14.72,12.5-26.8,11.03-45.16,32.3-63.81,53.04-4.34,4.83-7.3,11.13-9.98,17.16-8.81,19.78-12.56,40.75-11.01,62.21.89,12.37,1.27,25.31,8.6,37.26,4.22.45,8.76,1.25,13.32,1.36,84.71,2.01,270.51.94,289.33-1.61Zm-1234.93-.44c20.43,2.94,218.4,4.15,291.94,2.04,4.56-.13,9.09-1.02,14.01-1.59,1.83-4.02,4.09-7.43,4.97-11.17,10.13-43.11.75-81.66-27.42-115.78-13.75-16.66-30-30.08-49.39-39.79-6.45-3.23-13.87-5.74-17.2-12.96-3.96-8.59-11.38-13.16-19.43-16.23-13.6-5.18-25.05-12.12-30.38-26.62-1.77-4.82-6.08-6.74-11.13-7.07-7.3-.49-13.57,1.52-16.31,8.73-4.69,12.34-14.86,18.28-25.8,23.55-3,1.44-6.05,2.79-9.11,4.07-5.74,2.41-11.4,5.96-12.87,11.77-1.85,7.28-7.44,8.97-12.58,11.62-19.66,10.15-37.49,22.42-51.95,39.61-34.29,40.76-37.01,59.33-32.55,112.41.48,5.74,3.31,11.29,5.2,17.42Zm2691.88,243.97c5.91.73,9.77,1.62,13.63,1.63,53.99.08,107.98.09,161.97-.06,3.75-.01,7.5-1.39,11.75-2.24.72-12.61,1.4-24.37,2.07-36.08,7.94-3.83,15.33-2.97,22.52-2.98,39.99-.08,79.99-.03,119.98-.05,6,0,12.05.31,17.97-.39,4.32-.51,8.47-2.44,13.69-4.05,0-6.89.19-12.81-.09-18.71-.12-2.55-1.23-5.06-2.04-8.19-3.96-.93-7.74-2.56-11.52-2.59-22.65-.13-45.31-.18-67.96.38-8.37.21-17.13-.03-23.87,7.34-2.62,2.87-8.42-.18-9.12-4.32-.66-3.93-1-7.94-1.05-11.92-.15-11.33,0-22.66-.12-33.98-.22-22.55,3.76-29.28-27.74-26.7-10.97.9-20.74-1.71-29.24-9.79-10.31-9.81-23.61-14.79-36.95-19.16-20.44-6.69-41.45-8.96-62.96-8.81-36.34.24-69.82,8.86-98.95,31.34-4.44,3.43-9.05,5.4-14.59,5.52-5.99.13-12,.11-17.95.7-5.13.51-10.19,1.81-15.41,2.78-4.33,25.41,1.11,50.17-3.59,75.28-3.95-.31-8.49.69-9.99-1.01-7.16-8.06-16.41-7.95-25.73-7.99-19.33-.09-38.66-.17-57.99.04-6.51.07-13.36-.89-19.97,3.68-2.24,8.62-2.49,17.63.41,27.36,3.91,1.01,7.62,2.54,11.44,2.84,6.63.52,13.32.35,19.98.35,39.33.02,78.65-.08,117.98.11,7.09.04,14.8-1.78,21.66,4.86.53,10.47,1.1,21.65,1.77,34.81Zm-265.06,36.28c8.89,6.16,15.76,4.85,22.27,4.82,20.65-.1,41.3-.83,61.96-.85,85.3-.11,170.6-.09,255.91-.01,22.65.02,45.31.63,67.96.59,76.64-.12,153.28-.48,229.92-.57,20.65-.02,41.3.74,61.96.78,5.08.01,10.17-1.37,14.73-2.03,4.12-19.67,3.99-61.74-.18-66.59-4.49-1.8-9.34-3.75-13.65-5.48-.82-2.04-1.72-3.26-1.74-4.5-.33-19.96-.65-39.92-.73-59.89-.02-5.58,2.73-9.69,7.1-13.58,5.15-4.58,4.91-8.23,1.4-13.99-5.7-9.33-13.89-16.11-23.03-21.75-5.53-3.41-11.76-3.56-17.06.14-26.63,18.59-31.61,24.58-21.46,54.82,6.5,1.03,13.5,2.14,20.97,3.32v11.05c-7.71,2.31-15.08,4.52-21.88,6.55-4.44,15.31,1.65,30.42-4.46,45.5-6.73.26-13.26.72-19.8.73-43.99.07-87.98-.03-131.97.11-6.48.02-13.32-1.56-20.18,3.04-2.05,8.63-.66,17.95-1.34,27.11-.32,4.35-1.67,8.63-2.73,13.76-35.81,0-70.44.1-105.06-.03-35.12-.13-70.26.66-104.89-.76-7.66-14.02-.38-29.02-6.68-42.58-7.78-.22-15.01-.58-22.25-.59-43.99-.06-87.98.05-131.97-.08-16.66-.05-18.42-1.89-18.91-18.03-.18-5.99.17-12.01-.19-17.98-.22-3.76-1.3-7.47-1.92-10.75-8.12-2.39-15.03-4.42-21.72-6.38.18-10.79.28-10.98,6.91-11.98,5.09-.77,10.2-1.45,15.69-2.23,1.4-6.96,2.59-12.79,3.73-18.64,1.23-6.3-.15-12.29-4.46-16.77-6.43-6.67-13.26-13.08-20.63-18.67-2.76-2.09-8.18-3.22-11.22-1.97-14.96,6.17-27.78,15.03-32.95,31.23,10.53,11.81,10.94,11.8,11.14,24.95.28,17.97-.12,35.96-.35,53.93-.02,1.18-1.06,2.35-1.66,3.58-5.29,2.3-10.62,4.62-16.63,7.23-.73,21.66-.92,42.81.05,63.41Zm357.72-475.24c-4.06,5.29-7.09,9.49-10.38,13.46-3.36,4.05-6.29,10.03-10.61,11.44-15.78,5.13-27.74,14.69-37.92,27.3-1.99,2.46-5.43,3.79-8.26,5.53-3.97,2.44-8.01,4.76-12,7.18-25.79,15.66-42.1,38.52-49.69,67.41-4.28,16.3-3.98,33.09-.45,49.55,2.24,10.46,6.39,13.85,16.37,14.2,31.01,1.08,26.35,1.55,31.62-25.1,2.96-15,5.74-30.04,9.12-44.95,1.15-5.08,3.63-9.95,6.06-14.61.62-1.2,3.53-1.97,5.15-1.67,1.72.33,4.03,1.89,4.52,3.41.75,2.33.61,5.19.06,7.64-2.62,11.69-6.05,23.21-8.14,34.98-2.18,12.29-4.55,24.79-.94,37.01,14.16,4.2,37.97,4.83,56.82,1.38.91-4.58,3.17-9.79,2.7-14.75-2.08-21.98,1.67-43.87.45-65.81-.29-5.31-.11-10.67.13-15.99.18-3.89-.07-8.33,5.19-9.42,3.73-.77,6.43,3.04,6.49,10.19.19,23.32.1,46.65.21,69.97.03,5.99.04,12.01.68,17.95.7,6.44,3.77,9.38,10.58,9.59,12.65.4,25.33.42,37.98.13,3.7-.09,7.36-1.77,12.16-3.01,0-5.28.56-9.93-.1-14.4-2.25-15.12-4.82-30.19-7.51-45.24-1.05-5.87-3.19-11.57-3.9-17.47-.22-1.8,2.3-4.89,4.27-5.73,2.01-.86,5.67-.58,7.21.78,2.33,2.06,4.25,5.31,4.94,8.37,3.22,14.27,6.15,28.61,8.79,43,1.56,8.5,2.28,17.16,3.62,25.71.7,4.44,3.82,7.33,8.12,7.51,9.3.41,18.63.45,27.93.08,5.12-.21,8.4-3.51,9.67-8.62,6.63-26.72,6.48-53.01-7.22-77.61-12.58-22.58-30.26-40.46-53.76-51.93-6.7-3.27-13.03-6.85-17.14-13.24-4.52-7.04-10.71-11.2-18.62-14.13-10-3.69-19.07-9.02-23.79-19.87-1.62-3.73-6.15-6.19-10.41-10.23Zm-616.49,126.35c-2.04-94.6-2.97-188.29-8.42-281.58-8.77-4.24-16.31-4.22-24.06-.52-3.21,9.31-1.69,18.69-1.69,27.9.02,53.29.28,106.59.32,159.88,0,4.49-1,8.98-1.5,13.16-5.92,2.28-10.4,2.45-11.68-4-.77-3.87-.61-7.95-.61-11.94-.08-52.62-.08-105.25-.21-157.87-.02-9.18,1.58-18.58-2.43-27.19-19.69-4.78-51.62-4.38-67.84,1.05-6.79,53.16-3.08,107.18-6.29,160.91-2.34,39.16-.97,78.54-1.15,117.82,0,1.12,1.15,2.25,1.77,3.37,18.59,2.76,105.67,2.44,123.8-.99ZM308.63,1023.17c-.46,7.6-1.16,14.06-1.19,20.54-.13,26.62-.02,53.24-.09,79.86-.01,4.64.09,9.41-.96,13.85-.42,1.76-3.82,3.84-5.91,3.89-2.02.05-5.57-2.03-5.89-3.67-1.01-5.16-1.04-10.55-1.06-15.85-.08-25.96.05-51.91-.11-77.87-.04-6.51,1.36-13.34-3.07-20.17-6.49-2.62-13.25-2.69-20.85.74-.68,5.57-1.7,10.75-1.87,15.95-1.06,31.9-2.08,63.8-2.82,95.7-.68,29.27-.92,58.54-1.48,87.82-.31,15.96-.86,31.91-1.36,47.87-.61,19.27-1.41,38.54-1.8,57.81-.07,3.72,1.38,7.48,2.15,11.33,3.5.89,6.02,2.08,8.52,2.07,29.28-.18,58.56-.48,87.84-.94,2.45-.04,4.88-1.4,8.44-2.48.34-5.47,1.03-10.64.88-15.77-.22-7.3-1.42-14.57-1.6-21.87-1.32-54.52-2.59-109.05-3.68-163.58-.62-31.27-.75-62.54-1.35-93.81-.14-7.16.99-14.78-5.57-22.33-14.51-.29-30.19-1.54-47.15.9Zm2923.89,316.14c4.46,1.19,7.61,2.72,10.77,2.75,28.65.26,57.29.39,85.94.22,7.76-.04,10.19-2.94,10.78-11.27.37-5.31.43-10.66.25-15.98-.91-27.27-1.88-54.54-2.95-81.8-1.15-29.26-2.78-58.5-3.55-87.77-.87-33.28-.97-66.59-1.52-99.88-.12-7.25.7-14.74-3.82-21.61-6.13-2.94-12.37-3.04-19.65.6-.41,4.34-1.18,8.84-1.19,13.34-.1,27.98.01,55.95-.06,83.93-.01,5.3-.25,10.64-.99,15.87-.2,1.4-2.81,3.65-3.99,3.47-2.28-.35-5.76-1.79-6.2-3.45-1.33-5.05-1.9-10.41-1.97-15.67-.38-27.97-.44-55.94-.79-83.91-.06-5.12,1.41-10.8-4.32-15.51-14.91-.8-30.59-2.54-47.41,1.37-.78,7.79-1.93,14.96-2.14,22.16-1.49,49.24-2.68,98.48-4.19,147.72-.76,24.61-2.35,49.19-2.89,73.81-.5,23.23-.11,46.48-.11,71.6ZM375.91,1678.64c.29-5.62.86-10.15.7-14.66-.5-13.95-1.57-27.87-1.9-41.82-1.45-62.5-2.51-125.01-4.23-187.5-.36-13.14,1.37-26.54-2.36-39.31-19.65-4.91-51.69-4.52-68.12,1.12-.19,6.73-.57,13.96-.58,21.2-.05,52.57-.02,105.14-.04,157.71,0,5.32-.12,10.64-.34,15.96-.15,3.7-2.1,6.15-5.81,6.98-4.11.91-8.71-1.45-9.22-5.49-.83-6.57-1.26-13.23-1.27-19.85-.1-51.9-.03-103.81-.08-155.72,0-7.23-.36-14.47-.58-22.74-8.09-1.71-14.87-3.53-21.67,1.01-.54,2.25-1.34,4.16-1.4,6.09-1.07,35.22-2.15,70.45-3.03,105.67-.64,25.94-.8,51.89-1.54,77.82-.77,27.24-2.04,54.48-2.88,81.72-.12,3.76.98,7.57,1.46,10.94,15.31,2.9,98.62,3.54,122.88.87Zm1329.41-46.67c-1.01,2.84-2.23,4.67-2.23,6.51.11,88.6.3,177.19.6,265.79,0,1.82,1.25,3.63,1.84,5.22q14.45,3.09,28.11-1.39c.94-16.71,2.43-33.91,2.76-51.14.48-25.31.51-50.64,0-75.95-.25-12.09,3.48-22.33,11.1-31.14,14.55-16.81,31.6-30.25,52.85-37.65,16.69,6.82,31.17,16.18,44.15,27.77,13.03,11.64,21.06,25.64,19.3,43.92-.38,3.96-.08,7.99-.04,11.99.26,31.97.46,63.95.87,95.92.08,6.44-1.25,13.41,5.31,19.8,8.19.15,17.33,1.87,26-1.59,5.4-8.23,4.6-17.05,4.51-25.64-.58-53.27-1.41-106.53-1.92-159.8-.26-27.31.02-54.63-.09-81.95-.02-3.79-.87-7.58-1.29-11.05-18.21-2.53-174.69-2.25-191.82.38Zm1515.04,106.83c-.27,7.75-.55,14.97-.77,22.18-1.03,33.86-2.14,67.73-3.03,101.6-.51,19.27-.76,38.55-.84,57.83-.02,4.45,1.13,8.91,1.88,14.33,15.22,2.57,29.82,1.5,44.24,1.16,14.3-.33,29,2.93,42.74-2.41,1.88-14.53,3.07-158.69,1.54-186.19-.18-3.2-1.18-6.35-1.73-9.17-15.77-4.86-60.23-4.74-84.04.66Zm-2842.6-.99c-21.38-7.34-42.05-.99-62.33-2.58-6.21-.49-13.27-.3-18.73,4.23-.45,2.36-1.12,4.28-1.13,6.21-.26,59.12-.5,118.23-.58,177.35,0,3.74,1.25,7.48,2.05,11.96,14.74,1.98,28.65,1.3,42.46.96,13.64-.34,27.62,2.6,42.33-2.86-.1-64.68-.78-128.91-4.06-195.27Zm3438.48,91.62c17.83,7.61,29.81,7.18,44.23-2.86,29.81-20.75,62.65-31.18,98.94-32.12,41-1.06,79.32,6.46,112.73,31.84,1.06.8,2.16,1.58,3.32,2.21,14.36,7.73,28.86,8.01,43.31,1.79,3.56-20.82,3.02-52.35-1.11-66.36-6.52-3.2-13.94-2.06-21.1-2.07-57.88-.1-115.77-.06-173.65-.06-29.94,0-59.88-.07-89.82.11-5.08.03-10.16,1.15-16.47,1.92-1.82,22.82-1.46,44.48-.39,65.6Zm-759.53-77.39c.54-4.71,1.55-9.24,1.49-13.75-.53-43.88-1.23-87.76-1.92-131.64-.16-9.92-1.57-19.66-3.78-28.75-6.44-3.94-12.16-4.15-17.45-.15-4.3,3.25-3.12,8.43-3.37,12.97-.18,3.32-.08,6.65-.07,9.97.09,31.26.22,62.51.23,93.77,0,3.94.05,8.08-1.13,11.74-.56,1.74-4,3.62-6.05,3.52-2.1-.1-5.52-2.25-5.87-4-1.02-5.15-1.03-10.54-1.04-15.83-.08-30.59,0-61.19-.07-91.78-.01-6.54-.38-13.08-.57-19-11.65-4.43-13.85-4.87-20.45-4.41-9.9.7-12.95,3.37-13.33,13.53-.6,15.94-.53,31.91-.94,47.86-.49,19.25-1.3,38.5-1.77,57.75-.41,16.61-.83,33.24-.68,49.85.07,7.86,3.14,11.08,11.02,11.18,19.93.25,39.87-.16,59.81-.41,1.21-.02,2.4-.94,5.95-2.43Zm-2442.86-175.86c-7.25-.69-11.8-1.51-16.34-1.5-13.68.04-16.73,3.15-16.58,16.21.01,1.33.13,2.66.15,3.99.54,30.59,1.23,61.18,1.5,91.77.05,5.91-1.36,11.85-2.36,17.74-.62,3.64-2.86,5.93-6.85,5.61-4.1-.33-5.59-3.42-5.94-6.82-.54-5.28-.72-10.61-.73-15.93-.06-29.96,0-59.92-.07-89.88-.01-5.31-.2-10.64-.78-15.91-.41-3.71-3.2-5.64-6.79-6.19-8.11-1.24-12.92,2.08-13.83,10.23-.81,7.26-1.09,14.6-1.25,21.92-.95,45.23-1.88,90.47-2.51,135.71-.05,3.6,2.23,7.22,3.51,11.08,21.39,2.23,42.01.84,62.59.65,9.99-.1,12.79-3.13,12.8-13.64.02-9.95-1.41-19.89-1.66-29.85-.82-32.6-1.22-65.22-2.14-97.82-.34-11.87-1.69-23.7-2.72-37.38Zm-2.29-48.78c3.64-12.04,2.46-22,2.21-31.8-1.15-45.13-2.49-90.25-3.84-135.38-.18-5.96-.2-12.05-1.52-17.8-.6-2.61-3.86-5.87-6.49-6.53-9.44-2.38-14.53,2.25-14.39,10.89.25,15.94.38,31.89.34,47.83-.01,5.85-.65,11.7-1.06,18.54-4.74-.27-8.27-.47-12.82-.73-.37-25.06-.73-48.78-1.07-71.69-7.59-5.02-13.7-5.01-21.07-.19-.15,5.92-.37,12.49-.46,19.06-.17,11.95-.11,23.91-.42,35.87-1.01,39.16-2.21,78.31-3.12,117.47-.1,4.36,1.19,8.75,1.97,14.01,20.83,1.66,40.56,1.11,61.74.47Zm2441.2-.88c1.05-16.36.48-30.89.09-45.39-1.14-41.87-2.46-83.74-3.72-125.61-.12-3.99-.05-8.01-.56-11.95-.71-5.5-5.33-8.59-11.64-8.27-5.43.28-9.05,3.2-9.54,8.22-.39,3.96-.32,7.97-.33,11.96-.04,12.64.13,25.29-.1,37.93-.1,5.27-.54,10.64-1.77,15.74-.45,1.89-3.57,4.25-5.55,4.33-1.89.07-5.33-2.32-5.58-4.02-.89-5.87-.72-11.91-.91-17.89-.56-17.23,1.24-34.53-1.26-52.08-2.6-1.17-4.87-2.78-7.35-3.2-8.95-1.52-12.74,1.31-13.27,9.89-.37,5.97-.12,11.97-.23,17.96-.47,25.27-.83,50.54-1.48,75.8-.65,25.26-1.72,50.5-2.28,75.76-.08,3.65,1.64,7.34,2.81,12.21,16.02,0,31.26.09,46.51-.05,4.56-.04,9.11-.72,16.16-1.33Zm-1136.33,383.81c23.54,2.67,24.3,2.09,24.71-18.83.13-6.65.18-13.31.14-19.96-.24-41.25-.74-82.49-.72-123.74.02-54.54.45-109.08.66-163.62.02-3.98.31-8.12-.62-11.91-.92-3.74-2.63-7.64-5.08-10.55-3.72-4.42-9.2-4.92-14.67-3.73-4.73,1.03-5.79,5.02-6.52,8.99-.72,3.91-1.59,7.88-1.6,11.83-.09,35.26-.2,70.53.1,105.79.34,39.89,1.48,79.77,1.54,119.66.04,27.91-1.28,55.81-1.73,83.72-.12,7.21-1.15,14.72,3.8,22.36Zm-228.49-1.25c.51-5.7,1.21-10.27,1.26-14.84.15-14.63.05-29.26.06-43.89.02-85.85.05-171.7.04-257.55,0-6.65-.2-13.3-.42-19.95-.17-5.02-2.84-8.77-6.59-11.8-4.53-3.67-9.73-4.51-14.93-2.04-4.1,1.95-4.52,6.24-4.63,10.31-.72,25.92-2.08,51.84-1.98,77.76.24,60.53,1.25,121.06,1.81,181.59.21,22.63-.03,45.25.13,67.88.03,4.47.92,8.93,1.46,13.81,8.15,2.05,15.08,2.53,23.8-1.27Zm-659.35-265.52c-1.33,23.38-3.46,45.82-3.65,68.28-.19,22.32-3.31,44.76-.44,66.22,11.62,7.51,22.24,1.43,32.59,1.88,10.35.46,20.92,1.3,30.97-.42,2.72-19.34-.99-117.3-4.91-135.91-15.78-4.78-34.48-4.98-54.56-.05Zm-9.02,265c19.52,4.56,60.22,4.26,75.05-.33.49-3.41,1.62-7.26,1.5-11.06-.75-22.51-1.78-45.01-2.73-67.51-.34-7.95-.44-15.92-1.16-23.83-.72-7.99-3.58-11.45-10.92-11.52-18.45-.17-36.98-1.91-56.04.95-1.38,3.91-3.63,7.51-3.8,11.2-1.49,33.71-2.89,67.44-1.91,102.1Zm1496.38-266.07c-2.44,46.38-6.59,91.22-5.21,135.96,3.17,1.41,4.98,2.95,6.73,2.89,17.9-.62,35.78-1.46,53.67-2.39,1.05-.06,2.03-1.51,4.38-3.38-.34-8.14-.84-17.3-1.08-26.47-.73-27.28-1.38-54.56-1.99-81.85-.19-8.61-.94-17.08-4.27-25.51-16.9-2.49-33.31-2.81-52.23.74Zm60.27,155.37c-4.08-1.46-7.1-3.45-10.13-3.48-17.81-.18-35.66-.97-54.5,1.01-1.34,5.86-3.36,10.86-3.49,15.91-.73,29.84-1.08,59.69-1.34,89.53-.03,3.05,1.43,6.11,2.07,8.68,22.18,3.71,56.27,3.09,70.59-1.34.45-2.7,1.55-5.89,1.41-9.02-1.42-33.68-3.04-67.35-4.61-101.29Zm777.73,136.41c3.49-10.97,2.3-20.93,2.01-30.78-.36-11.92-1.35-23.83-1.6-35.75-.81-37.83-1.33-75.66-2.14-113.49-.11-5.11-1.28-10.2-2.12-16.54-10.46-.9-19.89-4.24-30.51,2.41,0,10.92,0,22.15,0,33.38,0,46.48-.08,92.96.09,139.43.03,7.1-1.75,14.7,4.63,22.44,8.65.67,18.36,1.8,29.66-1.11Zm-3076.01-.31c.63-5.69,1.83-11.52,1.82-17.36-.04-13.96-1.08-27.91-.97-41.87.34-40.57,1.22-81.13,1.55-121.69.13-16.31-2.58-18.71-18.5-18.25-3.12.09-6.21,1.46-9.81,2.36-1.04,5.75-2.71,10.9-2.79,16.07-.94,57.88-1.66,115.77-2.32,173.65-.03,2.51,1.2,5.03,1.89,7.72,9.63,2,18.73,2.45,29.14-.64Zm2703.44-126.89c-5.49,21.74-8.09,107.05-3.98,127.5,13.57,4.13,27.24,1.52,41.77.23.7-5,1.83-9.48,1.86-13.98.27-34.57.38-69.14.34-103.71,0-3.08-1.47-6.15-2.34-9.55-13.23-2.49-25.55-2.82-37.65-.5Zm-2360.13,127c5.15-7.82,3.27-16.65,3.07-25.14-.32-13.96-1.24-27.9-1.61-41.86-.42-15.97-.39-31.96-.84-47.93-.11-3.78-1.36-7.52-2.19-11.81-13.88-2.04-26.72-4.06-40.54,1.42-.14,14.24-.32,28.16-.39,42.08-.07,13.98-.28,27.98.06,41.95.33,13.73-1.7,27.68,1.93,42.1,6.99.45,12.84,1.21,18.68,1.1,7.22-.13,14.65,1.43,21.83-1.93Zm3628.52-94.57c-9.56-10.35-21.44-16.11-32.98-22.29-4.49-2.4-9.08-1.23-13.2,1.4-7.81,4.98-15.78,9.77-23.28,15.19-12.14,8.78-18.52,20.6-16.65,35.91,1.12,9.12,2.81,18.18,4.18,26.86,14.76,4.29,49.55,4.37,66,.17.43-9.46-.72-19.66,1.77-28.88,2.5-9.3,8.61-17.63,14.17-28.37Zm-549.68,58.42c20.21,2.69,48.65,2.41,65.04-.49,5.21-14.02,6.55-28.97,3.46-44.14-.87-4.27-3.7-8.64-6.79-11.86-9.73-10.13-21.35-17.86-33.95-24.04-3.69-1.81-7.59-2.26-11.51-.24-11.75,6.06-22.17,13.79-30.38,22.45,4.85,10.18,10.62,18.69,12.86,28.03,2.25,9.34.97,19.52,1.27,30.29ZM356.11,881.52c4.14-20.76-1.96-37.45-17.27-46.25-17.12-9.83-42.88-7.92-55.69,4.99-5.7,5.75-11.02,11.7-11.55,20.19-.48,7.51-5.48,15.5,1.58,22.37,24.23,2.65,69.07,1.93,82.93-1.31Zm2971.4.25c3.26-21.57-3.34-39.79-18.44-47.39-16.43-8.27-33.63-8.31-49.47,1.79-14.64,9.33-19.3,25.67-14.41,45.49,15.46,3.33,62.99,3.54,82.32.11Zm20.96,816.12c-3.33-1.2-5.77-2.83-8.23-2.85-35.3-.28-70.61-.4-105.91-.34-3.16,0-6.32,1.48-9.27,2.23-3.67,7.61-3.1,14.62-.72,22.43,3.12.87,6.22,2.48,9.32,2.49,34.64.2,69.28.26,103.92.02,3.62-.02,7.23-2.13,10.89-3.28v-20.7Zm-2973.3-2.06c-4.5-.6-9.57-1.74-14.67-1.89-65.89-1.94-90.11-1.14-107.48,3.47-3.07,7.32-3.39,14.76,1.01,23.54,36.14,2.88,72.56.96,108.92,1.12,4.39.02,8.78-1.79,12.87-2.69,2.82-8.11,3.02-15.12-.66-23.55Zm186.47,238.24c3.29-13.36,5.41-79.73,3.6-115.07-.19-3.76-1.64-7.46-2.58-11.55-4.61-.55-8.46-1.3-12.33-1.36-2.5-.04-5.01.94-8.13,1.59-3.99,13.84-2.41,27.74-2.81,41.46-.43,14.55-.2,29.14-.98,43.67-.74,13.71-3.76,27.41.46,40.83,8.18,4.27,15.58,4.74,22.79.43Zm2499.03,2.04c.71-4.43,1.5-7.03,1.48-9.61-.36-37.1-.78-74.19-1.36-111.29-.04-2.44-1.46-4.86-2.25-7.32-7.63-2.34-14.47-3.33-21.68,1.48-.41,6.71-1.12,13.25-1.15,19.79-.14,28.48-.11,56.96-.07,85.44,0,3.97.15,7.97.7,11.89,1.19,8.48,4.21,11.08,13.31,11.23,3.18.05,6.37-.89,11.01-1.61ZM356.45,1005.97c2.77-7.23,5.93-14.53.91-22.06-18.06-3.07-70.23-2.84-86.07.44-2.96,7.35-3.85,14.76,1.28,21.9,17.62,2.7,67.86,2.55,83.88-.27Zm-41.76,373.18s0-.05,0-.07c15.2,0,30.41.21,45.6-.11,5.68-.12,8.48-3.51,8.75-8.68.35-6.72-2.22-10.45-8.26-11.3-3.92-.55-7.91-.75-11.87-.77-24.46-.12-48.92-.15-73.38-.18-2.64,0-5.3.03-7.92.32-5.46.6-8.1,3.54-8.41,9.03-.44,7.61,2.37,11.47,9.92,11.65,15.18.37,30.38.11,45.57.11Zm2970.71.03c0,.1,0,.19,0,.29,2.65,0,5.31.03,7.96,0,13.26-.17,26.53-.12,39.77-.65,5.39-.21,7.78-3.83,7.69-9.58-.1-5.76-2.49-9.12-7.64-9.86-3.92-.56-7.92-.71-11.89-.74-24.55-.15-49.09-.24-73.64-.27-3.3,0-6.62.29-9.89.76-3.73.54-5.57,3.15-6.27,6.67-1.6,8.13,1.67,13,10.12,13.25,14.58.43,29.18.12,43.77.12Zm-40.73-371.05c15.04,0,28.95.49,42.8-.14,13.62-.61,27.69,3.02,40.61-2.8,2.48-11.7,2.44-11.7-1.22-21.36-18.99-3.17-68.25-2.81-82.88.73-1.97,6.88-2.47,13.87.68,23.56Zm-2887.67-108.86c-10.7-1.72-19.04-2.41-27.13.45-.91,2.72-2.02,4.53-2.04,6.36-.2,16.52-.49,33.05-.18,49.56.17,9.45,2.86,12.01,11.82,12.25,5.75.16,11.91,1.52,18.49-4.09.97-20.32,1.85-41.78-.95-64.54Zm-84.46-.42c-5.42,18.51-5.12,52.61.14,67.12q10.7,1.88,20.71-.6c4.84-16.67,4.62-51.73-.77-66.52h-20.08Zm783,676.42v-.02c5.33,0,10.66-.06,15.99.01,8.18.11,14.86-4,11.5-15.85-.72-2.55-1.53-5.14-2.75-7.47-5.27-10.05-15.23-15.39-26.36-14.38-11.12,1.01-22.1,9.8-24.82,20.27-2.8,10.76,2.21,17.93,12.46,17.47,4.65-.21,9.32-.04,13.99-.04Zm1461.6-3.76c15.37,5.94,30.6,4.26,45.74,2.59,4.28-.47,6.85-3.85,6.96-8.43.39-16.12-11.27-28.02-27.19-28.04-7.77-.01-14.46,2.4-19.64,8.17-6.08,6.78-9.15,14.52-5.87,25.71Zm750.39-605.08c4.06-19.21,3.71-51.77-.38-66q-11.65-2.57-22.5.39c-3.49,18.36-3.14,50.23.98,65.65,6.63,2.15,13.66,2.04,21.9-.04Zm59.86.03c3.66-23.13,3.06-53.2-1.02-66.71-6.26-2.25-12.54-3.1-19.52.99-1.8,16.01-2.75,32.4-2.4,48.87.06,2.64.17,5.3.6,7.9,1.21,7.41,4.1,10.01,12.01,10.27,3.16.11,6.36-.78,10.33-1.32ZM620.12,1769.95c-15.08-.17-27.64-.66-40.18-.35-12.33.31-24.96-2.07-36.69,2.1-2.44,17.32-1.2,19.25,13.51,19.5,16.61.28,33.23.23,49.83-.09,4.41-.08,8.8-1.66,13.54-2.61v-18.55Zm2360.94,2.37c-.46,1.48-1.49,3.3-1.53,5.13-.23,10.94,1.65,13.43,12.11,13.62,18.62.35,37.24.11,55.86.05,1.97,0,4.35.1,5.81-.9,2.55-1.76,5.62-3.97,6.53-6.66,2.64-7.72-1.24-13.67-9.14-13.73-21.93-.16-43.86.2-65.79.47-1.15.01-2.28,1.16-3.86,2.01ZM554.23,1227.95c17.22,3.29,32.81,3.39,48.34.88,2-.32,4.83-5.01,4.68-7.52-.74-12.43-10.54-22.23-22.64-23.7-14.21-1.72-24.87,4.82-28.94,18.1-.94,3.06-.81,6.45-1.45,12.24Zm474.05,393.51c9.19,6.91,17.74,5.35,26.07,3.11,2.06-.55,4.69-3.42,4.97-5.5,1.56-11.74,3.18-23.62-2.08-35.33-9.26-2.74-18.09-3.59-27.48,1.16-.64,4.13-1.67,7.96-1.74,11.8-.16,8.54.16,17.09.26,24.76Zm2018.89-393.9c1.16-8.95-1.33-14.3-5.6-18.6-3.68-3.7-7.68-7.61-12.31-9.74-14.44-6.64-29.43,1.54-35.54,18.72-2.51,7.06.39,12.58,7.66,12.38,15.03-.41,30.04-1.75,45.79-2.76Zm-28.1,96.04c0-.17,0-.34,0-.5,6.58,0,13.2.37,19.74-.1,6.65-.49,9.27-4.55,9.16-12.66-.09-6.58-2.74-10.68-8.87-10.9-13.13-.47-26.3-.44-39.42.18-5.95.28-8.29,5.41-7.79,13.74.41,6.86,2.96,9.86,9.41,10.19,5.91.3,11.85.06,17.77.06Zm-2463.04-.47c15.08,0,29.01.26,42.93-.12,6.4-.17,9.16-3.94,9.29-10.58.16-7.91-2.77-12.67-9.25-12.96-11.96-.53-23.96-.59-35.93-.28-6.28.17-9.78,3.93-9.72,10.33.04,4.37,1.66,8.73,2.68,13.6Zm2011.71,260.87c-3.42-1.03-5.25-1.98-7.13-2.08-18.27-1-21.02,1.64-20.44,19.51.17,5.27.46,10.55.99,15.79.44,4.34,3.06,7.39,7.27,8.33,3.82.85,7.81,1.28,11.72,1.25,5.3-.04,8.91-3.16,9.13-8.42.48-11.09,1.76-22.28-1.54-34.39Zm484.02-25.23c2.17-14.09,1.03-16.4-9.49-16.63-17.8-.39-35.63-.78-52.99.34-1.47,3.11-2.72,4.8-3.06,6.65-1.58,8.53.64,11.55,8.53,11.52,15.28-.06,30.57-.2,45.85-.51,3.83-.08,7.65-.92,11.17-1.38Zm-2466.86-275.17c4.63.84,8.51,2.16,12.36,2.1,6.66-.11,10.47-3.27,10.71-9.4.34-8.59.29-17.3-.76-25.81-.83-6.7-6.31-9.02-15.76-8.23-6.38.53-9.42,3.35-10.21,10.01-1.19,10.03-.15,19.85,3.66,31.34Zm2695.38-383.82c-2.14,21.06-1.52,40.8-.66,60.52.25,5.7,5.72,8.46,11.73,6.89,4.75-1.24,5.97-4.93,6-9.02.14-16.53.36-33.06-.04-49.58-.21-8.62-2.75-9.78-17.03-8.81Zm-2973.78-.2c-6.69,20.66-1.93,41.65-1.57,62.5.06,3.43,3.72,5.6,7.28,5.01,2.27-.38,4.44-2.15,6.32-3.69.87-.71,1.34-2.37,1.34-3.61.08-17.78.35-35.56-.13-53.33-.16-5.92-3.44-7.11-13.25-6.88Zm242.68,660.19c20.76.43,41.12,1.45,61.53-.52,3.79-.37,4.94-3.99,4.81-7.56-.23-6.06-3.34-9.35-10.32-9.51-15.28-.34-30.58-.25-45.87-.11-3.16.03-6.31,1.08-9.29,1.62-.91,2.73-1.95,4.53-2.02,6.37-.1,2.5.55,5.03,1.16,9.69Zm2466.65-277.98c.41-3.63,1.07-7.5,1.22-11.39.23-5.94.38-11.9.08-17.83-.33-6.6-3.69-9.84-9.72-10.18-9.01-.51-14.26,2.52-14.6,9.49-.48,9.84-.12,19.72-.12,29.15,8.08,5.89,15.22,6.61,23.13.77Zm12.36.06c5.31,2.94,10.46,4.85,15.6,1.88,5.59-3.23,4.39-9.29,4.41-14.44.03-6.63-.28-13.31-1.15-19.87-.66-4.94-4.69-7.19-10.48-6.96-5.53.22-9.25,2.92-9.58,8.09-.66,10.54-1.91,21.17,1.2,31.29Zm-2456.28-37.09q-7.79-1.92-15.54.41c-3.87,9.96-4.2,20.47-3.15,31.06.64,6.39,3.71,9.21,10.63,9.19,2.98-.01,5.96-1.98,9.06-3.11,1.25-13.13,2.59-25.51-.99-37.55Zm496.93,338.44c-2.44,12.5-1.75,23.73-.96,34.91.33,4.68,5.19,8.22,9.97,7.68,4.68-.53,7.01-3.82,7.1-8.17.17-8.62.3-17.29-.39-25.87-.63-7.92-3.03-9.06-15.72-8.55Zm1446.61,20.4c0,5.63-.11,9.59.03,13.54.16,4.52,2.44,7.38,7.1,7.87,4.3.45,8.61-2.06,8.73-6.04.3-10.47.23-20.97-.32-31.43-.19-3.48-3.34-5.42-7.14-5.32-3.67.1-6.63,1.73-7.15,5.37-.83,5.84-.95,11.79-1.25,16.02Z"/>
  <path class="cls-1" d="m126.36,2321.37c-1.12-24.18-1.68-45.87.44-68.59,14-3.94,28.01-3.08,41.66-4.68,5.26-.62,10.65-.11,15.99-.11,799.2,0,1598.41,0,2397.61,0,135.24,4.57,270.56,3.41,405.78,1.6,195.27-2.63,390.52-.81,585.77-1.46,195.3-.64,390.6-.14,585.91-.14h585.91c195.3,0,390.62-1.79,585.9.53,175.25,2.08,350.51,2.82,525.72.98,177.94-1.87,355.86-.74,533.79-1.37,177.3-.63,354.63-1.58,531.91.39,111.28,1.23,222.56,2.12,333.82,1.19,71.96-.6,143.92-1.9,215.88-1.62,55.2.22,110.39,1.42,165.59,1.97,7.84.08,16.06,1.55,23.24-3.04,4.09-13.91,4.58-43.49,1.02-63.41-7.6-4.72-16.4-3.72-24.91-3.75-39.98-.14-79.95-.09-119.93-.09-86.65,0-173.31-.07-259.96.07-19.32.03-38.63,1.03-57.95,1.13-17.98.09-35.96-.41-53.95-.69-6.66-.1-13.32-.46-19.99-.46-96.65-.03-193.3-.16-289.95,0-275.27.45-550.55,1.31-825.82,1.42-172.62.07-345.24-.95-517.86-1.43-37.3-.1-74.59-.07-111.89-.01-314.6.51-629.19,1.29-943.79,1.49-414.6.26-829.2.23-1243.79,0-197.95-.11-395.9-1.37-593.85-1.38-191.91,0-383.83,1.3-575.74,1.37-550.54.2-1101.09.15-1651.63,0-99.3-.03-198.6-1.03-297.89-1.42-15.31-.06-30.62,1.06-45.94,1.13-8.88.04-18.27,1.31-27.48-5.38,2.85-1.77,4.31-3.42,5.86-3.51,6.64-.39,13.32-.39,19.98-.39,117.31-.02,234.62.05,351.93-.03,205.29-.13,410.59-.39,615.88-.49,173.29-.08,346.59-.02,519.88-.02,308.61,0,617.22-.06,925.83.03,297.28.08,594.55.45,891.83.45,275.95,0,551.9-.38,827.85-.45,127.31-.03,254.62.41,381.93.45,81.98.02,163.96-.42,245.93-.45,219.29-.07,438.58-.08,657.88,0,140.64.05,281.28.47,421.92.45,363.27-.07,726.54-.36,1089.82-.44,117.31-.03,234.62.43,351.94.44,112.65,0,225.29-.31,337.94-.45,7.91,0,15.83.32,23.93.49,1.35,4.32,3.14,7.42,3.17,10.53.21,22.64.13,45.28-.08,67.92-.02,2.49-1.44,4.97-2.36,7.96-3.48.6-6.67,1.49-9.9,1.62-5.99.25-12,0-17.99.05-63.3.5-126.6,1.42-189.9,1.43-60.64,0-121.28-1.18-181.91-1.34-35.98-.09-71.96,1.19-107.94,1.16-44.64-.04-89.28-1.23-133.92-1.19-368.59.39-737.17,1.23-1105.76,1.37-201.29.08-402.57-1.43-603.86-1.35-711.87.28-1423.75,1.08-2135.62,1.37-192.62.08-385.24-1.44-577.86-1.37-814.52.31-1629.05.94-2443.57,1.52-7.82,0-15.87-1.25-24.3,2.21-2.92,15.15-2.05,30.09-.81,46.17,4.72.71,8.49,1.6,12.28,1.78,5.99.28,11.99.09,17.99.09,2430.94,0,4861.89,0,7292.83.06,10.5,0,21.18-1.33,32.38,1.83,3.16,10.72,1.5,21.37,1.78,31.81.27,9.99.13,19.99.04,29.99-.1,10.54-.37,21.08-.58,32.5-4.95.9-8.7,1.98-12.49,2.18-6.65.35-13.33.19-19.99.19-179.97,0-359.94-.09-539.91.07-43.28.04-86.55,1.12-129.83,1.33-30.64.15-61.28-.51-91.91-.53-31.95-.02-63.89.37-95.84.41-12.65.01-25.31-.43-37.96-.69-1.33-.03-2.66-.33-3.98-.32-33.28.15-66.56.35-99.84.48-9.31.04-18.62-.07-27.92-.2-3.99-.05-7.99-.49-11.98-.44-29.95.4-59.89,1.26-89.84,1.24-33.27-.02-66.54-.93-99.81-1.21-27.32-.23-54.64-.13-81.96-.13-1913.03,0-3826.05,0-5739.08-.04-9.97,0-19.95-.46-29.9-1.12-1.28-.08-3.29-2.68-3.31-4.14-.03-1.46,1.73-3.71,3.21-4.27,2.39-.91,5.19-.92,7.83-.96,8-.11,16-.07,24-.07,2343.62,0,4687.25,0,7030.87,0,8.66,0,17.33.11,25.99-.14,3.83-.11,7.64-1,11.02-1.47,3.6-15.72,3.81-54.68.67-72.06-4.18-4.29-9.59-4.02-14.92-3.99-10.66.07-21.33.27-31.99.27-574.57.01-1149.15.01-1723.72.01h-217.96c-869.82,0-1739.63,0-2609.45-.01-119.31,0-238.62-.21-357.93-.21-787.2.05-1574.41.14-2361.61.18-11.94,0-23.87-.49-38.5-.82Z"/>
  <path class="cls-1" d="m4990.15,1857.24c13.93-.92,25.08-1.66,34.86-2.31,6.43-6.03,5-12.36,5.02-18.16.14-38.65.25-77.3,0-115.95-.14-21.93,1.75-43.97-3.42-65.7-1.39-5.86.03-11.67,2.54-17.45,2.33-5.35,4.02-11.42,4.13-17.21.47-23.46,5.78-46.12,10.33-68.92.5-2.52,1.74-4.9,3.38-9.38,2.11,3.65,3.83,5.54,4.35,7.71,3.72,15.5,7.5,31.01,10.61,46.64,1.42,7.11,1.73,14.5,1.91,21.78.17,6.73.29,13.26,4.14,19.19,4.3,6.63,4.28,14.06,2.29,21.24-3.63,13.06-3.53,26.34-3.51,39.67.05,43.98,0,87.96.05,131.95,0,7.25.36,14.5.58,22.81,7.9,1.6,14.82,3,22.73,4.6,5.66,14.63.02,31.48,7,46.58,9.39,5.72,19.29-.03,29.01.43,9.93.47,19.9.1,30.56.1,2.48-6.89,4.63-12.87,6.98-19.39,18.8-4.23,38.57,1.93,56.38-4,5.9-13.85-1.26-28.16,6.09-40.1,17.96-3.38,113.76-3.18,130.21.34,6.9,16.73-.03,35.26,4.97,53.82,3.04-1.03,6-1.13,7.44-2.67,22.48-23.87,42.27-49.57,54.65-80.37,8.49-21.13,8.36-43,5.87-64.96-1.21-10.71-6.25-20.44-13.16-28.73-15.64-18.74-34.06-33.63-58.2-40.23-5.67-1.55-11.19-3.62-17.5-5.68.39-13.08-1.04-25.54,2.41-38.48,8.7-2.95,17.47-2.41,25.78-.99,16.35,2.79,32.58,6.44,48.71,10.36,9.93,2.41,19.07,3.52,29.03-1.09,8.94-4.14,18.88-6.53,28.62-8.42,9.83-1.91,15.09-7.37,17.69-16.56,5.25-18.58,11.18-36.97,15.99-55.66,9.47-36.78,16.56-74.04,21.46-111.72,4.63-35.65,9.53-71.27,13.78-106.97,2.2-18.5,3.44-37.13,4.79-55.73,1.54-21.25,2.53-42.54,4.09-63.8,3.8-51.8,7.85-103.58,11.67-155.38,1.57-21.25,2.87-42.52,4.16-63.8,1.92-31.91,3.64-63.83,5.59-95.73,3.38-55.16,7.11-110.29,10.18-165.47,1.11-19.94,1.6-39.99.82-59.93-.85-21.78-7.59-42.03-23-58.16-6.04-6.32-8.86-12.91-8.2-21.42.76-9.81-1.48-19.87,2.21-30.45,9.22-1.29,18.23-2.55,27.47-3.85,4.38-11.32,4.4-22.75,5.15-33.82,2.34-34.55,3.98-69.14,5.63-103.73.54-11.22,1.77-22.7-5.7-32.67-1.12-1.5-1.6-3.74-1.75-5.68-1.4-18.48-1.87-36.95.28-56.22,8.92-.89,16.66-1.66,24.19-2.4,6.33-8.06,5.1-16.95,5.13-25.43.14-38.65.06-77.3.08-115.95,0-5.33-.46-10.75.34-15.96.67-4.4,1.82-9.47,4.59-12.64,6.32-7.23,6.87-15.46,7.13-24.25.26-8.62.21-17.49,2.28-25.75,2.59-10.31,7.04-20.66,15.22-27.69,9.19-7.9,10.83-17.51,11.39-28.53.95-18.61,2.74-37.17,4.28-55.74.09-1.09,1.13-2.1,1.75-3.21,4.85,2.26,3.04,6.91,3.32,10.43,1.47,18.58,2.77,37.19,3.6,55.81.31,7.02,1.82,12.99,7.1,17.9,15.75,14.62,20.44,33.73,21.62,54.19.27,4.65.1,9.36.72,13.96.42,3.2.84,7.7,2.96,9.16,11.42,7.91,9.56,19.64,9.61,30.69.18,38.65.06,77.3.11,115.95,0,5.99,0,12.01.62,17.96.67,6.51,3.61,9.19,10.22,10.19,2.62.4,5.33.14,7.98.43,1.94.21,3.84.84,6.77,1.52.75,4.24,2.08,8.67,2.21,13.14.33,11.32.15,22.65.12,33.98-.02,7.39-.57,14.36-6.26,20.36-2.39,2.52-2.93,7.2-3.41,11.02-.5,3.92-.02,7.98.24,11.97,2.77,43.19,5.55,86.38,8.44,129.56.21,3.2,1.37,6.34,2.35,10.67,9.14,1.57,18.1,3.1,28.05,4.81,2.46,14.24,2.19,28.12,1.31,41.97-.19,2.99-2.46,6.07-4.34,8.69-3.11,4.32-6.86,8.16-10.02,12.45-8.1,10.96-13.11,23.16-13.73,36.9-.42,9.31-1.04,18.65-.7,27.94,1.7,47.25,3,94.53,5.73,141.73,3.27,56.5,8.01,112.9,11.79,169.37,4.18,62.45,7.84,124.93,12.03,187.38,1.74,25.9,4.36,51.74,6.41,77.63,1.73,21.9,2.91,43.85,4.88,65.73,5.87,65.03,14.51,129.65,30.24,193.15,6.08,24.53,12.12,49.08,18.28,73.59,1.13,4.51,2.69,8.93,4.22,13.33,1.64,4.73,4.97,7.56,9.85,9.01,15.28,4.52,30.4,9.62,45.8,13.68,4.15,1.09,9.14-.35,13.61-1.28,16.27-3.37,32.51-6.9,48.71-10.6,9.23-2.11,18.39-2.02,28.32-.93,7.19,12.73,3.98,25.76,3.11,37.76-4.92,5.92-10.97,6.7-16.76,8.13-23.01,5.69-40.18,19.95-55.36,37.36-19.34,22.19-21.41,48.08-15.82,75.21,1.99,9.65,6.19,18.98,10.28,28.05,16.2,35.85,40.97,65.31,70.08,91.23,16.03,14.27,34.35,25.16,54.21,33.38,4.83,2,9.71,3.89,14.8,5.93,4.15,20.18-.96,40.41,3.77,60.89,5.7.58,10.83,1.5,15.98,1.55,16,.15,31.99-.06,47.99-.06,5.95,0,12.11-.59,17.33,4.92,1.25,6.28,2.63,13.18,4.25,21.29,5.62,0,10.15,0,14.68,0,58.66-.02,117.32-.1,175.97,0,7.18.01,14.68-1.38,22.58,3.6,1.01,6.9,2.14,14.63,3.23,22.11,6.73,5.55,14.38,3.6,21.49,3.61,65.99.15,131.98.08,197.97.08,7.28,0,14.57,0,20.66,0,6.89,6.45,5.56,13.4,5.66,19.87.18,11.18.53,22.46-4.55,32.43-4.91,1.01-7.69-.8-8.37-4.43-.84-4.54-.7-9.26-1.1-13.89-.5-5.84-1.12-11.66-1.67-17.37-7.99-4.18-15.42-2.83-22.54-2.84-65.99-.11-131.98-.07-197.97-.07-7.25,0-14.49,0-22.85,0-1.23-8.2-2.27-15.19-3.51-23.49-3.13-1.01-6.65-2.81-10.32-3.19-5.94-.61-11.98-.36-17.98-.36-53.33-.02-106.65.03-159.98-.06-7.89-.01-15.78-.62-24.89-1-.96-6.77-1.79-12.49-2.57-18.22-.62-4.56-3.51-6.98-7.71-7.97-1.93-.45-3.96-.54-5.96-.59-4.66-.12-9.33-.16-14-.16-299.29,0-598.58-.02-897.87.05-11.21,0-22.42.85-34.61,1.34-1.9,8.6-3.57,16.13-5.43,24.55-5.51.5-10.69,1.36-15.87,1.39-51.99.3-103.98.46-155.96.65-9.33.03-18.67-.16-27.99.15-4.53.15-9.02,1.22-13.9,1.93-1.69,8.32-3.25,15.95-5,24.59-8.14.14-15.39.37-22.64.37-65.99.03-131.98-.03-197.97.08-7.16.01-14.57-1.18-22.37,2.19-.47,4.02-1.2,7.84-1.31,11.68-.15,5.32.32,10.66.24,15.98-.11,6.86-2.76,10.23-7.1,9.5-4.83-.82-6.53-4.19-6.44-8.56.24-11.98.51-23.97,1.12-35.94.12-2.46,1.75-4.85,3.18-8.58h119.76c20,0,40,.3,59.99-.08,19.84-.38,39.79,1.75,59.35-1.41,5.99-7.52,2.16-16.33,5.49-24.23,7.34-4.85,16.18-3.67,24.67-3.7,37.33-.14,74.66-.06,111.98-.07,18.66,0,37.33.1,55.99-.07,6.57-.06,13.14-.81,18.65-1.17,1.76-2.39,3.12-3.39,3.24-4.52,2.13-20.36,3.34-20.59,23.46-20.4,34.65.33,69.29.6,103.94.79,1.88.01,3.77-.86,6.8-1.6,5.14-19.24-.27-39.37,3.39-60.35,4.63-2.13,10.04-4.38,15.24-7.05,13.01-6.67,25.93-13.51,38.87-20.3,6.59-3.46,9.49-8.98,9.17-16.36-.72-16.48,1.88-33.13-1.85-49.81-2.97-.95-5.45-2.42-7.93-2.44-28.65-.18-57.31-.19-85.96-.06-2.5.01-5,1.33-8.05,2.19-4.66,12.27.35,25.42-4.3,38.34-18.4,4.85-37.83-.18-57.72,3.12-1.19,5.72-2.36,11.35-3.51,16.9-2.06,1.26-3.66,3.06-5.37,3.16-11.29.64-22.6.8-33.9,1.37-7.1.36-14.61-1.1-21.41,3.59,1.44,9.78,7.54,14.02,16.07,15.26,4.58.66,9.31.4,13.97.41,16.66.04,33.33-.06,49.99.06,6.58.05,13.15.53,21.04.88.44,4.35.8,7.9,1.23,12.17-4.8.75-8.66,1.84-12.52,1.86-23.33.17-46.66-.21-69.99.25-10.18.2-17.79-3.28-24.51-10.77-5.69-6.34-12.45-11.72-18.77-17.56-14.82,4.2-22.52,13.02-24.08,27.04-.95,8.55-1.32,17.16-2.02,26.58-4.07.88-7.8,2.27-11.59,2.41-20.63.74-41.28,1.11-61.92,1.75-7.85.24-15.97-1-24.16,3.49-.79,7.6-1.6,15.4-2.52,24.28-2.53.42-5.05,1.46-7.34,1.08-3.77-.63-5.15-3.78-5.28-7.38-.25-7.32-.58-14.65-.56-21.97,0-3.19.78-6.38,1.34-10.57,5.13-.57,9.61-1.46,14.1-1.49,20.66-.17,41.33-.02,61.99-.15,7.22-.05,14.76.8,21.75-5.35.36-3.76,1.43-8.35,1.09-12.85-.78-10.33,3.66-17.97,11.03-24.46,1.5-1.32,2.88-2.79,4.46-4.01,18.39-14.12,17.07-32.7,12.87-51.91-13.9-3.6-52.35-3.93-73.03-.68-4.75,11.71-2.05,24.33-.86,36.53.32,3.31,6.22,6.01,9.42,9.13,2.25,2.19,1.02,7.71-2.03,8.23-5.85,1.01-11.8,1.92-17.71,1.98-61.98.64-123.95,1.34-185.93,1.53-27.31.08-54.62-.96-81.93-1.53-2.66-.06-5.34-.19-7.97-.58-4.12-.61-7.69-2.03-8.75-6.77-1.45-6.47-6.43-8.1-12.1-8.1-33.32.02-66.63.14-99.95.35-1.88.01-3.76,1.06-5.45,1.56-5.02,13.73-5.12,38.52-.13,59.46,6.34,3.52,13.79,1.95,20.87,1.96,79.99.12,159.98.03,239.97.16,7.16.01,14.65-1.62,22.11,2.58v9.8c-19.16,2.9-37.79,1.13-56.32,1.44-18.66.32-37.33.07-55.99.07h-113.98c-18.61,0-37.23,0-55.17,0-6.58,8.03-5.09,16.3-5.17,24.03-.27,27.98-.12,55.97-.17,83.96,0,5.33-.02,10.66-.28,15.98-.17,3.47-1.3,6.95-5.56,6.61-4.13-.33-4.84-4.03-5.04-7.4-.28-4.65-.33-9.32-.34-13.98-.12-27.95.53-55.92-.6-83.83-.57-14-1.54-27.86.36-41.78.18-1.3,0-2.66-.1-3.99-.61-7.84-3.38-11.05-10.94-11.42-7.98-.39-15.99-.02-23.99-.22-7.19-.18-14.37-.67-22.52-1.07-1.05-11.41-1.99-21.72-2.97-32.43-11.54-3.55-21.84-3.03-32.35-.84-6.42,8.5-1.6,18.67-5.08,27.37-4.09,4.45-9.69,3.51-14.89,3.55-20.66.16-41.33-.05-61.99.15-19.33.19-20.49,1.38-20.83,20.29-.22,12.66.07,25.32-.16,37.98-.1,5.18-.97,10.35-1.67,17.3-4.13-1.67-8.05-2.03-9.18-3.99-1.89-3.29-2.71-7.59-2.75-11.48-.23-21.32-.2-42.64.05-63.96.04-3.13,1.73-6.24,3.01-10.56,16.13-.19,32.04-.44,47.94-.54,15.16-.09,30.4,1.44,46.34-1.19,1.04-9.52,1.96-17.93,2.85-26.07,12.02-4.98,33.06-5.82,59.29-2.54,8.26,8.55,1.92,20.78,7.07,30.07,14.29,4.55,21.28,4.73,39.25.97,8.61-12.94-.63-28.91,6.04-41.88.92-.79,1.38-1.3,1.94-1.63.55-.32,1.21-.65,1.82-.66,42.64-.26,85.28-.51,127.93-.68,3.26-.01,6.53.46,9.19.66,1.39,1.63,2.8,2.52,2.97,3.6,2.3,14.83,5.41,15,18.46,15.05,40.66.16,81.32.08,121.98.09,32.66,0,65.32.01,97.99-.01,5.33,0,10.68.11,15.99-.29,7.31-.56,10.86-3.77,11.62-11.16.69-6.6.46-13.3.62-19.96.2-8.54.38-17.08.6-27.34Zm514.07-229.71c3.85,1.55,7.27,3.89,10.87,4.22,18.69,1.7,36.71,6.37,54.37,12.26,9.91,3.3,18.87,3.61,28.94-.04,18.14-6.58,36.94-10.77,56.46-11.5,25.63-.95,50.48,2.8,74.45,11.6,8.6,3.16,16.47,3.21,25.17.79,14.72-4.09,29.68-7.34,44.58-10.74,5.17-1.18,10.53-1.52,15.71-2.68,5.35-1.2,7.95-5.31,6.63-10.36-1.35-5.14-3.26-10.12-4.78-15.22-4.95-16.58-10.6-32.99-14.62-49.79-15.65-65.52-24.03-132.27-31.46-199.07-4.49-40.34-6.38-80.97-9.38-121.47-1.58-21.25-3.08-42.5-4.54-63.76-3.74-54.47-7.51-108.93-11.13-163.41-1.68-25.25-2.98-50.52-4.53-75.78-2.49-40.54-5.04-81.07-7.59-121.6-.33-5.32-1.07-10.62-1.22-15.94-1.06-39.26-2.34-78.53-2.87-117.8-.24-17.78,6.18-33.9,15.99-48.63,2.58-3.88,5.84-7.45,7.69-11.64,2.1-4.76,4.05-10.04,4.15-15.13.29-15.43-4.01-18.15-17.21-18.12-2.67,0-5.33-.06-8-.06-45.99,0-91.98-.01-137.97.01-4.66,0-9.35-.04-13.98.38-7.45.67-10.68,4.26-10.82,11.6-.2,10.4,3.47,19.43,9.46,27.82,15.32,21.44,20.84,45.99,20.62,71.73-.22,24.61-1.98,49.21-2.98,73.82-.65,15.97-.82,31.97-1.8,47.92-2.1,33.89-4.7,67.75-6.89,101.64-1.8,27.91-3.19,55.84-4.94,83.75-2.3,36.54-4.82,73.07-7.15,109.61-1.7,26.58-3.11,53.18-4.89,79.75-2.14,31.89-4.47,63.76-6.82,95.63-1.57,21.25-2.35,42.61-5.17,63.7-8.84,65.98-17.22,132.06-31.32,197.2-5.75,26.56-10.98,53.35-23,79.33Zm227.2,36.03c-41.32-26.12-112.74-19.01-136.75,2.2,1.01,5.39,2.22,11.19,3.16,17.04,3.15,19.68,7.52,39.27,9.04,59.08,4.54,59.26,1.84,118.28-9.04,176.82-4.13,22.21-8.47,44.39-12.35,66.64-1.46,8.4-3.22,17.05,1.01,25.5,7.77,2.72,15.61,2.35,23.63,2.33,39.91-.08,79.82.43,119.73.51,3.63,0,7.26-1.59,11.28-2.54.91-13.6,1.24-25.89-1.91-38.52-4.16-16.72-6.85-33.84-9.64-50.87-4.63-28.21-7.59-56.58-9.55-85.15-2.78-40.67-1.27-81.04,4.12-121.34,2.28-17.07,4.79-34.11,7.27-51.72Zm144.27-4.76c-4.86-3.13-7.27-5.68-10.11-6.32-10.34-2.34-20.76-4.67-31.27-5.85-25.82-2.9-50.06,4.37-74.24,12.23-10.15,3.3-14.59,9.47-16.66,19.83-7.07,35.41-9.15,71.28-10.4,107.15-.74,21.22,1.08,42.56,2.4,63.81,2.52,40.59,8.68,80.64,18.62,120.13,2.42,9.61,3.22,19.63,4.71,29.48.59,3.88,1.04,7.78,1.61,12.09,3.65.85,6.81,2.21,9.98,2.22,55.26.19,110.52.23,165.78.26,1.97,0,4.09-.07,5.86-.78,1.74-.69,4.32-2.1,4.49-3.46.99-7.84,1.98-15.77,1.77-23.63-.16-6.08-6.13-8.18-10.53-11.04-11.71-7.61-24.73-13.8-34.89-23.11-22.63-20.75-42.67-44.09-57.34-71.33-22.25-41.31-33.99-84.98-27.98-132.39,4.42-34.83,18.42-63.67,49.68-82.23,2.2-1.31,4-3.28,8.5-7.05Zm-423.03-1.2c3.93,3.38,7.04,6.56,10.63,9.04,12.21,8.44,22.12,18.78,30.08,31.46,23.23,37.06,24.53,77.09,13.97,117.45-13.55,51.78-38.32,97.75-79.69,133.28-7.53,6.46-15.58,12.38-23.82,17.92-7.64,5.14-15.85,9.44-23.65,14.02-1.32,10.92-1.75,20.58,1.63,31.13,7.18.33,13.72.87,20.25.89,30.63.09,61.26-.17,91.88.12,20.6.19,41.19,1.27,61.79,1.53,4.32.06,8.66-1.7,12.66-2.55,2.72-17.7,4.81-34.16,7.84-50.45,7.41-39.91,14.56-79.92,16.75-120.45,2.58-47.88,1.92-95.8-6.43-143.27-1.27-7.19-2.74-14.35-3.73-21.58-1.23-9.04-6.72-14.15-14.83-17.02-26.58-9.4-53.71-15.71-82.12-12.23-11.05,1.35-22.17,3.55-33.21,10.72Zm147.84-1305.66c-1.89,13.7-.99,25.63-.11,37.52.18,2.43,1.26,5.94,3.04,6.93,9.61,5.33,8.6,14.14,8.29,22.8-.24,6.65-.51,13.31-1.04,19.94-3.2,40.45-6.5,80.88-9.63,121.33-.19,2.5.76,5.09,1.26,8.1,4.21.99,8.01,2.63,11.83,2.65,33.3.18,66.6.16,99.9-.11,3.65-.03,7.28-2.02,11.81-3.37,0-4.75.22-8.68-.03-12.57-2.04-31.87-4.28-63.72-6.23-95.59-.94-15.27-1.65-30.57-1.92-45.87-.08-4.44.29-10.18,2.92-13.11,6.34-7.08,8.36-14.95,8.02-23.85-.32-8.43,1.58-17.22-3.39-25.89-5.36-.74-10.55-2.08-15.73-2.06-32.62.11-65.23.48-97.84.93-3.22.04-6.43,1.24-11.13,2.21Zm-234.19,1620.18c12.47-7.63,22.96-13.4,32.77-20.17,22.7-15.66,40.8-35.61,56.89-58.15,23.07-32.31,36.08-67.97,41.07-106.82,2.3-17.91,1.54-35.94-3.67-53.46-6.01-20.22-15.74-38.28-33.07-50.99-14.56-10.68-30.57-18.94-48.13-23.62-14.76-3.94-29.68-7.31-44.53-10.91-1.29-.31-2.61-.59-3.92-.7-4.35-.37-7.86.98-9.79,5.18-1.63,3.55-.29,7.99,3.63,10.24,4.02,2.3,8.4,3.95,12.55,6.03,9.51,4.76,19.45,8.85,28.36,14.56,28.08,17.98,44.31,43.41,46.1,77.23,1.29,24.41-3.73,47.5-13.73,69.81-9.94,22.18-24.64,40.72-40.11,59.22-25.25,30.2-55.63,53.06-90.76,70.16-2.85,1.39-5.21,3.8-7.83,5.76-.46,15.7-2.39,30.75,1.79,47.79,23.47-2.97,46.33,5.54,70.53-1.31.65-14,1.26-27.12,1.84-39.84Zm668.19-8.64c-6.48-3.36-11.67-6.29-17.04-8.81-25.07-11.76-46.56-28.95-66.02-47.92-18.04-17.59-33-38.3-46.04-60.15-11.74-19.69-20.04-40.48-22.61-63.42-3.61-32.17,3.42-60.66,27.16-84.13,13.49-13.34,28.45-23.9,46.46-30.17,4.91-1.71,9.86-4.14,13.81-7.41,1.91-1.59,2.85-6.39,1.89-8.82-.91-2.31-5.18-5.18-7.43-4.77-28.15,5.07-56.14,10.73-81.68,24.66-34.71,18.92-51.39,48.73-54.39,87.38-1.41,18.2,1.54,35.79,5.69,53.33,7.16,30.28,21.56,57.02,39.02,82.51,21.93,32,49.17,57.46,85.09,73.02,1.73.75,3.04,2.47,5.33,4.41v38.5c5.4,1.03,9.77,2.51,14.17,2.57,15.26.21,30.52.05,45.78-.29,3.12-.07,6.22-1.48,9.4-2.29.55-3.32,1.33-5.91,1.35-8.51.13-12.63.06-25.26.06-39.67Zm-377.88-1705.68c4.49.2,7.94-.45,10.53.74,1.89.87,3.48,4.08,3.76,6.42.63,5.25.41,10.61.44,15.93.08,14.63-.14,29.26.24,43.88.23,8.53,3.9,11.45,12.74,11.55.66,0,1.33.03,1.99,0,6.76-.38,9.89-3.07,10.73-9.36.26-1.97.34-3.98.34-5.97.02-44.55-.02-89.1.08-133.64.01-6.87-.9-13.29-5.8-18.49-4.96-5.26-5.81-11.65-5.69-18.49.09-5.31-.28-10.63-.37-15.95-.22-13.15-5.59-24.51-12.69-35.11-5.09-7.6-12.36-8.01-17.85-.22-4.87,6.91-9.44,14.71-11.48,22.79-2.57,10.16-2.6,20.99-3.38,31.55-.39,5.25.65,10.68-3.97,14.79-6.15,5.46-6.54,12.64-5.96,20.17.35,4.63.46,9.3.41,13.95-.43,35.12-1.1,70.24-1.26,105.37-.04,8.52,1.55,17.05,2.42,25.82,3.22,1.08,5.62,2.45,8.1,2.62,12.55.88,16.1-1.8,16.42-13.86.41-15.27-.13-30.57-.16-45.86-.01-5.84.25-11.69.4-18.62Z"/>
  <path class="cls-1" d="m6901.09,1856.01c.64,11.53,1.15,20.67,1.61,28.91,4.6,5.83,10.17,4.96,15.39,4.83,6.62-.18,13.24-1.19,19.83-.98,3.74.12,7.43,1.93,11.63,3.12v111.52c-3.96.44-7.44.82-12.16,1.35-2.56-34.13.59-67.3-1.93-100.74-14.92-5.3-29.9-.02-44.26-3.44-6.69-8.31-.82-18.44-4.83-28.58-3.38-.68-7.69-2.27-12.03-2.32-23.32-.26-46.64-.15-69.96-.16-6.58,0-13.17,0-18.59,0-8.39-7.72-1.73-16.7-5.86-25.05-2.14-.65-5.11-2.19-8.17-2.38-30.94-1.87-56.74-.75-69.75,2.89-.72,7.47-1.47,15.15-2.3,23.77-15.65.53-30.05,1.02-44.79,1.52-1.04,3.43-2.47,5.9-2.43,8.35.53,41.85,1.25,83.69,1.9,124.39,5.11,5.92,10.76,4.68,15.87,4.68,25.98,0,51.97-.33,77.95-.37,8.59-.01,17.17.5,25.27.76,7.74,13.62,1.71,27.62,5.94,41.46,3.11.72,6.81,2.3,10.51,2.31,63.97.08,127.94,0,191.9-.15,5.21-.01,10.41-.81,15.85-1.26,5.29-10,2.72-20.13,3.22-29.85.51-9.87-.52-19.83.99-30.44,17.09-4.1,33.68-1.5,50.05-1.9,15.87-.39,31.8-.64,47.47.4,6.48,10.78.92,22.2,5.81,33.57,10.63,1.89,22.15,3.93,34.16,6.07.82,5.22,2.1,9.74,2.14,14.27.19,25.31.14,50.63.02,75.94-.02,3.28-.27,6.82-1.57,9.73-.87,1.97-3.73,4.15-5.75,4.2-1.88.05-5.16-2.35-5.5-4.11-.99-5.18-1.04-10.57-1.08-15.88-.11-16.65-.01-33.31-.08-49.96-.02-4.66-.06-9.35-.61-13.96-.77-6.38-3.78-9.16-10.54-9.78-7.86-.71-15.77-1-24.93-1.56-1.18-11.36-2.26-21.77-3.35-32.25-11.06-5.93-22.59-2.9-33.67-3.38-11.25-.49-22.53-.11-34.85-.11-.76,5.62-1.86,10.02-1.88,14.43-.15,30.64-.05,61.29-.08,91.93,0,5.32.24,10.72-.54,15.95-.45,2.99-2.06,6.78-4.39,8.24-2.26,1.41-6.11.31-9.88.31-4.37-20.29.3-40.4-3.04-60.33-6.47-5.09-13.87-4.14-21.05-4.14-43.98,0-87.96.03-131.94.04-19.32,0-38.65.13-57.97-.08-7.19-.08-14.37-.98-22.36-1.57-1.08-5.59-2.29-9.95-2.67-14.39-.51-5.96-.07-12-.59-17.96-.67-7.8-3.51-10.54-11.33-11.16-5.3-.42-10.65-.31-15.98-.32-31.32-.02-62.64,0-93.95-.03-5.33,0-10.67-.09-15.97-.49-4.83-.37-7.84-3.4-7.7-7.43.13-3.92,2.62-5.77,6.27-6.36,3.25-.53,6.51-1.05,9.11-1.47,4.96-4.91,3.77-10.45,3.79-15.65.11-38.63.08-77.26.28-115.89.03-5.85,1.05-11.7,1.59-17.32,14.84-6.84,30.39-.02,44.69-6.51.75-4.53,1.29-9.07,2.3-13.51,1.42-6.27,4.44-8.96,11.07-9.32,7.31-.39,14.66-.07,21.98-.27,6.51-.17,13.02-.63,20.62-1.02.62-6.18,1.54-11.29,1.57-16.4.15-27.31.07-54.63.1-81.94,0-9.99,1.45-19.34,5.2-29.06,4.19-10.87,4.45-23.29,6.08-35.08.72-5.24-.01-10.73,1.14-15.83.56-2.5,3.92-4.36,5.84-6.34,6.46,4.16,6.65,9.72,6.73,14.95.27,17.35,1.13,34.35,9.42,50.4,2.52,4.88,1.55,11.74,1.58,17.7.14,26.65.06,53.29.06,79.94,0,6.6,0,13.2,0,20.09,5.59,2.83,10.19,5.16,15.92,8.07.72,5.03,1.54,10.79,2.31,16.22,5.29,5.02,11.47,4.36,17.33,4.4,19.32.14,38.65-.08,57.97.17,9.24.12,18.48.95,29.87,1.58Z"/>
  <path class="cls-1" d="m7435.96,1942.09c-2.4,15.95-2.33,29.56-.35,44.35,6.94.51,12.74,1.28,18.56,1.3,36.66.11,73.32.02,109.98.1,6.54.01,13.09.49,20.72.8.71,5.38,1.75,9.8,1.81,14.23.21,17.32-.01,34.65.18,51.97.06,5.84.88,11.68,1.41,18.14,22.97,6.34,45.88-.32,67.49,4.28,2.75,11.15,4.23,40.23,2.15,50.05-.42,1.96-3.24,4.67-5.04,4.75-2.16.09-5.43-1.78-6.39-3.72-1.39-2.79-1.36-6.38-1.52-9.65-.32-6.65-.3-13.31-.58-19.97-.05-1.26-.81-2.49-1.75-5.23-3.45-.86-7.71-2.68-12.04-2.86-11.31-.47-22.66-.15-33.99-.31-6.57-.09-13.13-.48-19.47-.73-6.15-14.77-2.98-28.91-3.49-42.71-.52-13.93-.11-27.9-.11-41.07-4.73-5.71-10.42-4.28-15.54-4.28-36.66-.03-73.32.16-109.97.2-7.93,0-15.86-.32-24.25-.51-6.34-19.01-.13-37.94-4.09-56.03-4.01-4.92-9.64-3.66-14.79-3.67-35.33-.1-70.65.17-105.98-.17-13.29-.13-26.6-1.3-39.85-2.49-4.78-.43-6.8-3.75-4.45-9.67,5.8-1.08,12.18-2.26,18.97-3.52,5.61-8.38,3.02-17.96,3.18-26.98.16-8.52,1.77-17.23-.99-25.37-5.47-4.75-11.71-3.39-17.53-3.42-30.66-.16-61.32-.08-91.98-.09-6.61,0-13.22,0-20.21,0-9.22-17.77-1.13-36.34-6.17-54.67-12.44-3.27-25.74-1.2-38.83-1.54-13.99-.37-27.99-.23-41.99-.04-13.2.19-26.47-.6-38.82.66-5.45,7.46-5.19,13.46.16,20.05,7.4.65,15.29,1.35,23.79,2.1,7.63,15.79-1.01,33.03,4.48,48.99,4.25,5.31,10.51,4.76,16.38,4.82,17.33.18,34.66.04,51.99.17,6.6.05,13.19.52,20.65.83,1.29,3.45,3.3,6.38,3.36,9.36.36,15.98.29,31.96.22,47.95,0,1.92-.36,4.36-1.54,5.64-1.59,1.72-4.05,3.16-6.32,3.5-1.28.19-3.92-1.87-4.23-3.29-.96-4.5-1.37-9.17-1.52-13.78-.27-7.99.09-16-.33-23.98-.59-11.19-3.07-13.72-14.83-13.97-17.99-.38-35.99-.11-53.99-.22-7.28-.05-14.56-.38-22.93-.62-.96-5.15-2.33-9.5-2.47-13.88-.37-11.85.14-23.73-.55-36.43-5.65-.75-10.1-1.78-14.56-1.84-15.99-.22-31.99.04-47.99-.2-5.95-.09-11.93-.8-17.82-1.73-3.21-.51-6.73-1.77-6.64-6.05.1-4.23,3.29-5.43,6.81-5.55,6.66-.22,13.33-.13,19.99-.28,8.56-.2,17.25.52,26.68-3.11,1.14-10.35,2.28-20.64,3.4-30.76,2.83-.98,4.64-2.16,6.46-2.17,45.32-.16,90.64-.23,135.96-.2,2.54,0,5.07.9,8.37,1.52,5.65,16.76-.91,34.71,4.91,51.21,9.37,4.84,18.84,2.85,27.93,2.85,27.32-.02,54.64-.61,81.96-.74,6.53-.03,13.35-1.17,20.53,3.4.53,3.68,1.6,8.14,1.72,12.63.41,14.65.27,29.32.76,43.96.32,9.42,2.92,11.95,11.77,12.66,3.98.32,7.99.22,11.99.22,47.32.01,94.65.05,141.97-.03,6.55-.01,13.09-.6,19.99-.94,7.6-18.87.48-37.97,5.24-56.89,15.72-6.14,32.46-2.49,48.76-2.87,15.89-.36,31.95-1.74,47.31,1.43,7.44,7.38,1.41,17.56,7.72,26.45,3.82.45,8.92,1.55,14.03,1.58,19.33.13,38.66-.14,57.99-.12,3.97,0,8.15-.05,11.84,1.15,1.88.61,3.92,3.88,3.99,6.02.07,1.98-2.01,4.54-3.84,5.91-1.37,1.02-3.85.72-5.84.72-28.66,0-57.32-.02-85.98-.12-1.93,0-3.86-.68-7.18-1.31-1.46-7.87-2.99-16.09-4.44-23.89-14.85-3.43-52.09-3.49-71.18-.07-2.65,11.21-1.71,23.06-.91,34.84.3,4.44,3.56,7.29,7.98,7.54,8.64.48,17.31.35,25.97.66,4.63.17,9.4.17,13.79,1.38,1.73.48,3.68,4.05,3.61,6.15-.08,2.05-2.3,5.36-4.11,5.76-4.48,1-9.25.8-13.91.82-23.33.06-46.66-.01-69.99.05-6.59.02-13.18.34-21.63.58Z"/>
  <path class="cls-1" d="m5259.21,2080.55c-2.97-9.97-2.31-11.48,5.47-11.94,3.32-.2,6.66-.13,9.99-.13,199.94-.11,399.87-.25,599.81-.32,53.98-.02,107.97.14,161.95.38,7.2.03,14.65-1.51,22.27,2.18v9.9c-3.72.57-6.92,1.41-10.15,1.52-75.48,2.58-767.5,1.13-789.35-1.59Z"/>
  <path class="cls-1" d="m1182.79,1807.67v-10.49c5.82-.48,11-1.28,16.19-1.29,121.94-.07,243.88-.07,365.82-.02,4.63,0,9.41,0,13.82,1.16,1.74.45,3.68,4.07,3.64,6.22-.03,2.07-2.23,5.58-3.93,5.88-5.85,1.04-11.89,1.23-17.86,1.24-41.98.09-83.96.05-125.94.05-75.96,0-151.93.05-227.89-.08-7.84-.01-15.99,1.55-23.85-2.67Z"/>
  <path class="cls-1" d="m2018.61,1807.72v-8.99c1.64-.98,2.76-2.22,3.88-2.22,130.49-.09,260.97-.08,391.26-.08,4.5,10.58,3.48,13.19-5.3,13.75-5.31.34-10.65.24-15.98.24-116.57.01-233.13.04-349.7-.06-7.85,0-15.98,1.44-24.17-2.63Z"/>
  <path class="cls-1" d="m7528.54,2064.46c-7.1,4.98-15.33,3.33-23.14,3.35-57.2.15-114.4.08-171.59.08-35.91,0-71.83.03-107.74-.03-5.98-.01-11.96-.27-17.92-.77-1.86-.15-3.77-1.24-5.36-2.34-.94-.65-1.79-2.15-1.81-3.28-.04-2.5.46-5.01.85-8.4,5.77-.46,10.95-1.22,16.13-1.23,97.77-.07,195.54-.06,293.3-.05,3.32,0,6.66-.06,9.97.19,7.31.56,7.89,1.63,7.31,12.48Z"/>
  <path class="cls-1" d="m1838.08,2124.34c-4.42,0-8.23,1.1-10.47-.3-2.35-1.46-3.88-5.18-4.54-8.18-.84-3.82-.56-7.91-.56-11.88-.03-39.12-.1-78.25.08-117.37.03-5.88.97-11.82,2.12-17.61.73-3.67,3.87-5.12,7.6-4.69,3.72.43,6,2.58,6.46,6.3.32,2.62.39,5.29.39,7.93.01,45.09,0,90.18-.05,135.27,0,2.59-.49,5.18-1.03,10.53Z"/>
  <path class="cls-1" d="m1194.06,2124.48c-2.56,0-5.48.81-7.42-.23-1.97-1.05-3.76-3.76-4.2-6.02-.76-3.87-.49-7.95-.49-11.94-.02-41.3-.04-82.6.02-123.9,0-4.63-.04-9.4,1.08-13.83.46-1.82,3.82-3.81,6.03-4.04,2.17-.22,5.51,1.1,6.63,2.84,1.69,2.64,2.51,6.2,2.63,9.41.33,9.31.77,18.7,0,27.96-2.45,29.27-2.53,58.47.07,87.74.94,10.58.49,21.23-4.33,32Z"/>
  <path class="cls-1" d="m1942.32,2125.08c-3.58-.48-6.51-.11-8.44-1.34-1.95-1.24-3.25-3.91-4.15-6.22-.69-1.76-.4-3.94-.4-5.94-.02-44.63-.02-89.27-.01-133.9,0-2,.03-4.01.25-5.99.62-5.68,1.8-6.34,12.13-6.79,5.44,9.5,5.4,20.12,4.48,30.67-2.49,28.6-2.31,57.14,0,85.76,1.12,13.88,1.3,27.97-3.84,43.75Z"/>
  <path class="cls-1" d="m2051.24,2123.45c-11.52.76-15.53-1.27-16.73-7.65-.36-1.93-.79-4.08-.3-5.9,6.8-25.46,2.83-51.43,3.5-77.16.26-9.82-1.95-19.69-2.5-29.56-.55-9.88-1.01-19.83-.42-29.69.43-7.28,3.91-8.69,15.3-7.75,3.34,17.43,1.19,35.26,1.56,52.96.36,17.23.14,34.47.06,51.71-.08,17.74.43,35.52-.47,53.04Z"/>
  <path class="cls-1" d="m2371.12,2044.84c0,21.26.02,42.53-.02,63.79,0,3.32-.04,6.65-.4,9.94-.4,3.7-2.5,6.27-6.42,6.02-3.76-.24-5.8-2.88-6.19-6.52-.43-3.96-.78-7.94-.79-11.92-.08-23.26-.07-46.51-.07-69.77,0-17.94-.06-35.88.07-53.82.04-4.63.18-9.39,1.37-13.8.49-1.8,3.92-3.95,5.93-3.88,2.01.07,5.11,2.39,5.65,4.31,1.06,3.73.83,7.88.84,11.85.06,21.26.03,42.53.03,63.79Z"/>
  <path class="cls-1" d="m1410.7,2048.56c0,21.99,0,43.98,0,65.97,0,4.04-.03,8.29-4.77,9.85-3.59,1.18-7.91-3.63-8.38-8.97-.12-1.33-.15-2.66-.15-3.99,0-45.31-.02-90.62.06-135.94,0-2.6.3-5.41,1.34-7.72.65-1.45,2.91-2.9,4.52-2.99,1.63-.1,4.56,1.2,4.83,2.37,1.32,5.74,2.62,11.63,2.7,17.48.3,21.32.12,42.64.12,63.96-.09,0-.18,0-.27,0Z"/>
  <path class="cls-1" d="m1623.22,2046.59c0,19.93.03,39.86-.03,59.78-.01,4.64.17,9.4-.8,13.86-.39,1.8-3.69,4.14-5.63,4.1-2.05-.04-5.06-2.21-5.85-4.18-1.17-2.94-.97-6.51-.99-9.81-.23-42.51-.44-85.01-.54-127.52-.01-4.62.12-9.39,1.27-13.81.48-1.86,3.78-4.11,5.81-4.12,2.02,0,5.28,2.21,5.83,4.09,1.09,3.71.87,7.87.88,11.84.06,21.92.03,43.84.03,65.76Z"/>
  <path class="cls-1" d="m1719.12,2125.36c-1-6.08-2.35-10.54-2.37-15.01-.17-44.51-.16-89.02-.07-133.53,0-3.22.7-6.6,1.9-9.58.53-1.32,3.1-2.52,4.74-2.51,1.66,0,4.46,1.29,4.76,2.51,1.24,5.07,2.33,10.31,2.38,15.51.23,24.58.11,49.16.11,73.74,0,17.27.14,34.55-.12,51.82-.07,4.53-.7,9.36-2.48,13.43-.81,1.85-5.06,2.19-8.85,3.63Z"/>
  <path class="cls-1" d="m2262.25,2125.51c-4.14-1.6-8.37-1.95-9.18-3.81-1.79-4.06-2.5-8.88-2.51-13.4-.17-42.45-.13-84.9-.05-127.35,0-3.94.21-8.06,1.42-11.74.64-1.95,3.6-4.25,5.58-4.31,1.83-.05,4.96,2.38,5.39,4.22,1.03,4.46,1.08,9.2,1.08,13.83-.04,41.78-.13,83.57-.33,125.35-.03,5.14-.8,10.28-1.38,17.21Z"/>
  <path class="cls-1" d="m2146.59,1966.5c5.04-3.12,8.6-2.3,10.33,2.33,1.13,3.01,1.48,6.46,1.49,9.72.08,44.41.08,88.82-.05,133.23,0,3.22-.75,6.59-1.91,9.6-.55,1.44-3.12,3.3-4.35,3.03-2.2-.48-5.13-2.02-5.85-3.86-1.15-2.94-.95-6.49-.95-9.78-.04-44.41-.06-88.82.04-133.23,0-3.87.86-7.74,1.25-11.02Z"/>
  <path class="cls-1" d="m1303.82,2044.87c0,20.56.02,41.11-.01,61.67,0,3.97-.1,7.96-.34,11.92-.22,3.68-1.84,6.35-6,6.21-4.09-.14-5.69-3.14-6.11-6.54-.57-4.59-.76-9.24-.76-13.87-.05-39.79-.08-79.58.03-119.36.01-5.26.35-10.62,1.51-15.72.42-1.84,3.66-4.18,5.63-4.2,1.82-.02,4.88,2.52,5.26,4.37.93,4.48.76,9.21.78,13.85.06,20.56.03,41.11.03,61.67Z"/>
  <path class="cls-1" d="m1515.05,2122.96c-4.55,2.35-8.15,2.53-9.6-1.21-1.64-4.22-2.73-8.94-2.75-13.45-.2-43.17-.15-86.34-.07-129.5,0-3.27.21-6.81,1.47-9.73.85-1.96,3.71-4.17,5.71-4.21,1.92-.04,5.03,2.24,5.59,4.1,1.12,3.72,1.11,7.85,1.12,11.81.06,42.5.09,85.01-.03,127.51-.01,5.15-.99,10.29-1.44,14.67Z"/>
  <path class="cls-1" d="m1091.25,2077.63c0,11.95.06,23.9-.05,35.84-.02,2.6.02,5.64-1.26,7.65-1.19,1.87-4.06,3.54-6.27,3.66-2.21.12-4.91-1.37-6.68-2.95-1.27-1.14-1.9-3.6-1.91-5.47-.15-26.54-.18-53.08-.12-79.63,0-1.91.7-3.93,1.49-5.71,1.59-3.59,4.93-4.59,8.24-3.58,2.23.67,4.98,2.53,5.72,4.52,1.11,2.97.82,6.52.84,9.83.07,11.95.03,23.9.03,35.84h-.02Z"/>
  <path class="cls-1" d="m450.51,2076.52c0,12.58.27,25.18-.1,37.75-.23,7.73-3.64,11.26-8.88,10.49-6.08-.9-6.33-5.94-6.88-10.44-.48-3.93-.61-7.93-.58-11.9.16-20.53.36-41.06.71-61.59.06-3.25.36-6.79,1.75-9.61.93-1.89,3.98-3.74,6.08-3.75,2.11,0,5.37,1.84,6.1,3.68,1.42,3.56,1.83,7.68,1.91,11.59.23,11.26.08,22.52.08,33.78-.07,0-.13,0-.2,0Z"/>
  <path class="cls-1" d="m2570.11,2075.72c0-13.94-.17-27.89.09-41.82.1-4.98,5.47-8.31,9.96-6.31,2.13.95,4.57,3.15,5.14,5.25,1.19,4.42,1.65,9.15,1.69,13.76.16,21.25.1,42.51.06,63.76,0,2.64-.05,5.35-.6,7.91-.96,4.53-4.39,6.37-8.68,6.66-4.17.28-7.4-2.6-7.64-7.37-.38-7.29-.3-14.6-.36-21.9-.05-6.64-.01-13.28-.01-19.92.12,0,.24,0,.36,0Z"/>
  <path class="cls-1" d="m330.84,2027.78c4.06.25,7.18.45,10.26.64.83,2.6,1.93,4.46,1.95,6.32.16,26.54.28,53.08.03,79.62-.03,2.86-1.9,6.23-3.95,8.37-1.5,1.57-4.7,1.52-6.79,2.09-5.05-5.4-5.41-11.42-5.52-17.37-.48-26.4-.29-52.78,4.03-79.66Z"/>
  <path class="cls-1" d="m651.21,2029.39c4.35-2.55,8.12-2.43,9.95,2.38,1.15,3.01,1.43,6.5,1.44,9.77.12,23.31.07,46.62.06,69.94,0,1.33-.01,2.67-.18,3.99-.51,4-1.11,8-5.94,9.18-3.77.92-6.91-3.06-6.93-9.85-.1-26.64,0-53.28.16-79.92.01-1.9.98-3.8,1.44-5.49Z"/>
  <path class="cls-1" d="m3119.01,2075.59c0,10.65.04,21.3-.02,31.95-.02,3.32-.17,6.66-.52,9.97-.37,3.47-1.72,6.42-5.64,7.12-3.49.63-6.9-2.84-6.92-7.94-.1-27.3,0-54.61.11-81.91,0-1.26.32-2.87,1.13-3.69,1.28-1.31,3.29-3.11,4.66-2.86,2.25.4,5.79,2.01,6.05,3.57.99,5.84,1.03,11.87,1.13,17.83.15,8.65.04,17.31.04,25.96,0,0-.01,0-.02,0Z"/>
  <path class="cls-1" d="m554.75,2122.96c-5.37,2.9-9.18,2.2-10.61-2.6-1.31-4.39-1.85-9.16-1.85-13.77-.02-21.98.22-43.96.46-65.93.03-2.64.03-5.57,1.16-7.81,1.02-2.03,3.38-4.3,5.48-4.69,3.96-.74,5.98,2.17,6.11,5.94.26,7.98.38,15.98.4,23.97.05,16.65.11,33.31-.05,49.96-.05,5.2-.75,10.39-1.1,14.94Z"/>
  <path class="cls-1" d="m3318.33,2076.39c0-11.31-.09-22.62.05-33.93.04-3.29.13-6.83,1.35-9.78.82-1.98,3.63-4.23,5.63-4.31,1.91-.08,4.39,2.15,5.75,4.01,1.04,1.42.99,3.83.98,5.8-.09,25.27-.22,50.54-.47,75.81-.03,2.59-.46,5.39-1.57,7.68-.68,1.4-2.99,2.75-4.58,2.78-1.62.02-4.24-1.27-4.7-2.59-1.29-3.68-2.23-7.65-2.33-11.53-.29-11.3-.1-22.62-.11-33.93Z"/>
  <path class="cls-1" d="m2907.03,2078.97c0,10.66.1,21.31-.06,31.97-.05,3.27-.39,6.66-1.37,9.75-.5,1.57-2.85,3.78-4.11,3.63-2.33-.28-5.19-1.57-6.51-3.4-1.39-1.93-1.67-4.97-1.68-7.53-.1-25.31-.09-50.62,0-75.93.01-3.92-.11-8.26,4.93-9.67,3.84-1.08,7.68,2.89,7.83,9.25.33,13.97.1,27.95.1,41.92h.87Z"/>
  <path class="cls-1" d="m2787.1,2029.51c9.07-1.76,11.02-1.07,11.56,4.52.38,3.93.4,7.91.39,11.86-.02,23.11.07,46.22-.24,69.32-.1,7.32-1.7,8.08-11.71,8.38-3.81-15.89-3.81-71.44,0-94.08Z"/>
  <path class="cls-1" d="m873.91,2028.77c.79,3.06,1.69,4.95,1.7,6.84.12,26.49.14,52.98.13,79.47,0,4.04-.4,8.2-5.25,9.46-3.85,1-8.01-3.24-8.34-8.88-.49-8.59-.72-17.2-.69-25.81.06-17.88.23-35.75.62-53.63.14-6.46,1.08-6.86,11.83-7.46Z"/>
  <path class="cls-1" d="m970.87,2028.79h10.76c.61,3.85,1.54,7.04,1.56,10.24.13,23.96.13,47.92.04,71.88-.01,3.27-.09,6.85-1.43,9.68-.9,1.91-4.08,3.8-6.21,3.76-2-.03-4.7-2.2-5.74-4.15-1.17-2.18-1.09-5.17-1.09-7.8-.05-24.63-.07-49.25.11-73.88.02-3.17,1.27-6.34,2-9.73Z"/>
  <path class="cls-1" d="m2679.62,2123.37c-3.53-16.26-3.39-79.38.22-94.42,1.25-.38,2.52-1.09,3.76-1.06,1.94.05,3.87.6,6.56,1.07.71,3.74,2.02,7.54,2.06,11.36.21,23.23.15,46.45.11,69.68,0,2.64-.22,5.31-.67,7.91-.89,5.11-3.2,6.09-12.04,5.46Z"/>
  <path class="cls-1" d="m2017.45,1868.12c.63-5.28,1.15-9.63,1.7-14.21,9.99-3.05,19.32-1.43,28.48-1.7,9.29-.28,18.6-.23,27.89.02,9.49.25,11.63,2.54,11.41,11.99-.06,2.46-1.24,4.9-1.84,7.07q-48.74,2.98-67.64-3.17Z"/>
  <path class="cls-1" d="m3011.56,2077.45c0,11.95.06,23.9-.04,35.85-.02,2.62-.15,5.4-1.08,7.78-.58,1.48-2.72,3.17-4.23,3.24-1.52.07-4.21-1.47-4.53-2.76-1.44-5.76-2.98-11.68-3.08-17.56-.36-21.24-.19-42.48-.11-63.72,0-2.62.08-5.56,1.24-7.76,1.06-2,3.45-4.12,5.59-4.54,3.88-.76,6.3,2.02,6.35,5.73.19,14.58.08,29.17.08,43.76h-.18Z"/>
  <path class="cls-1" d="m1470.65,1852.29v16.8c-1.37,1.06-1.84,1.72-2.42,1.84-11.28,2.35-48.75,2.55-57.38.37-5.04-1.28-7.68-4.95-7.35-10.25.33-5.21,3.35-8.61,8.91-8.67,18.55-.2,37.11-.08,58.23-.08Z"/>
  <path class="cls-1" d="m1248.57,1853.09c3.95,7,3.92,12.53,1.26,18.01-22.46,2.4-49.9,1.81-65.5-1.44-.71-1.42-2.26-3.1-2.3-4.81-.23-10.38,1.28-12.41,10.35-12.56,15.85-.27,31.7-.13,47.55-.07,2.58,0,5.17.51,8.64.87Z"/>
  <path class="cls-1" d="m2238.32,1868.59c.73-5.48,1.3-9.81,1.98-14.93,3.9-.57,7.05-1.39,10.2-1.42,15.22-.14,30.44-.23,45.66,0,9.11.14,10.89,2.39,10.66,12.43-.04,1.84-1.06,3.66-1.57,5.29-20.48,3.87-48.35,3.49-66.93-1.37Z"/>
  <path class="cls-1" d="m2194.89,1869.19c-19.62,4.57-45.77,4.75-63.07.43-4-4.58-3.52-9.54-1.17-14.56,4.79-3.81,32.3-4.55,63.23-1.79,5.29,4.98,4.76,10.36,1.01,15.93Z"/>
  <path class="cls-1" d="m2415.64,1868.33c-22.65,5.78-43.43,6.09-64.24,1.22-.49-3.22-1.56-6.93-1.46-10.6.1-3.61,2.72-5.79,6.42-6.39,8.23-1.34,47.52-.08,58.26,2.07.31,4.11.63,8.51,1.02,13.71Z"/>
  <path class="cls-1" d="m1361.06,1853.79c-.44,6.66-.74,11.16-1.02,15.4-20.22,4.97-48.79,4.55-65-.88-.42-1.64-1.24-3.49-1.28-5.36-.06-2.57.47-5.16.69-7.18,1.65-1.3,2.65-2.79,3.68-2.81,17.88-.36,35.76-.6,53.64-.71,2.52-.01,5.05.81,9.28,1.54Z"/>
  <path class="cls-1" d="m1580.97,1854.14v15.69c-16.5,2.92-47.44,2.78-65.3-.38-.46-2.49-1.78-5.59-1.42-8.47.8-6.5,2.73-8.3,8.82-8.59,7.96-.37,15.94-.25,23.91-.25,9.3,0,18.6.07,27.9.23,1.27.02,2.52.7,6.1,1.76Z"/>
  <path class="cls-1" d="m4530.42,2001.29c-3.29.44-5.88,1.08-8.47,1.09-28.6.08-57.19.08-85.79.07-2.66,0-5.32-.13-7.96-.37-2.86-.26-5.64-1.81-4.79-4.69.54-1.84,3.7-2.96,5.76-4.28.49-.31,1.3-.18,1.96-.18,30.6,0,61.19-.03,91.79.03,4.04,0,8.18.37,7.5,8.33Z"/>
  <path class="cls-1" d="m4624.97,1932.96h48.24c3.95,6.73,3,13.08,1.26,20.31-14.65,5.76-29.85,3.55-44.86,1.97-2.24-.24-5.33-4.32-5.76-6.99-.69-4.29.52-8.88,1.11-15.29Z"/>
  <path class="cls-1" d="m768.6,2076.55c0,11.94.11,23.88-.08,35.82-.05,3.24-.83,6.51-1.69,9.66-.26.95-1.97,2.21-2.9,2.13-1.79-.16-4.79-.87-5.05-1.9-1.71-6.98-3.96-14.12-3.94-21.2.07-20.52,1.13-41.05,1.83-61.57.07-1.98-.14-4.23.73-5.86,1.1-2.07,2.88-4.58,4.87-5.17,2.75-.81,4.96,1.5,5.37,4.37.55,3.92.84,7.91.88,11.87.11,10.61.04,21.23.04,31.84h-.06Z"/>
  <path class="cls-1" d="m4420.5,2028.33c5.77-2.56,7.41-3.92,9.06-3.93,31.14-.19,62.28-.25,93.41-.23,1.91,0,3.96.57,5.67,1.42.92.46,1.78,2.13,1.7,3.19-.08,1.12-1.07,2.54-2.07,3.13-1.64.97-3.62,1.96-5.44,1.93-30.45-.44-60.9-.98-91.34-1.7-2.42-.06-4.8-1.61-11-3.82Z"/>
  <path class="cls-1" d="m2475.84,2076.89c0,13.91.18,27.81-.22,41.71-.05,1.79-3.08,4.93-4.65,4.88-1.9-.06-4.38-2.52-5.38-4.55-1.1-2.24-1.04-5.16-1.05-7.78-.06-23.86-.05-47.71.05-71.57.01-2.6.29-5.4,1.3-7.74.64-1.48,2.81-3.09,4.36-3.17,1.51-.08,4.02,1.41,4.5,2.77,1.07,3.03,1.52,6.41,1.56,9.66.17,11.93.07,23.86.07,35.79-.18,0-.36,0-.54,0Z"/>
  <path class="cls-1" d="m3222.7,2122.62c-5.28,1.19-8.08-.21-9.23-3.78-.79-2.46-1-5.19-1.01-7.81-.06-23.78-.03-47.55,0-71.33,0-1.32.08-2.65.26-3.95.45-3.35,1.21-6.84,5.29-7.16,4.16-.33,5.42,2.89,5.89,6.34.27,1.96.38,3.95.38,5.92-.02,25.1-.04,50.19-.16,75.29,0,1.89-.81,3.78-1.42,6.47Z"/>
  <path class="cls-1" d="m6658.95,2097.18c0,9.95.26,19.91-.23,29.84-.09,1.91-2.88,4.79-4.89,5.27-3.68.88-6.22-1.91-7.04-5.4-.75-3.19-1.07-6.56-1.09-9.85-.11-13.95-.08-27.9,0-41.86.02-2.64.26-5.33.85-7.89.77-3.36,2.38-6.34,6.44-6.35,4.11-.01,5.99,2.85,6.08,6.38.25,9.95.09,19.91.09,29.87-.07,0-.15,0-.22,0Z"/>
  <path class="cls-1" d="m6729.31,2131.42c-4.93,2.69-8.76.83-9.98-3.33-1.46-4.99-1.73-10.49-1.57-15.75.42-13.95,1.25-27.9,2.15-41.83.16-2.52,1.27-5.03,2.24-7.43.76-1.88,6.15-2,6.92-.16,1,2.39,2.27,4.93,2.28,7.41.1,18.63-.02,37.27-.25,55.9-.02,1.83-1.23,3.64-1.79,5.18Z"/>
  <path class="cls-1" d="m6695.04,2095.45c0,9.93.21,19.86-.11,29.78-.12,3.71-2.85,5.81-6.71,5.78-4.2-.03-5.67-3.06-6.09-6.47-.41-3.26-.21-6.6-.14-9.91.27-13.21.49-26.42.96-39.63.14-3.88.7-7.85,1.82-11.55.38-1.24,3.13-2.49,4.74-2.42,1.59.07,3.83,1.48,4.5,2.9,1.08,2.29,1.45,5.07,1.5,7.66.18,7.95.06,15.9.06,23.85-.18,0-.36,0-.54,0Z"/>
  <path class="cls-1" d="m3954.61,2102.69c-.44,5.58-.56,10.86-1.36,16.04-.52,3.4-2.7,5.91-6.56,6.22-3.9.31-7.03-1.87-7.15-5.21-.39-10.43-.18-20.9.46-31.31.09-1.53,3.6-3.57,5.82-4.09,3.67-.86,6.53,1.44,7.27,4.95.95,4.47,1.07,9.11,1.52,13.4Z"/>
  <path class="cls-1" d="m4247.32,2104.8c-.65,5.34-.74,10.66-2.1,15.63-.87,3.18-4.3,5.3-7.84,4.3-2.18-.62-5.24-2.55-5.63-4.38-2.33-10.94-2.94-22.07.49-32.89.54-1.7,4.06-3.43,6.17-3.4,2.16.03,5.72,1.82,6.18,3.51,1.52,5.6,1.92,11.5,2.74,17.23Z"/>
  <path class="cls-1" d="m3703.29,2104.5c-.49,5.21-.59,10.5-1.6,15.61-.71,3.56-3.98,5.59-7.43,4.47-1.95-.63-4.47-3.41-4.53-5.3-.32-9.81-.11-19.65.29-29.46.15-3.71,2.65-5.91,6.58-5.56,3.8.33,5.84,2.77,6.01,6.44.2,4.58.05,9.18.05,13.77.21.01.43.02.64.03Z"/>
  <path class="cls-1" d="m3982.09,2083.95c5.16.32,8.28.52,12.23.77.64,6.55,1.63,12.39,1.67,18.24.04,6.54-.78,13.09-1.3,20.76h-12.19c-2.4-12.72-1.74-25.08-.41-39.77Z"/>
  <path class="cls-1" d="m3891.13,2105.72c-.29,4.66-.13,10.01-1.21,15.1-.36,1.7-3.84,3.68-5.98,3.78-2.08.1-6.07-1.94-6.13-3.2-.55-11.1-.63-22.24-.21-33.35.05-1.43,3.59-3.51,5.78-3.92,3.62-.68,6.51,1.42,6.93,5.21.58,5.22.55,10.5.82,16.37Z"/>
  <path class="cls-1" d="m3638.32,2085.48c3.39,12.68,2.16,25.42.69,38.05-10.8.74-12.77.03-12.98-5.42-.35-9.15-.33-18.33.07-27.48.24-5.42,2.32-6.13,12.22-5.15Z"/>
  <path class="cls-1" d="m3827.18,2105.17c-.33,5.21-.18,10.51-1.25,15.56-.36,1.69-3.86,3.77-5.89,3.73-1.97-.04-5.49-2.49-5.57-4.03-.52-10.41-.56-20.87-.11-31.29.07-1.72,3.08-4.24,5.12-4.73,3.57-.86,6.53,1.36,6.85,5.09.45,5.18.11,10.43.11,15.65l.72.02Z"/>
  <path class="cls-1" d="m4118.1,2123.21c-4.85,2.57-9.07,2.21-10.27-2.46-2.79-10.84-2.9-22,.18-32.8,1.36-4.77,5.72-4.32,10.24-2.53,3.31,12.73,2.49,25.46-.15,37.79Z"/>
  <path class="cls-1" d="m4307.8,2103.49c-.46,5.91-.67,11.86-1.57,17.7-.21,1.35-2.66,3.09-4.25,3.29-1.6.2-4.11-.83-4.98-2.15-1.39-2.1-2.46-4.89-2.41-7.36.19-9.19.62-18.41,1.67-27.53.16-1.39,3.96-2.97,6.24-3.28,1.2-.16,3,2.06,4.05,3.54.68.96.67,2.53.69,3.84.08,3.97.03,7.95.03,11.92.18,0,.35.02.53.03Z"/>
  <path class="cls-1" d="m4533.89,2088.59c-2.26,4.61-3.21,8.41-4.28,8.45-15.22.49-30.45.58-45.68.39-1.18-.01-3.23-2.79-3.22-4.28,0-1.4,2.11-3.92,3.43-4.02,15.8-1.19,31.58-.56,49.75-.53Z"/>
  <path class="cls-1" d="m4046.57,2085.65c5.27-2.66,9.83-1.63,10.21,2.98.86,10.45.84,21.07-.04,31.52-.37,4.4-4.8,5.92-10.21,3.07-2.45-12.35-2.46-25.18.04-37.58Z"/>
  <path class="cls-1" d="m4169.03,2103.8c.55-6.4.4-11.14,1.6-15.5.48-1.74,3.99-3.66,6.08-3.63,2.02.03,5.67,2.43,5.71,3.89.32,9.82.13,19.69-.59,29.49-.1,1.43-3.94,3.61-6.02,3.57-2.04-.03-5.45-2.17-5.78-3.87-1.01-5.11-.82-10.46-1-13.95Z"/>
  <path class="cls-1" d="m4642.29,2016.6c4.09.31,8.2.02,11.88,1.14,1.94.59,3.95,3.45,4.47,5.63.88,3.7-1.45,6.76-5.16,6.86-8.52.24-17.08.04-25.57-.71-1.35-.12-3.39-4.07-3.26-6.14.12-2.06,2.25-5.27,4.05-5.7,4.41-1.06,9.13-.81,13.6-1.08Z"/>
  <path class="cls-1" d="m4839.55,2029.21c-1.47-10.1-.97-11.75,4.68-12.01,7.16-.32,14.37-.27,21.51.23,3.75.26,5.74,3.48,4.97,6.99-.47,2.12-2.57,5.15-4.38,5.5-8.97,1.73-18.05,2.17-26.77-.71Z"/>
  <path class="cls-1" d="m4798.53,2018.01c.24,4.12.42,7.21.61,10.55-10.82,4.41-20.99,2.77-31.05,1.04-1.57-9.82-.83-11.98,4.57-12.39,8.42-.64,16.89-.9,25.87.8Z"/>
  <path class="cls-1" d="m6830.42,2117.52c-.2,3.31-.14,6.67-.68,9.93-.62,3.78-3.4,6.03-7.03,5.21-2.11-.47-5.27-2.91-5.36-4.62-.45-7.91-.33-15.9.38-23.8.15-1.66,3.47-3.91,5.62-4.31,3.78-.71,6.28,1.74,6.54,5.62.26,3.97.06,7.97.06,11.96.16,0,.32,0,.48,0Z"/>
  <path class="cls-1" d="m6864.38,2100.3q3.32,16.2-.2,32.11c-2.89-.32-6.31.11-8.76-1.22-1.8-.98-3.12-4.21-3.29-6.54-.44-5.84-.27-11.74,0-17.6.08-1.83.98-3.77,1.96-5.37.58-.95,2.04-1.84,3.14-1.89,2.45-.11,4.93.32,7.17.51Z"/>
  <path class="cls-1" d="m4710.42,2016.51c5.48.42,9.61.11,13.25,1.3,1.77.58,3.58,3.95,3.6,6.08.02,2.05-2.15,5.85-3.5,5.91-8.44.4-16.92.14-25.36-.41-1.2-.08-3.23-3.02-3.09-4.46.23-2.31,1.48-5.85,3.15-6.43,4.22-1.46,8.91-1.56,11.95-1.99Z"/>
  <path class="cls-1" d="m6889.87,2101.21c4.82-2.18,9.43-1.83,10.13,2.84,1.13,7.61.87,15.5.46,23.23-.18,3.42-3.19,6.13-6.84,5.25-2.01-.48-4.69-3.03-4.98-4.96-1.36-8.94-2.37-18.03,1.23-26.35Z"/>
  <path class="cls-1" d="m3751.73,2103.19c.78-4.89,1.47-10.67,2.81-16.3.24-1.01,3.11-1.75,4.83-1.93.98-.1,2.16,1.11,3.14,1.87.48.37.9,1.03,1.01,1.62,2,11.07,1.58,22.12-.91,33.04-.3,1.32-2.89,2.9-4.44,2.92-1.56.02-4.29-1.57-4.51-2.79-.99-5.75-1.29-11.61-1.93-18.42Z"/>
  <path class="cls-1" d="m7369.08,1973.55c2.82,11,2.06,22.41.59,33.39-4.45,2.72-7.73,1.19-8.04-2.37-.77-9.08-.85-18.25-.52-27.36.13-3.7,3.11-5.41,7.96-3.66Z"/>
  <path class="cls-1" d="m7221.46,1971.85c2.49,12.51,2.19,23.56-.26,34.49-.29,1.3-3.94,1.84-6.78,3.05-3.19-12.4-2.2-23.43.13-34.33.28-1.31,3.94-1.9,6.9-3.21Z"/>
  <path class="cls-1" d="m4481.32,2062.33c1.47-.92,2.93-2.62,4.4-2.62,13.05-.08,26.11.05,39.16.39,1.43.04,2.81,1.79,5.17,3.4-2.52,1.42-3.97,2.93-5.49,3-14.26.67-28.54,1.4-43.25-4.16Z"/>
  <path class="cls-1" d="m6826.27,1903.79c-.95,4.3-1.26,7.55-2.49,10.42-.57,1.33-2.95,2.66-4.45,2.6-1.5-.06-3.82-1.6-4.22-2.94-.87-2.98-1.14-6.27-.97-9.4.24-4.43,4.54-8.67,7.12-7.07,2.3,1.43,3.59,4.49,5,6.4Z"/>
  <path class="cls-1" d="m7338.55,2006.17c-7.06-12.02-7.09-12.85-4.48-31,3.54-.89,4.41,1.36,4.44,4.08.09,8.97.03,17.95.03,26.92Z"/>
  <path class="cls-1" d="m7279.1,2006.41c-4.89-10.49-3.62-21.05-1.83-31.53,4.33-.53,5.25,1.84,5.25,4.55,0,9.02,1.64,18.19-3.42,26.98Z"/>
  <path class="cls-1" d="m7248.24,1975.04c5.25,10.34,3.49,20.88,2,31.25-4.33.91-5.56-1.06-5.59-3.98-.1-9.1-1.46-18.31,3.59-27.27Z"/>
  <path class="cls-1" d="m7185.12,2006.63c-.27-6.36-.76-12.71-.74-19.07.01-4.39.72-8.78,1.18-13.84,7.4,6.13,8.06,17.38-.44,32.91Z"/>
  <path class="cls-1" d="m6719.91,1897.33c4.97,5.99,4.03,11.68,2.07,17.18-.43,1.2-3.12,2.36-4.64,2.21-1.49-.15-3.92-1.9-4.01-3.09-.32-4.4-.35-8.97.62-13.23.32-1.43,3.95-2.11,5.95-3.07Z"/>
  <path class="cls-1" d="m6753.74,1895.72c.8,5.91,1.59,9.04,1.58,12.18-.02,6.33-2.25,9.81-5.12,8.66-4.58-1.83-4.23-6.05-4.35-9.9-.1-3.09.21-3.39,7.89-10.94Z"/>
  <path class="cls-1" d="m6789.64,1898.62c.36,3.02,1.05,6.18,1.05,9.34,0,5.82-2.43,9.47-5.41,8.61-5.26-1.53-4.09-6.09-4.14-9.82-.07-4.89.57-9.53,8.5-8.13Z"/>
  <path class="cls-1" d="m6825.44,1954.2c-.5,1.69-.62,3.86-1.72,5.25-1.01,1.27-3.02,2.05-4.71,2.35-.92.16-2.52-.88-3.08-1.81-2.5-4.17-2.78-8.64-.07-12.75.87-1.32,3.16-2.6,4.6-2.4,1.49.2,3.17,1.99,3.95,3.51.83,1.62.7,3.74,1.02,5.86Z"/>
  <path class="cls-1" d="m6851.96,1963.71c-1.63-2.32-2.89-3.3-2.95-4.36-.3-4.94-2.09-10.3,2.96-14.11.39-.29,1.27-.3,1.74-.07,4.02,1.94,4.78,6.92,2.13,15.68-.29.95-1.95,1.48-3.88,2.85Z"/>
  <path class="cls-1" d="m6683.75,1919.19c-4.97-8.82-4.54-14.68-2.43-20.48,4.41-1.82,6.59-.08,7.5,3.53,1.34,5.33-.47,9.86-5.06,16.95Z"/>
  <path class="cls-1" d="m6848.65,1916.56c.37-6.06.54-11.1,1.11-16.09.09-.77,1.94-1.46,3.09-1.92.44-.17,1.57.26,1.71.66,1.06,2.92,2.65,5.89,2.7,8.86.06,3.62.09,8.18-8.61,8.49Z"/>
  <path class="cls-1" d="m7212.55,1907.94c.2-1.14.02-3.4,1-4.91.91-1.4,3.07-2.81,4.63-2.75,1.47.06,3.43,1.74,4.14,3.21.79,1.64.68,3.86.51,5.78-.29,3.16-.19,6.67-4.48,7.65-3.63.82-5.84-2.23-5.8-8.98Z"/>
  <path class="cls-1" d="m6780.77,1950.45c1.12-1.59,1.97-3.4,3.36-4.56.73-.61,3-.6,3.52.01,1.18,1.39,2.34,3.33,2.37,5.07.07,3.71,1.51,8.22-3.6,10.16-.54.2-1.32.13-1.87-.11-5.1-2.15-2.62-6.79-3.78-10.58Z"/>
  <path class="cls-1" d="m6721.66,1943.53c.19,6.04.65,10.41.26,14.7-.1,1.16-2.75,2.9-4.23,2.9-1.49,0-4.15-1.71-4.26-2.88-.38-3.73-.37-7.72.66-11.27.4-1.39,3.92-1.88,7.58-3.46Z"/>
  <path class="cls-1" d="m7062.67,1949.13c-3.63-.68-5.69-4.74-3.88-9.38.72-1.84,3.65-4.09,5.45-3.99,3.94.23,4.78,3.73,4.51,7.21-.31,3.95-3.13,6.7-6.08,6.15Z"/>
  <path class="cls-1" d="m7090.42,1948.58c-.44-1.79-1.25-3.61-1.29-5.45-.12-5.92,2.07-9.18,5.21-8.27,3.06.89,3.65,3.24,3.8,6.05.32,5.84-.4,6.67-7.72,7.67Z"/>
  <path class="cls-1" d="m7460.89,2104.6v-15.29c6.79-1.66,7.91,2.07,8.11,6.33.23,4.91-.87,9.02-8.11,8.95Z"/>
  <path class="cls-1" d="m6890.39,1963.93c-3.95-7.52-6.17-12.59-1.45-17.96q4.61,5.63,1.45,17.96Z"/>
  <path class="cls-1" d="m7404.55,2088.2c5.99,5.08,4.65,10.11,1.09,15.68-6.59-5.83-6.54-5.84-1.09-15.68Z"/>
  <path class="cls-1" d="m7225.92,2089.05c.81,1.23,2.37,2.64,2.68,4.28.72,3.82.69,7.79-3.27,10.11-.72.42-3.14-.36-3.15-.67-.24-4.26-.23-8.54-.16-12.81,0-.31.96-.72,1.53-.87.56-.15,1.2-.03,2.38-.03Z"/>
  <path class="cls-1" d="m6849.15,1999.07c.1-1.23-.25-2.94.44-3.76,1.06-1.26,2.76-2.26,4.36-2.65.64-.16,2.26,1.48,2.53,2.53.48,1.85.78,4.05.19,5.77-.55,1.6-2.35,2.77-3.6,4.13-1.24-1.32-2.55-2.58-3.67-4-.34-.43-.17-1.28-.24-2.02Z"/>
  <path class="cls-1" d="m6890.72,1989.58c5.54,6.72,3.16,11,.39,16.04q-5.04-6.37-.39-16.04Z"/>
  <path class="cls-1" d="m7187.43,1917.42c-4.51-6.05-3.4-10.98-1.7-15.81.26-.73,2.13-1.4,3.12-1.24,1.07.17,2.48,1.15,2.87,2.12,2.16,5.3,1.03,9.97-4.29,14.93Z"/>
  <path class="cls-1" d="m7038.18,1942.56c-.43,1.87-.3,3.61-1.08,4.24-1.33,1.08-4.11,2.49-4.72,1.96-1.66-1.45-3.36-3.8-3.45-5.85-.09-2.15,1.32-4.69,2.82-6.42.53-.6,3.8.22,4.86,1.32,1.16,1.2,1.2,3.48,1.57,4.75Z"/>
  <path class="cls-1" d="m7283.5,2107.88c-3.87-9.08-4.95-14.19-.03-18.96.29-.29,1.4-.2,1.76.12,5.85,5.25,2.26,10.15-1.73,18.84Z"/>
  <path class="cls-1" d="m6681.3,1963.18c-.38-6.81-.9-11.02-.64-15.18.07-1.1,2.45-2.38,3.99-2.9.64-.22,2.55,1.19,2.73,2.09.98,4.94,2.27,10.1-6.08,16Z"/>
  <path class="cls-1" d="m7343.36,2087.93c4.12,6.31,4.23,10.69.26,16.46-3.96-5.34-3.81-9.78-.26-16.46Z"/>
  <path class="cls-1" d="m6751.19,1942.7q3.59,10.43.65,17.27-3.62-6.09-.65-17.27Z"/>
  <path class="cls-1" d="m7006.3,1950.58c-9.19-4.2-8.87-8.27-5.91-12.72.55-.83,2.29-1.43,3.29-1.23,1,.2,2.41,1.49,2.5,2.41.31,3.09.12,6.24.12,11.53Z"/>
  <path class="cls-1" d="m4050.71,1885.9c-.67,1.95-.8,5.37-2.34,6.22-4.57,2.52-9.69,4.02-15.43,6.24v21.01c-10.13,3.56-13.29,2.37-14.19-5.62-.59-5.27-.57-10.62-.68-15.94-.14-6.74-3.55-11.47-9.4-14.11-27.61-12.41-55.32-12.57-82.87.2-6.5,3.01-10.13,8.28-10.22,15.8-.07,5.97-.13,12.01-1.12,17.86-.28,1.65-3.78,3.82-5.81,3.82-2.1,0-5.74-2.05-6.04-3.69-1.17-6.42-1.28-13.03-1.85-20.32-4.77-1.33-9.31-2.13-13.4-3.96-1.91-.85-3.52-3.53-4.1-5.69-.28-1.05,1.99-3.9,3.36-4.08,13.46-1.81,24.77-9.3,37.18-13.63,32.45-11.32,64.83-12.41,96.39,4.75,9.08,4.94,19.6,7.24,30.52,11.13Z"/>
  <path class="cls-1" d="m1861.72,1680.78c-4.36.31-8.26.83-12.15.83-33.12.02-66.24-.02-99.36-.11-3.96-.01-8.1.22-11.8-.87-1.83-.54-3.92-3.82-3.94-5.88-.03-2.03,1.98-5.16,3.85-5.9,2.92-1.16,6.49-.93,9.78-.93,33.78-.05,67.55-.04,101.33-.01,2.64,0,5.33-.01,7.92.42,6.25,1.04,6.93,5.06,4.36,12.46Z"/>
  <path class="cls-1" d="m5671.36,757.57c0,31.94.02,63.88-.02,95.82,0,5.32-.04,10.66-.54,15.94-.35,3.71-2.88,5.86-6.73,5.87-3.78.01-6.51-1.88-6.92-5.66-1-9.24-2.05-18.51-2.33-27.79-.4-13.28-.3-26.59-.13-39.88.61-49.21,1.31-98.41,2.05-147.62.06-3.97.05-8.12,1.22-11.82.59-1.88,3.73-4.04,5.76-4.08,2.13-.05,5.8,1.95,6.19,3.65,1.17,5.09,1.38,10.47,1.4,15.75.1,33.27.05,66.54.05,99.82Z"/>
  <path class="cls-1" d="m5710.46,874.24c-4.27.38-8.01,1.83-10.35.61-2.39-1.25-4.7-5.05-4.84-7.85-.93-19.24-1.41-38.51-1.78-57.77-.44-22.59-.39-45.19-.99-67.78-.74-27.88-1.98-55.74-2.84-83.62-.16-5.27.15-10.61.89-15.83.21-1.45,2.78-3.68,4.16-3.61,2.33.12,5.87,1.24,6.59,2.92,1.48,3.48,1.86,7.6,1.96,11.48.49,18.6.3,37.23,1.16,55.81,1.98,43.12,4.51,86.21,6.63,129.32.58,11.85.81,23.75-.6,36.32Z"/>
  <path class="cls-1" d="m5630,873.77c-3.49.3-6.57.57-9.73.85-.98-2.63-2.25-4.43-2.24-6.22.12-19.96.24-39.93.75-59.89.94-36.58,2.05-73.15,3.3-109.72.55-15.94,1.64-31.87,2.5-47.8.11-1.99.22-3.99.5-5.97.5-3.51,1.97-6.36,5.9-6.89,3.56-.48,6.74,2.97,7.25,7.88.27,2.64.38,5.32.31,7.97-1.03,35.91-2.01,71.82-3.21,107.72-1.15,34.57-2.52,69.14-3.88,103.71-.1,2.57-.87,5.11-1.46,8.37Z"/>
  <path class="cls-1" d="m5700.09,937.47h9.95c.76,4.76,1.97,9.21,2.12,13.69,1.36,38.56,2.55,77.12,3.74,115.69.29,9.31.47,18.63.49,27.95.01,3.97.09,8.12-1.03,11.83-.56,1.86-3.73,3.97-5.79,4.03-2.09.07-5.31-1.74-6.16-3.59-1.31-2.85-1.28-6.43-1.37-9.71-.43-15.3-.57-30.61-1.07-45.91-1.01-31.25-2.25-62.49-3.23-93.74-.21-6.54-1.54-13.31,2.34-20.25Z"/>
  <path class="cls-1" d="m5669.5,1109.6c-3.56.2-6.68.37-9.36.52-1.18-1.87-2.36-2.91-2.48-4.07-.5-4.6-.93-9.23-.94-13.85-.06-45.1-.07-90.2,0-135.3,0-5.28.19-10.66,1.26-15.79.37-1.75,3.67-3.92,5.72-4.01,2.11-.1,5.1,1.6,6.28,3.43,1.29,2,1.28,5.06,1.28,7.65.04,51.07.02,102.14-.09,153.21,0,2.52-1,5.04-1.68,8.22Z"/>
  <path class="cls-1" d="m5623.45,1108.63c-6.51,2.95-10.53,2.15-11.85-3.94-.69-3.19-.79-6.58-.69-9.87,1.2-39.1,2.39-78.2,3.81-117.3.41-11.25,1.49-22.48,2.42-33.71.29-3.51,1.87-6.75,5.94-6.44,4.01.3,5.12,3.86,5.23,7.25.28,9.28.5,18.58.34,27.86-.55,31.84-1.04,63.69-2.05,95.51-.44,13.8-2.1,27.57-3.15,40.62Z"/>
  <path class="cls-1" d="m5711.27,1293.28c-5.03-6.92-4.42-15.02-4.61-22.95-.67-27.9-1.24-55.81-2.02-83.71-.2-7.29-1.16-14.55-1.54-21.84-.41-8.04,1.83-11.6,7.1-11.95,5.97-.4,8.56,2.33,9.23,10.08.34,3.97.42,7.96.47,11.95.3,27.25.44,54.5.88,81.75.16,9.94,1.26,19.86,1.45,29.79.11,5.82-2.14,6.97-10.95,6.88Z"/>
  <path class="cls-1" d="m5611.72,1154.79c9.74-.83,11.42.09,11.44,7.82.03,15.9-.1,31.8-.58,47.69-.7,23.15-1.76,46.3-2.67,69.44-.08,1.99-.03,3.98-.2,5.96-.64,7.43-1.81,8.09-12.15,7.04-3.88-18.1-.96-114.94,4.16-137.95Z"/>
  <path class="cls-1" d="m5670.39,1292.52c-12.22,1.7-15.17.08-15.09-7.48.43-38.6.92-77.19,1.41-115.79.03-2.66.07-5.33.3-7.98.5-5.68,2.9-8.38,6.75-7.9,4.89.6,6.44,4.21,7.16,8.26.46,2.6.4,5.31.4,7.97.01,37.96.01,75.92-.05,113.89,0,2.61-.5,5.21-.89,9.04Z"/>
  <path class="cls-1" d="m5609.72,1562.28c-4.29-.53-7.33-.9-11.12-1.37-.41-5.35-1.12-9.89-1.06-14.42.24-17.9.63-35.8,1.18-53.7.12-3.91.55-8.02,1.98-11.58.74-1.86,3.96-3.76,6.05-3.75,2.1,0,5.34,1.92,6.05,3.77,1.38,3.58,1.91,7.73,1.76,11.61-.77,20.52-1.82,41.03-2.88,61.53-.1,1.91-.92,3.78-1.97,7.91Z"/>
  <path class="cls-1" d="m5671.33,1520.38c0,9.25.12,18.51-.07,27.76-.07,3.25-.29,6.77-1.62,9.61-.9,1.92-3.87,3.9-5.95,3.92-1.98.03-4.46-2.08-5.85-3.91-1.04-1.38-.94-3.8-.95-5.76-.08-21.15-.15-42.3-.04-63.45.03-4.54-.04-9.7,6.13-10.8,4.73-.85,8.08,3.4,8.25,10.91.23,10.57.06,21.15.06,31.72h.03Z"/>
  <path class="cls-1" d="m5718.29,1560.69c-1.16-11.3-2.79-23.03-3.45-34.81-.71-12.62-.61-25.29-.64-37.93,0-2.53.54-5.32,1.72-7.52.76-1.41,3.14-2.64,4.8-2.66,1.66-.02,3.78,1.21,4.89,2.56,1.16,1.41,1.82,3.59,1.91,5.47,1.09,21.92,2.06,43.84,2.95,65.76.08,1.95-.32,4.03-1.01,5.87-1.79,4.75-5.4,5.14-11.17,3.27Z"/>
  <path class="cls-1" d="m5614.56,1421.62h-10.68c-4.08-7.49-2.28-14.9-2.31-22.02-.06-14.52.37-29.05.8-43.57.13-4.45,2.68-7.44,7.27-7.86,3.51-.32,6.59.82,7.6,4.67.5,1.88.72,3.91.65,5.85-.64,17.81-1.34,35.61-2.1,53.42-.11,2.58-.65,5.14-1.24,9.52Z"/>
  <path class="cls-1" d="m5724.21,1420.78c-4.83,2.56-9.64,2.74-10.57-3.64-3.22-22.22-4.3-44.55-2-67.65h9.79c3.98,19,5.47,58.91,2.78,71.3Z"/>
  <path class="cls-1" d="m5671.28,1384.01c0,8.64.22,17.29-.11,25.92-.12,3.19-.9,6.75-2.59,9.35-1.09,1.68-4.37,2.55-6.69,2.59-1.42.02-4.13-2.2-4.14-3.43-.19-21.87-.16-43.75.28-65.62.03-1.44,3.73-3.83,5.79-3.91,2.11-.08,5.08,1.65,6.24,3.49,1.28,2.02,1.17,5.08,1.22,7.69.13,7.97.05,15.95.05,23.93h-.04Z"/>
  <path class="cls-1" d="m5675.02,525.21c-2.53-11.05-1.96-22.77-1.3-34.41.11-1.87,3.19-5.15,4.64-5.02,2.8.26,7.71,2.42,7.75,3.92.32,11.02.25,22.14-.96,33.09-.53,4.81-5.27,4.99-10.13,2.43Z"/>
  <path class="cls-1" d="m5635.39,487.4c1.99-.89,3.17-1.86,4.33-1.84,1.86.03,3.71.72,6.15,1.26,2.73,11.66,1.54,23.38.77,35.01-.12,1.82-2.95,4.41-4.97,4.94-3.52.93-6.79-1.15-7.01-4.9-.69-11.64-1.84-23.36.72-34.47Z"/>
  <path class="cls-1" d="m5633.81,428.62c.27-4.59.02-9.33,1.04-13.77.45-1.94,3.29-4.23,5.41-4.7,3.65-.8,6.74,1.62,6.82,5.31.19,9.23-.03,18.49-.79,27.68-.12,1.47-3.92,3.75-5.92,3.64-1.98-.1-5.07-2.44-5.5-4.31-1.03-4.44-.79-9.18-1.06-13.86Z"/>
  <path class="cls-1" d="m5686.61,445.78c-3.67.76-5.56,1.41-7.46,1.46-1.2.03-2.43-.84-4.21-1.52-3.74-9.91-2.57-20.42-1.13-30.8.26-1.88,3.16-4.28,5.26-4.82,3.52-.9,7.15,1.32,7.35,4.78.55,9.77.19,19.59.19,30.89Z"/>
  <path class="cls-1" d="m5658.55,224.96c-3.29-10.47-1.65-21.59-2.02-32.03,4.61-4.82,8.67-4.38,13.71-.46,1.97,9.02,1.75,18.88-.15,28.56-1.14,5.77-5.71,6.51-11.54,3.92Z"/>
</svg>