<?xml version="1.0" encoding="utf-8"?>
<!-- Generator: Adobe Illustrator 27.4.1, SVG Export Plug-In . SVG Version: 6.00 Build 0)  -->
<svg version="1.1" id="Capa_1" xmlns="http://www.w3.org/2000/svg" xmlns:xlink="http://www.w3.org/1999/xlink" x="0px" y="0px"
	 viewBox="0 0 327.1 312.9" style="enable-background:new 0 0 327.1 312.9;" xml:space="preserve">
<style type="text/css">
	.st0{display:none;}
	.st1{display:inline;fill:#352F22;}
	.st2{display:inline;}
	.st3{fill:url(#SVGID_1_);}
	.st4{fill:url(#SVGID_00000016784262668881589060000005067761416274239107_);}
	.st5{fill:url(#SVGID_00000018218459226243735000000013899462148495649189_);}
	.st6{display:inline;fill:url(#SVGID_00000020356634804282544160000006402598385988429187_);}
	.st7{display:inline;fill:url(#SVGID_00000134937233749662253040000017218929958745235852_);}
	.st8{display:inline;fill:url(#SVGID_00000108997012185192142600000007440975181715903140_);}
</style>
<g class="st0">
	<rect x="-49" y="-54.9" class="st1" width="425.2" height="425.2"/>
	<g class="st2">
		<linearGradient id="SVGID_1_" gradientUnits="userSpaceOnUse" x1="-24.4374" y1="157.6578" x2="351.5626" y2="157.6578">
			<stop  offset="0" style="stop-color:#A96925"/>
			<stop  offset="0.2957" style="stop-color:#FCF293"/>
			<stop  offset="0.5" style="stop-color:#B9863B"/>
			<stop  offset="0.8441" style="stop-color:#B9653E"/>
			<stop  offset="0.9946" style="stop-color:#FDD864"/>
		</linearGradient>
		<path class="st3" d="M351.6,345.7h-376v-376h376V345.7z M-23.6,344.8h374.2V-29.5H-23.6V344.8z"/>
	</g>
</g>
<g id="Paquete_de_vectores:_motivo_de_puntos_15" class="st0">
</g>
<g id="Paquete_de_vectores:_motivo_de_puntos_15_1_" class="st0">
</g>
<g id="Paquete_de_vectores:_motivo_de_puntos_03" class="st0">
</g>
<g>
	<g>
		
			<linearGradient id="SVGID_00000143614786440619757420000003614842525933169315_" gradientUnits="userSpaceOnUse" x1="86.8711" y1="312.0392" x2="294.9204" y2="64.9806">
			<stop  offset="0" style="stop-color:#A96925"/>
			<stop  offset="0.2957" style="stop-color:#FCF293"/>
			<stop  offset="0.5" style="stop-color:#B9863B"/>
			<stop  offset="0.8441" style="stop-color:#B9653E"/>
			<stop  offset="0.9946" style="stop-color:#FDD864"/>
		</linearGradient>
		<path style="fill:url(#SVGID_00000143614786440619757420000003614842525933169315_);" d="M311.4,191.8c-2.8,4.3-4.9,9.2-6.1,12.7
			c0,0.1-0.1,0.2-0.1,0.3c1.8-6.1,3.2-12.4,4.2-18.8c0.7-4.4,1.2-8.9,1.5-13.4c0.3,0.2,6.2-2.7,9.6-11.4c3.5-8.8,2.2-19.7,1.9-19.8
			c-0.3-0.2-5.3,4.3-8.2,12.8c-1.7,4.9-2.6,10.2-3,13.8c0.5-10.9-0.1-21.7-1.8-32.3c0.6,0,5.4-4.5,6.7-13.6
			c1.4-9.4-2.4-19.6-2.8-19.7c-0.3-0.1-4.1,5.5-5,14.5c-0.5,5-0.2,10.1,0.2,13.8c-2-10.5-5.1-20.7-9.2-30.5
			c0.6-0.3,4.2-5.8,3.2-14.8c-1-9.5-7.2-18.4-7.6-18.4c-0.3-0.1-2.6,6.4-1.2,15.4c0.7,4.8,2.2,9.5,3.4,12.9
			c-0.9-1.9-1.8-3.9-2.8-5.8c-3.9-7.6-8.5-14.6-13.5-21.1c0.6-0.8,2.4-6.9-0.8-15.1c-3.5-8.9-12.2-15.9-12.6-15.8
			c-0.4,0-0.7,6.8,3.1,15.1c1.9,4,4.2,7.8,6.3,10.7c-6.8-7.9-14.5-14.9-23-20.9c0.3-1.2,0.2-7.4-5.4-14.2
			c-5.8-7.2-16-11.5-17.6-11.8c-0.1,0-0.2,0-0.2,0c-0.4,0.1,1.5,6.7,8,13.7c2.9,3.1,6.2,6,8.9,8.1c-9-5.6-18.8-10.2-29.4-13.6
			c0,0,0,0-0.1,0c-0.2-1.4-2.4-7.2-10.4-12.1c-9.1-5.7-22.8-6.8-23.2-6.6c-0.4,0.2,4.1,6,13.4,11c5,2.6,10.3,4.8,14.3,6.2
			c-1.1-0.2-2.2-0.5-3.3-0.7c-1.5-0.3-3.1-0.6-4.6-0.9l0,0c-2.8-0.7-12.5-2.3-21.5-0.1C171.9,24,167.6,29.8,168,30
			c0.1,0.1,1.8,0.1,4.5,0.1c4.4-0.1,11.2-0.4,17.4-1.7c8.2-1.7,13.3-5,14.7-6.2c1.3,0.3,2.7,0.6,4,0.8c3.1,0.6,6.4,1.2,9.3,2.2
			c7.6,2.5,14.7,5.5,21.4,9c-3.6-1.6-9.2-3.5-15.1-3.5c-9.7,0-15.1,4.5-14.8,4.8c0.1,0.1,1.5,0.6,3.7,1.2c0,0,0,0,0,0
			c0.2,0,0.4,0.1,0.5,0.1c3.7,1,9.2,2.1,14.6,2.4c8.4,0.4,14.2-2.1,15-2.7c0,0,0,0,0,0c0.1,0,0.1-0.1,0.1-0.1
			c9.4,5.4,17.7,11.8,25.1,19c-2.8-2.2-6.6-4.6-10.9-5.8c-8.7-2.4-14.7,0.6-14.6,1c0,0.1,1.1,0.9,2.8,1.9c2.9,1.8,7.8,4.5,12.9,6.2
			c7.3,2.4,13.3,1.6,14.3,1.2c6.6,7.1,12.4,14.9,17.2,23.2c-2-2.5-4.6-5.1-7.7-7c-7.4-4.5-13.9-3.1-13.9-2.7c0,0.1,0.8,1.1,2,2.6
			c2.2,2.5,6,6.3,10.3,9.2c5.9,3.9,11.4,4.8,13,4.7c4.3,8.4,7.8,17.2,10.5,26.2c-1.3-2.7-3-5.7-5.4-8.1c-6-6.2-12.4-6.5-12.5-6.1
			c0,0.1,0.4,1.3,1.3,3.1c0,0,0,0,0,0.1c0.1,0.2,0.2,0.4,0.3,0.6c1.5,3,4,7.2,7.1,10.7c3.9,4.4,8,6.7,10.2,7.5l0,0c0,0,0,0,0,0
			c0.4,0.2,0.8,0.3,1,0.3c2.3,9.5,3.6,19.2,4.2,28.8c-0.6-3.2-1.6-6.8-3.5-10c-4.3-7.6-10.5-9.5-10.7-9.2c-0.1,0.1,0.1,1.4,0.5,3.3
			c0,0,0,0.1,0,0.1c0.1,0.2,0.1,0.5,0.2,0.7c0.8,3.3,2.2,7.9,4.4,12.2c3.4,6.4,8,10,9.2,10.6c0,8.4-0.6,16.8-1.9,25
			c-0.3,1.6-0.5,3.2-0.9,4.8c0.1-1.1,0.1-2.2,0.1-3.4c0-2.6-0.3-5.3-1.1-8c-2.4-8.5-8-11.9-8.3-11.6c-0.1,0.1-0.2,1.4-0.2,3.3
			c0,0,0,0.1,0,0.1c0,0.2,0,0.5,0,0.7c0,3.4,0.3,8.3,1.5,13c1.8,7.2,5.6,11.8,6.6,12.7c-2.2,8.9-5.2,18-9.3,26.8
			c0.9-3,1.5-6.5,1.3-10c-0.4-8.8-5-13.6-5.3-13.4c-0.1,0.1-0.5,1.3-1,3.2c0,0,0,0,0,0c-0.1,0.2-0.1,0.5-0.2,0.8
			c-0.8,3.3-1.6,8.1-1.6,12.9c0,7.1,2.3,12.4,3.2,13.8c-4.3,8.2-9.5,16.1-15.6,23.6c1.6-2.6,3.1-5.8,3.8-9.1
			c0.3-1.6,0.5-3.1,0.6-4.5c0.2-6.1-2.1-9.9-2.4-9.8c-0.1,0-0.8,1.1-1.7,2.7c-1.6,2.9-4,7.8-5.4,12.9c-1.8,6.9-1,12.7-0.5,14.2
			c-6.7,7.2-14.4,13.8-23.2,19.6c2.7-2.2,5.6-5.2,7.5-8.7c4.3-7.8,2.6-14.3,2.2-14.3c-0.1,0-1.1,0.8-2.5,2.2c-2.4,2.4-6.1,6.5-9,11
			c-4.1,6.5-4.9,12.5-4.7,13.7c-9.4,5.4-19.8,9.8-31.3,13c3.8-1.4,8.4-3.7,11.9-6.9c7-6.4,7.2-13.1,6.8-13.1c-0.1,0-1.4,0.5-3.3,1.5
			c0,0-0.1,0-0.1,0.1c-0.1,0.1-0.2,0.1-0.4,0.2c-3.2,1.7-8,4.5-12.3,7.9c-6.6,5.4-9.5,11.1-9.6,12c-11.2,2.5-23.3,3.8-36.5,3.8v0.7
			c7.8,0,15.4-0.5,22.8-1.5c0.3,0.7,5.5,5.4,15.9,6.5c11.1,1.2,22.4-3.2,22.5-3.6c0.1-0.3-5.9-3.9-16.2-4.5
			c-5.5-0.3-11.3,0.1-15.7,0.5c12.2-2.1,23.8-5.6,34.5-10.4c0.2,0.5,6.2,4,15.8,2.4c10-1.6,18.8-8.5,18.8-8.9c0-0.1-0.6-0.3-1.6-0.6
			c0,0,0,0,0,0l0,0c-2.5-0.6-7.6-1.1-14.1,0.3c-5,1.1-10.2,2.9-13.8,4.4c10-5,19.2-11.2,27.6-18.5c0.4,0.5,6.8,2.2,15-1.6
			c4.3-2,8.1-5.2,10.7-8c2.6-2.8,4.2-5.1,4.1-5.3c-0.1-0.4-6.7-0.5-14.7,3.6c-4.3,2.3-8.4,5.3-11.3,7.6c7.6-7.3,14.4-15.6,20.1-24.7
			c0,0,0,0,0,0c0,0.4,6.7,0.8,13.8-5.3c7.1-6,10.9-16.2,10.7-16.6c-0.1-0.3-6.6,1.2-13.1,7.2c-3.8,3.6-7.1,7.9-9.2,10.9
			c0,0.1-0.1,0.1-0.1,0.2c5.5-9.3,10-19.3,13.4-29.9c0,0,0,0,0,0c0.1,0.4,6.6-1,12-8.6c5.4-7.7,6.6-18.5,6.4-18.8
			C322.1,181.1,316.3,184.3,311.4,191.8z"/>
		
			<linearGradient id="SVGID_00000134956835535886418950000004019081325488042687_" gradientUnits="userSpaceOnUse" x1="29.6783" y1="263.8763" x2="237.7265" y2="16.819">
			<stop  offset="0" style="stop-color:#A96925"/>
			<stop  offset="0.2957" style="stop-color:#FCF293"/>
			<stop  offset="0.5" style="stop-color:#B9863B"/>
			<stop  offset="0.8441" style="stop-color:#B9653E"/>
			<stop  offset="0.9946" style="stop-color:#FDD864"/>
		</linearGradient>
		<path style="fill:url(#SVGID_00000134956835535886418950000004019081325488042687_);" d="M113.1,287.8c-4.3-3.4-9.1-6.2-12.3-7.9
			c-0.1-0.1-0.2-0.1-0.4-0.2c0,0-0.1,0-0.1-0.1c-1.9-1-3.2-1.6-3.3-1.5c-0.3,0.1-0.1,6.7,6.8,13.1c3.5,3.2,8.1,5.5,11.9,6.9
			c-11.5-3.2-22-7.6-31.3-13c0.1-1.2-0.7-7.2-4.7-13.7c-2.9-4.6-6.6-8.6-9-11c-1.4-1.4-2.4-2.2-2.5-2.2c-0.3,0-2.1,6.4,2.2,14.3
			c1.9,3.5,4.8,6.5,7.5,8.7c-8.7-5.7-16.4-12.3-23.2-19.6c0.5-1.5,1.3-7.2-0.5-14.2c-1.4-5.2-3.7-10-5.4-12.9
			c-0.9-1.7-1.6-2.7-1.7-2.7c-0.3-0.1-2.5,3.7-2.4,9.8c0,1.4,0.2,2.9,0.6,4.5c0.7,3.4,2.2,6.5,3.8,9.1c-6.1-7.4-11.3-15.4-15.6-23.6
			c0.9-1.4,3.2-6.7,3.2-13.8c0-4.8-0.8-9.7-1.6-12.9c-0.1-0.3-0.1-0.5-0.2-0.8c0,0,0,0,0,0c-0.5-1.9-0.9-3.2-1-3.2
			c-0.3-0.2-4.9,4.6-5.3,13.4c-0.2,3.5,0.5,7.1,1.3,10c-4-8.8-7.1-17.9-9.3-26.8c1-0.8,4.8-5.5,6.6-12.7c1.2-4.7,1.5-9.6,1.5-13
			c0-0.2,0-0.5,0-0.7c0,0,0-0.1,0-0.1c0-2-0.1-3.3-0.2-3.3c-0.2-0.3-5.8,3.2-8.3,11.6c-0.8,2.7-1.1,5.4-1.1,8c0,1.2,0,2.4,0.1,3.4
			c-0.3-1.6-0.6-3.2-0.9-4.8c-1.3-8.1-1.9-16.5-1.9-25c1.3-0.6,5.9-4.2,9.2-10.6c2.2-4.3,3.6-8.9,4.4-12.2c0.1-0.2,0.1-0.5,0.2-0.7
			c0,0,0-0.1,0-0.1c0.4-1.9,0.6-3.2,0.5-3.3c-0.2-0.3-6.4,1.6-10.7,9.2c-1.8,3.2-2.9,6.8-3.5,10c0.5-9.6,1.9-19.3,4.2-28.8
			c0.3-0.1,0.6-0.2,1-0.3c0,0,0,0,0,0l0,0c2.2-0.9,6.4-3.2,10.2-7.5c3.1-3.6,5.6-7.8,7.1-10.7c0.1-0.2,0.2-0.4,0.3-0.6
			c0,0,0,0,0-0.1c0.9-1.8,1.4-3,1.3-3.1c-0.1-0.3-6.6-0.1-12.5,6.1c-2.3,2.4-4.1,5.4-5.4,8.1c2.7-9,6.2-17.8,10.5-26.2
			c1.5,0,7.1-0.8,13-4.7c4.3-2.9,8.1-6.7,10.3-9.2c1.3-1.4,2-2.4,2-2.6c0-0.4-6.4-1.8-13.9,2.7c-3.1,1.9-5.7,4.5-7.7,7
			c4.9-8.3,10.6-16.1,17.2-23.2c1.1,0.4,7,1.2,14.3-1.2c5.1-1.7,9.9-4.4,12.9-6.2c1.7-1.1,2.8-1.8,2.8-1.9c0.1-0.3-6-3.4-14.6-1
			c-4.3,1.2-8.1,3.6-10.9,5.8c7.4-7.2,15.7-13.6,25.1-19c0,0,0,0.1,0.1,0.1c0,0,0,0,0,0c0.7,0.6,6.5,3.1,15,2.7
			c5.4-0.3,10.9-1.4,14.6-2.4c0.2,0,0.4-0.1,0.5-0.1c0,0,0,0,0,0c2.2-0.6,3.6-1,3.7-1.2c0.3-0.3-5.1-4.8-14.8-4.8
			c-5.9,0-11.5,1.9-15.1,3.5c6.6-3.5,13.7-6.6,21.4-9c2.9-0.9,6.1-1.6,9.3-2.2c1.3-0.3,2.7-0.5,4-0.8c1.3,1.2,6.4,4.5,14.7,6.2
			c6.1,1.2,13,1.6,17.4,1.7c2.6,0,4.3,0,4.5-0.1c0.4-0.2-3.9-6-14.5-8.6c-9-2.2-18.7-0.7-21.5,0.1l0,0c-1.5,0.3-3.1,0.6-4.6,0.9
			c-1.1,0.2-2.2,0.4-3.3,0.7c3.9-1.4,9.3-3.5,14.3-6.2c9.3-5,13.8-10.7,13.4-11c-0.4-0.3-14.1,0.9-23.2,6.6
			c-8,4.9-10.2,10.6-10.4,12.1c0,0,0,0-0.1,0c-10.5,3.4-20.3,8-29.4,13.6c2.8-2.2,6-5,8.9-8.1c6.5-7,8.3-13.6,8-13.7
			c0,0-0.1,0-0.2,0c-1.6,0.4-11.8,4.7-17.6,11.8c-5.6,6.8-5.7,13-5.4,14.2c-8.5,6-16.2,13-23,20.9c2-2.9,4.4-6.7,6.3-10.7
			c3.8-8.3,3.5-15.1,3.1-15.1c-0.4-0.1-9.1,6.9-12.6,15.8c-3.2,8.2-1.4,14.2-0.8,15.1c-5.1,6.5-9.6,13.5-13.5,21.1
			c-1,1.9-1.9,3.8-2.8,5.8c1.2-3.4,2.7-8.1,3.4-12.9c1.3-9-0.9-15.4-1.2-15.4c-0.4,0-6.6,8.9-7.6,18.4c-1,9,2.6,14.5,3.2,14.8
			c-4.1,9.7-7.2,20-9.2,30.5c0.4-3.6,0.7-8.8,0.2-13.7c-0.9-9-4.7-14.7-5-14.5c-0.4,0.1-4.1,10.3-2.8,19.7
			c1.3,9.1,6.1,13.5,6.7,13.6c-1.7,10.6-2.3,21.5-1.8,32.3c-0.4-3.7-1.3-8.9-3-13.8c-3-8.5-8-13-8.2-12.8c-0.3,0.2-1.6,11,1.9,19.8
			c3.4,8.7,9.3,11.7,9.6,11.4c0.3,4.5,0.8,8.9,1.5,13.4c1,6.4,2.4,12.7,4.2,18.8c0-0.1-0.1-0.2-0.1-0.3c-1.2-3.4-3.3-8.3-6.1-12.7
			c-4.8-7.5-10.7-10.6-10.9-10.3c-0.3,0.3,1,11.1,6.4,18.8c5.4,7.6,11.9,9,12,8.6c0,0,0,0,0,0c3.4,10.6,7.9,20.6,13.4,29.9
			c0-0.1-0.1-0.1-0.1-0.2c-2.1-3-5.4-7.4-9.2-10.9c-6.5-6-12.9-7.5-13.1-7.2c-0.2,0.3,3.6,10.5,10.7,16.6c7.1,6,13.8,5.7,13.8,5.3
			c0,0,0,0,0,0c5.8,9.1,12.5,17.4,20.1,24.7c-2.9-2.3-7-5.4-11.3-7.6c-8-4.2-14.6-4-14.7-3.6c0,0.1,1,1.7,2.8,3.8
			c2.6,3,6.9,7.1,12,9.5c8.2,3.8,14.6,2.1,15,1.6C71,277.8,80.2,284,90.2,289c-3.6-1.5-8.8-3.3-13.8-4.4c-6.5-1.4-11.7-0.8-14.1-0.3
			l0,0c0,0,0,0,0,0c-1,0.2-1.6,0.5-1.6,0.6c0,0.4,8.8,7.3,18.8,8.9c9.6,1.5,15.5-1.9,15.8-2.4c10.7,4.8,22.3,8.3,34.5,10.4
			c-4.4-0.4-10.2-0.8-15.7-0.5c-10.3,0.6-16.3,4.1-16.2,4.5c0.1,0.4,11.5,4.7,22.5,3.6c10.4-1.1,15.7-5.7,15.9-6.5
			c7.4,1,15,1.5,22.8,1.5v-0.7c-13.2,0-25.3-1.4-36.5-3.8C122.6,298.8,119.7,293.1,113.1,287.8z"/>
	</g>
	<g class="st0">
		
			<linearGradient id="SVGID_00000158022103048328095570000000337281239734282676_" gradientUnits="userSpaceOnUse" x1="14.177" y1="239.1075" x2="222.227" y2="-7.9519">
			<stop  offset="0" style="stop-color:#A96925"/>
			<stop  offset="0.2957" style="stop-color:#FCF293"/>
			<stop  offset="0.5" style="stop-color:#B9863B"/>
			<stop  offset="0.8441" style="stop-color:#B9653E"/>
			<stop  offset="0.9946" style="stop-color:#FDD864"/>
		</linearGradient>
		<path style="display:inline;fill:url(#SVGID_00000158022103048328095570000000337281239734282676_);" d="M101.1,137.7
			c1.7,1.4,3.6,2.4,5.8,3c2.2,0.6,4.4,1,6.7,1.1c2.3,0.1,4.5-0.1,6.8-0.5c2.2-0.4,4.2-1,6-1.7c3.3-1.3,6.1-3.1,8.1-5.3
			c2.4-2.5,3.8-5.4,4.2-8.5c0.4-2.7,0.3-5.1-0.3-7.1c-0.6-2-1.5-3.8-2.7-5.3c-1.2-1.6-2.6-2.9-4.2-4.1c-1.6-1.2-3.2-2.3-4.8-3.4
			c-1.4-1-2.8-1.9-4.1-2.8c-1.3-0.9-2.4-1.9-3.3-3c-0.9-1.1-1.6-2.3-2-3.6c-0.4-1.3-0.5-2.8-0.3-4.6c0.6-4.1,2-7.2,4.3-9.4
			c1.1-1,2.4-1.6,3.8-1.9c1.4-0.3,2.8-0.2,4.2,0.1c1.3,0.4,2.5,1.1,3.6,2.1c1.1,1,1.7,2.2,2.1,3.8c-0.3,0.1-0.5,0.2-0.8,0.2
			c-0.2,0.1-0.5,0.2-0.8,0.3c-1.4,0.5-2.5,1.3-3.3,2.2c-1,1.1-1.6,2.4-1.8,3.8c-0.3,2.2,0.2,3.8,1.6,4.8c1.3,1,2.7,1.1,4.2,0.3
			c1-0.5,1.9-1.3,2.5-2.4c0.7-1.1,1-2.4,1.2-3.9c0-0.6,0.1-1.2,0.1-1.8c0-0.6,0-1.1-0.1-1.7c1.3-0.1,2.6-0.1,3.7,0.1
			c1.2,0.2,2,0.5,2.6,1c0.2,0.2,0.4,0.4,0.4,0.5c-0.1,0.3,0,0.6,0.2,0.9c0.2,0.3,0.5,0.4,0.8,0.5c0.3,0,0.6,0,0.9-0.2
			c0.3-0.2,0.4-0.5,0.4-0.8c0.2-1.1-0.2-2-1.3-2.7c-0.9-0.7-2.1-1.2-3.6-1.4c-1.5-0.3-3.1-0.3-4.7-0.1c-0.4-1.6-1.1-3-2-4.2
			c-1-1.4-2.3-2.5-3.9-3.2c-1.5-0.7-3.1-1.1-4.8-1.2c-1.7-0.1-3.4,0.1-5,0.5c-1.7,0.4-3.2,1.1-4.5,1.9c-2,1.3-3.7,2.9-4.9,4.9
			c-1.2,2-2,4.3-2.3,6.7c-0.6,4.2,0.6,8.2,3.6,12.1c1,1.2,2.1,2.4,3.5,3.4c1.4,1.1,2.7,2.1,4.2,3.1c1.4,1,2.8,2.1,4.2,3.1
			c1.4,1.1,2.6,2.2,3.6,3.4c1,1.2,1.8,2.6,2.4,4c0.5,1.4,0.7,3,0.4,4.8c-0.3,2-1,3.8-2.1,5.4c-1.1,1.6-2.5,3-4.2,4.2
			c-1.6,1.2-3.5,2.1-5.5,2.8c-2,0.7-4,1.1-6.1,1.2c-2.1,0.1-4-0.1-6-0.7c-1.9-0.5-3.7-1.4-5.2-2.7c-2.6-2.1-3.6-4.9-3-8.3
			c0.3-1.9,0.9-3.5,1.6-4.8c0.8-1.3,1.7-2.3,2.7-3.1c1-0.8,2.1-1.3,3.2-1.6c1.1-0.3,2.2-0.3,3.3-0.2c0.2,0,0.4,0,0.7,0.1l-0.6,0.8
			c-0.8,1.4-1.3,2.9-1.6,4.6c-0.2,1.5-0.1,2.8,0.2,3.9c0.3,1.2,0.9,2.1,1.8,2.7c0.6,0.5,1.3,0.8,2.1,1c0.8,0.1,1.5,0,2.2-0.3
			c0.9-0.4,1.6-0.9,2.1-1.7c0.5-0.8,0.9-1.8,1.1-2.9c0.4-2.9-0.2-5.3-1.8-7.3c-0.2-0.2-0.4-0.4-0.6-0.6c-0.2-0.2-0.4-0.4-0.6-0.6
			c1.2-0.5,2.4-0.7,3.7-0.6c1.3,0.1,2.2,0.3,3,0.5c0.3,0.1,0.6,0.1,0.9,0c0.3-0.1,0.5-0.4,0.6-0.7c0.1-0.3,0.1-0.6,0-0.9
			c-0.1-0.3-0.4-0.5-0.7-0.6c-0.6-0.2-1.3-0.4-2.1-0.5c-0.7-0.1-1.5-0.2-2.3-0.1c-2,0-3.7,0.5-5.3,1.4c-0.1,0.1-0.1,0.1-0.2,0.1
			c-0.4-0.2-0.8-0.3-1.2-0.4c-0.4-0.1-0.8-0.2-1.2-0.3c-1.4-0.2-2.8-0.1-4.3,0.2c-1.5,0.4-2.8,1-3.9,1.9c-2.8,2.1-4.5,5.3-5.3,9.6
			C96.6,131.5,97.9,135,101.1,137.7z M135.3,88.9c0.1,0.8,0.1,1.8,0.1,2.9c-0.1,1-0.3,1.9-0.7,2.7c-0.4,0.8-0.9,1.3-1.6,1.6
			c-0.7,0.3-1.3,0.3-1.9-0.1c-0.6-0.5-0.9-1.3-0.7-2.6c0.3-1.9,1.5-3.3,3.8-4.2C134.6,89.1,134.9,89,135.3,88.9z M111.2,123.8
			c0.3-2,1-3.6,2.1-4.8c1,0.6,1.7,1.5,2.2,2.6c0.5,1.1,0.7,2.5,0.4,4.1c-0.2,1.4-0.7,2.4-1.7,2.8c-0.7,0.2-1.3,0.1-2-0.3
			c-0.5-0.4-0.9-1-1.1-1.8C111.1,125.7,111.1,124.8,111.2,123.8z"/>
		
			<linearGradient id="SVGID_00000141432934411858015130000007232924631195304327_" gradientUnits="userSpaceOnUse" x1="54.5083" y1="273.0481" x2="262.557" y2="25.9902">
			<stop  offset="0" style="stop-color:#A96925"/>
			<stop  offset="0.2957" style="stop-color:#FCF293"/>
			<stop  offset="0.5" style="stop-color:#B9863B"/>
			<stop  offset="0.8441" style="stop-color:#B9653E"/>
			<stop  offset="0.9946" style="stop-color:#FDD864"/>
		</linearGradient>
		<path style="display:inline;fill:url(#SVGID_00000141432934411858015130000007232924631195304327_);" d="M142.6,118
			c-0.5,2-0.7,4-0.7,6.1c0,2.7,0.4,4.8,1.2,6.4c0.5,1,1.1,1.7,1.8,2c0.7,0.4,1.3,0.6,1.9,0.7h0.5c1,0,1.9-0.2,2.8-0.6
			c0.9-0.4,1.7-0.9,2.5-1.5c0.8-0.6,1.5-1.4,2.2-2.2c0.7-0.8,1.4-1.7,2.1-2.6c0.2-0.3,0.5-0.6,0.7-1c0.2-0.3,0.5-0.7,0.7-1
			c-0.3,1.4-0.5,2.8-0.6,4c-0.1,1.3-0.2,2.4-0.3,3.5c-0.2,3.8,0.1,6.4,1.1,7.9c0.6,1,1.5,1.7,2.7,1.9h0.6c3.5,0,7.4-4.6,11.5-13.7
			c0.6-1.2,1.1-2.4,1.5-3.6c-0.3,7.5,0.6,12.7,2.8,15.3c1.2,1.4,2.6,2,4.4,2c1.5,0,2.9-0.4,4.2-1.2c1.3-0.8,2.4-1.8,3.5-2.9
			c1-1.2,2-2.5,2.7-3.9c0.8-1.4,1.5-2.8,2.1-4.1c0.7-1.6,1.4-3.2,1.9-4.9c0.6-1.7,1.1-3.4,1.5-5.2c1.6,0,3.1-0.2,4.5-0.6
			c1.2-0.3,2.3-0.7,3.4-1.1c-0.2,1.3-0.3,2.7-0.3,4.1c0,2.4,0.2,4.6,0.7,6.6c0.4,1.4,0.8,2.5,1.3,3.3c0.5,0.8,1,1.5,1.6,1.9
			c0.6,0.5,1.1,0.8,1.6,0.9c0.5,0.1,1,0.2,1.5,0.2c1.7,0,3.5-0.7,5.3-2.1c0.8-0.6,1.6-1.3,2.4-2.1c0.8-0.8,1.6-1.8,2.4-2.8
			c1.3-1.7,2.6-3.6,3.9-5.9c1.3-2.3,2.6-4.8,4-7.7c0.2-0.3,0.2-0.6,0.1-0.9c-0.1-0.3-0.3-0.5-0.6-0.7c-0.3-0.2-0.6-0.2-0.9-0.1
			c-0.3,0.1-0.5,0.3-0.7,0.7c-2.7,5.6-5.2,10-7.6,13.2c-0.8,1-1.5,1.8-2.2,2.5c-0.7,0.7-1.4,1.4-2.1,1.9c-0.5,0.4-0.9,0.6-1.3,0.6
			c-0.4-0.1-0.7-0.3-1-0.6c-0.3-0.4-0.5-0.8-0.7-1.4c-0.2-0.6-0.3-1.2-0.5-1.8c-0.6-2.2-0.7-4.7-0.5-7.6c0.1-0.6,0.2-1.3,0.2-1.9
			c0.1-0.6,0.2-1.2,0.2-1.8c0.5,0,1-0.2,1.6-0.5c0.6-0.3,1.1-0.7,1.7-1.1c0.6-0.4,1.1-0.9,1.6-1.4c0.5-0.5,0.9-0.9,1.1-1.2
			c1.1-1.4,1.7-2.9,1.8-4.4c0.1-1.7-0.5-3-1.9-3.8c-0.8-0.5-1.7-0.8-2.8-0.7c-1.1,0-2.2,0.4-3.3,1c-0.9,0.5-1.7,1.1-2.4,2
			c-0.7,0.9-1.3,1.8-1.7,2.8c-0.5,1-0.9,2-1.2,3c-0.3,1-0.6,1.9-0.7,2.6c0,0.1-0.1,0.3-0.1,0.4c-0.1,0.1-0.3,0.1-0.4,0.2
			c-1.1,0.4-2.2,0.8-3.5,1.2c-1.3,0.4-2.6,0.6-3.9,0.7c0.3-1.6,0.6-3.1,0.7-4.6c0.2-1.5,0.2-3,0.2-4.4c0-3.3-0.5-6-1.5-8.1
			c-0.7-1.5-1.6-2.4-2.6-2.9c-1-0.5-1.9-0.7-2.7-0.7c-2.2,0-4,0.6-5.5,1.8c-1.5,1.2-2.5,2.8-2.9,5c-0.3,1.3-0.4,2.6-0.2,4.1
			c0.2,1.5,0.5,2.9,1.1,4.2c0.6,1.4,1.5,2.7,2.5,3.9c1.1,1.1,2.3,2,3.6,2.7c0.7,0.4,1.4,0.6,2.2,0.9c0.7,0.2,1.5,0.4,2.2,0.4
			c-0.8,3.2-1.8,6.3-3.1,9.2c-1.5,3.2-2.8,5.5-4.1,7c-1.3,1.5-2.4,2.1-3.4,1.9c-1-0.2-1.7-1.4-2.2-3.3c-0.5-2-0.7-4.9-0.6-8.7
			c0-1.5,0.1-2.9,0.2-4.3c0.1-1.4,0.2-2.6,0.4-3.7c0.1-1.1,0.3-2.3,0.5-3.6c0.1-0.6-0.2-1.1-0.9-1.6c-0.7-0.4-1.5-0.7-2.4-0.8
			c-0.9-0.1-1.7,0-2.5,0.3c-0.8,0.3-1.2,0.9-1.4,1.8c0,0-0.1,0.3-0.2,0.9c0,0.2-0.1,0.3-0.1,0.5c-0.3,1-0.6,1.9-0.9,2.7
			c-0.4,1.3-1,2.7-1.6,4.3c-0.6,1.6-1.3,3.3-2.1,4.9c-1.4,3.1-2.6,5.4-3.7,7.1c-1.1,1.7-2,2.9-2.8,3.7c-0.1-0.2-0.2-0.7-0.3-1.3
			c-0.1-0.6-0.1-1.5-0.1-2.7c0.1-1.2,0.2-2.7,0.5-4.6c0.3-1.9,0.7-4.3,1.3-7.1c0.4-1.7,0.7-3.3,1.1-4.8c0.4-1.5,0.7-2.8,1-4
			c0.3-1.2,0.6-2.1,0.8-2.9c0.2-0.8,0.4-1.2,0.4-1.4c0.2-0.4-0.1-0.8-0.7-1.1c-0.7-0.3-1.4-0.6-2.3-0.7c-0.9-0.1-1.7-0.1-2.5,0
			c-0.8,0.2-1.3,0.5-1.5,1.1c-1.2,3.6-2.4,6.9-3.6,9.7c-1.3,2.9-2.5,5.1-3.7,6.8c-1,1.3-1.8,2.3-2.5,3.2c-0.7,0.9-1.4,1.3-1.9,1.4
			c-0.5,0.1-0.9-0.3-1.1-1.1c-0.3-0.8-0.4-2.3-0.4-4.3c0-3.3,0.6-6.3,1.9-9.1c0.7-1.6,1.3-2.7,1.8-3.3c0.5-0.7,1-1,1.4-0.9
			c0.4,0.1,0.9,0.6,1.3,1.5c0.4,0.9,0.9,2.1,1.4,3.6c0.1,0.3,0.3,0.5,0.6,0.6c0.3,0.1,0.5,0.1,0.8,0c0.3-0.1,0.5-0.2,0.7-0.4
			c0.2-0.2,0.3-0.5,0.2-0.8c-0.2-1-0.6-2-1-3c-0.4-1.1-1-2-1.6-2.9c-0.7-0.9-1.4-1.5-2.3-2.1c-0.9-0.5-1.9-0.7-3-0.5
			c-1.2,0.2-2.4,0.8-3.5,1.8c-1.1,1-2.2,2.3-3.1,4C143.8,114.2,143.1,116,142.6,118z M215,109.4c0.2-0.3,0.4-0.6,0.8-1
			c0.4-0.4,0.7-0.8,1-1.1c0.3-0.3,0.6-0.4,0.8-0.4c0.2,0,0.3,0.3,0.2,0.9c0,0.8-0.4,1.6-1.1,2.7c-0.7,1-1.9,2-3.5,3.1
			C213.8,111.9,214.4,110.5,215,109.4z M192.1,115.9c-1.2-0.6-2.2-1.4-3.1-2.3c-0.9-1-1.5-2-2-3.1c-0.5-1.1-0.8-2.3-0.9-3.4
			c-0.1-1.2-0.1-2.3,0.2-3.3c0.4-1.6,1.1-2.8,2.2-3.6c1.1-0.9,2.4-1.3,4-1.3c1.4,0,2.4,0.8,3.2,2.3c0.8,1.6,1.3,4,1.3,7
			c0,2.7-0.3,5.7-1,8.9C194.6,116.9,193.3,116.5,192.1,115.9z"/>
		
			<linearGradient id="SVGID_00000021110203610874785720000003929116748196165270_" gradientUnits="userSpaceOnUse" x1="81.3409" y1="295.6424" x2="289.3884" y2="48.5859">
			<stop  offset="0" style="stop-color:#A96925"/>
			<stop  offset="0.2957" style="stop-color:#FCF293"/>
			<stop  offset="0.5" style="stop-color:#B9863B"/>
			<stop  offset="0.8441" style="stop-color:#B9653E"/>
			<stop  offset="0.9946" style="stop-color:#FDD864"/>
		</linearGradient>
		<path style="display:inline;fill:url(#SVGID_00000021110203610874785720000003929116748196165270_);" d="M251.2,181.6
			c-0.2-0.3-0.4-0.5-0.7-0.5c-0.3-0.1-0.6,0-0.9,0.1c-0.3,0.2-0.5,0.4-0.5,0.7c-0.8,3-2.3,5.3-4.7,6.9c-2.4,1.6-5.8,2.5-10.1,2.8
			c-2.5,0.2-5.2,0.1-8.1-0.1c-2.9-0.2-5.8-0.6-8.8-1.1l-11.4-2c-2.9-0.5-5.7-0.9-8.4-1.3c-2.7-0.4-5.1-0.6-7.2-0.6
			c-0.5,0-0.9,0-1.4,0c0.8-0.5,1.6-1.3,2.3-2.4c1.1-1.6,2.3-3.7,3.4-6.4c0.2-0.4,0.3-0.8,0.5-1.1c0.1,0.5,0.1,1.1,0.3,1.6
			c0.2,0.9,0.5,1.7,0.9,2.3c0.3,0.6,0.7,1,1.1,1.3c0.4,0.3,0.7,0.5,1.1,0.6c0.4,0.1,0.7,0.1,1,0.1c1.2,0,2.4-0.5,3.6-1.4
			c0.5-0.4,1.1-0.8,1.6-1.4c0.5-0.6,1.1-1.2,1.6-1.9c0.9-1.1,1.7-2.5,2.6-4c0.9-1.5,1.8-3.3,2.7-5.2c0.1-0.2,0.1-0.4,0.1-0.6
			c-0.1-0.2-0.2-0.4-0.4-0.5c-0.2-0.1-0.4-0.1-0.6,0c-0.2,0.1-0.4,0.2-0.5,0.4c-1.8,3.8-3.5,6.7-5.1,8.9c-0.5,0.6-1,1.2-1.5,1.7
			c-0.5,0.5-0.9,0.9-1.4,1.3c-0.3,0.3-0.6,0.4-0.8,0.4c-0.2,0-0.5-0.2-0.6-0.4s-0.3-0.6-0.5-0.9c-0.1-0.4-0.2-0.8-0.3-1.2
			c-0.4-1.5-0.5-3.2-0.4-5.1c0.1-0.4,0.1-0.9,0.2-1.3c0.1-0.4,0.1-0.8,0.2-1.2c0.3,0,0.7-0.1,1.1-0.4c0.4-0.2,0.8-0.5,1.2-0.8
			c0.4-0.3,0.7-0.6,1.1-0.9c0.3-0.3,0.6-0.6,0.8-0.8c0.8-1,1.2-2,1.2-2.9c0.1-1.2-0.4-2-1.3-2.6c-0.5-0.3-1.2-0.5-1.9-0.5
			c-0.7,0-1.5,0.3-2.2,0.7c-0.6,0.3-1.2,0.8-1.6,1.4c-0.5,0.6-0.8,1.2-1.2,1.9c-0.3,0.7-0.6,1.3-0.8,2c-0.2,0.7-0.4,1.3-0.5,1.8
			c-0.2,1-0.4,2.1-0.4,3.2c-0.2,0.6-0.4,1.2-0.6,1.8c-0.4,1.1-0.8,2.2-1.3,3.3c-0.5,1.3-1.1,2.5-1.6,3.5c-0.5,1-1.1,1.9-1.6,2.7
			c-0.8,1.1-1.3,1.4-1.6,1.1c-0.3-0.3-0.4-1.2-0.4-2.6c0-1,0-2,0.2-3.2c0.1-1.1,0.3-2.3,0.4-3.5c0.2-1.6,0.4-3,0.5-4.4
			c0.1-1.4,0.1-2.5-0.1-3.4c-0.2-0.7-0.4-1.2-0.6-1.7c-0.3-0.4-0.6-0.8-0.8-1.1c-0.3-0.3-0.6-0.5-0.9-0.6c-0.3-0.1-0.6-0.2-0.8-0.3
			c-0.6-0.2-1.3-0.2-1.9,0c-0.6,0.1-1.1,0.4-1.6,0.7c-0.5,0.3-0.9,0.7-1.4,1.2c-0.4,0.5-0.7,1-1,1.5c-0.7,1.3-1.4,2.9-2.1,5
			l2.3-17.9c0.6,0,1.3,0.1,1.9,0.1c0.4,0,0.7,0,1.1,0c0.3,0,0.7,0,1,0c3-0.2,5.5-0.8,7.3-1.9c2.2-1.3,3.5-3.2,4.2-5.8
			c0.1-0.2,0-0.4-0.1-0.6c-0.1-0.2-0.3-0.3-0.5-0.4c-0.2-0.1-0.4,0-0.6,0.1c-0.2,0.1-0.3,0.3-0.4,0.5c-0.5,2-1.6,3.6-3.2,4.6
			c-1.6,1.1-3.9,1.7-6.8,1.9c-1.2,0.1-2.4,0.1-3.7,0l0.2-1.3c0.1-0.6-0.1-1-0.6-1.2c-0.5-0.2-1-0.3-1.7-0.3c-0.6,0-1.2,0.2-1.8,0.4
			c-0.6,0.3-0.8,0.6-0.9,1l-0.1,1c-1-0.1-1.9-0.3-2.9-0.4l-7.7-1.3c-2-0.3-3.9-0.6-5.7-0.9c-1.8-0.2-3.4-0.4-4.9-0.4
			c-0.9,0-1.7,0-2.4,0.1c-0.7,0.1-1.3,0.2-1.8,0.5c-1.3,0.5-2.1,1.4-2.5,2.6c-0.1,0.2,0,0.4,0.1,0.6c0.1,0.2,0.3,0.3,0.5,0.4
			c0.5,0.1,0.8-0.1,1-0.6c0.1-0.2,0.2-0.4,0.3-0.7c0.2-0.2,0.4-0.4,0.8-0.6c0.4-0.2,0.9-0.4,1.5-0.5c0.6-0.1,1.5-0.2,2.5-0.2
			c1.3,0,2.7,0.1,4.2,0.3c1.5,0.2,3.2,0.5,4.9,0.7c-0.1,0.9-0.3,1.8-0.5,2.9c-0.2,1.1-0.4,2.3-0.6,3.6c-0.3,1.5-0.5,3.1-0.8,4.8
			c-0.3,1.7-0.5,3.4-0.8,5.2c-0.3,1.8-0.5,3.5-0.7,5.3c-0.2,1.8-0.4,3.5-0.6,5.1c-0.4,4.1-0.5,7.3-0.3,9.7c0.2,2.4,0.7,4.1,1.5,5
			c0.6,0.6,1.3,1,2.1,1h0c1.7,0,3.4-1.5,5.1-4.4c1.2-2.1,2.5-5.1,3.8-8.8c0.2-0.7,0.5-1.4,0.7-2l-0.1,1.2c-0.1,0.6,0.2,0.9,0.6,1.1
			c0.5,0.2,1,0.2,1.7,0.2c0.6-0.1,1.2-0.2,1.7-0.4c0.5-0.2,0.8-0.5,0.8-0.7c0.2-0.9,0.4-1.7,0.5-2.4c0.2-0.7,0.4-1.5,0.6-2.4
			c0.3-0.9,0.5-1.8,0.8-2.7c0.3-1.1,0.7-2.1,1-2.9c0.3-0.8,0.7-1.6,1-2.2c0.1-0.1,0.2-0.3,0.4-0.6c0.2-0.3,0.4-0.6,0.6-0.8
			c0.2-0.2,0.5-0.4,0.7-0.5c0.2-0.1,0.5,0,0.6,0.2c0.1,0.1,0.3,0.4,0.4,0.9c0.1,0.5,0.2,1.2,0.2,2.2c0,0.8-0.1,1.7-0.2,2.7
			c-0.1,1-0.2,2-0.4,3c-0.1,1.1-0.3,2.3-0.4,3.4c-0.1,1.1-0.2,2.2-0.2,3.2c0,2.4,0.4,4,1.2,5c0.3,0.3,0.6,0.5,0.9,0.7
			c-0.4,0.1-0.8,0.2-1.2,0.4c-2,0.8-3.2,2-3.6,3.8c-0.1,0.3,0,0.6,0.1,0.9c0.2,0.3,0.4,0.5,0.7,0.6c0.8,0.1,1.2-0.2,1.4-0.9
			c0.1-0.3,0.2-0.6,0.5-1c0.2-0.3,0.6-0.7,1.2-1c0.5-0.3,1.3-0.5,2.2-0.7c0.9-0.2,2.2-0.3,3.7-0.3c1.9,0,3.9,0.2,6.2,0.5
			c2.3,0.3,4.7,0.7,7.2,1.1c-0.2,1.3-0.4,2.7-0.7,4.4c-0.3,1.6-0.5,3.4-0.9,5.3c-0.4,2.3-0.8,4.7-1.2,7.2c-0.4,2.5-0.8,5.1-1.2,7.6
			c-0.1,0.7-0.2,1.3-0.3,2c-0.2,0.7-0.5,1.4-0.7,2c-0.4,1.3-1,2.7-1.6,4.3c-0.6,1.6-1.3,3.3-2.1,4.9c-1.4,3.1-2.6,5.4-3.7,7.1
			c-1.1,1.7-2,2.9-2.8,3.7c-0.1-0.2-0.2-0.7-0.3-1.3c-0.1-0.6-0.1-1.5-0.1-2.7c0.1-1.2,0.2-2.7,0.5-4.6c0.3-1.9,0.7-4.3,1.3-7.1
			c0.4-1.7,0.7-3.3,1.1-4.8c0.4-1.5,0.7-2.8,1-4c0.3-1.2,0.6-2.1,0.8-2.9c0.2-0.8,0.4-1.2,0.4-1.4c0.2-0.4-0.1-0.8-0.7-1.1
			c-0.7-0.3-1.4-0.6-2.3-0.7c-0.9-0.1-1.7-0.1-2.5,0c-0.8,0.2-1.3,0.5-1.5,1.1c-1.2,3.6-2.4,6.9-3.6,9.7c-1.3,2.9-2.5,5.1-3.7,6.8
			c-1,1.3-1.8,2.3-2.5,3.2c-0.7,0.9-1.4,1.3-1.9,1.4c-0.5,0.1-0.9-0.3-1.1-1.1c-0.3-0.8-0.4-2.3-0.4-4.3c0-3.3,0.6-6.4,1.9-9.1
			c0.7-1.6,1.3-2.7,1.8-3.3c0.5-0.7,1-1,1.4-0.9c0.4,0.1,0.9,0.6,1.3,1.5c0.4,0.9,0.9,2.1,1.4,3.6c0.1,0.3,0.3,0.5,0.6,0.6
			c0.3,0.1,0.5,0.1,0.8,0c0.3-0.1,0.5-0.2,0.7-0.4c0.2-0.2,0.3-0.5,0.2-0.8c-0.2-1-0.6-2-1-3c-0.4-1.1-1-2-1.6-2.9
			c-0.7-0.9-1.4-1.5-2.3-2.1c-0.9-0.5-1.9-0.7-3-0.5c-1.2,0.2-2.4,0.8-3.5,1.8c-1.1,1-2.2,2.3-3.1,4c-0.1,0.2-0.2,0.3-0.2,0.5
			c-0.1,0.1-0.1,0.2-0.2,0.3c-0.5,1.4-2.4,2.8-5.9,4.3c-0.8,0.4-1.7,0.8-2.7,1.1c-1,0.4-2,0.7-3,1.1c0.2-1.9,0.4-3.8,0.5-5.7
			c0.1-1.9,0.2-3.8,0.1-5.7c0-2.7-0.2-5.4-0.6-7.9c-0.3-2.5-0.8-4.9-1.4-7c-1.1-4.1-2.6-7.3-4.6-9.6c-2.2-2.6-4.8-3.9-7.8-3.9
			c-2.1,0-4.2,0.8-6.2,2.4c-0.9,0.7-1.7,1.6-2.6,2.6c-0.9,1-1.7,2.1-2.5,3.4c-2.5,4.1-5,9.7-7.2,16.5l0.1-1.7
			c0.2-4.3,0.1-8.1-0.5-11.3c-0.7-3.8-1.9-6.8-3.7-9c-2.4-2.9-5.8-4.4-10-4.4c-3.1,0-5.9,0.8-8.4,2.3c-1,0.6-1.9,1.3-2.7,2
			c-0.9,0.8-1.7,1.6-2.4,2.6c-0.2,0-0.4,0-0.5,0c-0.1,0-0.3,0-0.5,0c-2,0-3.8,0.2-5.5,0.7c-1.7,0.4-3.2,1-4.6,1.8
			c-2.3-2.2-5.3-3-9-2.4c-0.3,0.1-0.6,0.3-0.8,0.5c-0.2,0.3-0.3,0.6-0.2,0.9s0.3,0.6,0.5,0.8c0.3,0.2,0.6,0.3,0.9,0.2
			c1.5-0.3,2.8-0.3,3.8,0c1,0.3,1.9,0.7,2.6,1.3c-1.7,1.3-3,2.7-3.9,4.2c-0.9,1.5-1.4,3-1.4,4.4c0,1.4,0.5,2.6,1.4,3.4
			c0.9,0.9,2.2,1.3,3.9,1.3c2.1,0,3.6-1,4.5-2.9c0.4-0.7,0.6-1.5,0.7-2.4c0.1-0.9,0.1-1.8,0-2.7c-0.2-1.7-0.8-3.3-1.7-4.7
			c1-0.5,2.2-0.9,3.6-1.3H91c1.2,0,2.3,0.3,3.4,0.8c-1,1.7-1.7,3.5-2.3,5.5c-0.4,1.4-0.8,2.8-1,4.2c-0.2,1.4-0.3,2.8-0.3,4.2
			c0,2,0.2,3.8,0.6,5.5c0.4,1.7,1,3.1,1.9,4.4c1.2,1.8,2.8,3.1,4.8,3.9c0.3,0.2,0.6,0.2,0.7,0.2c0,0,0.1,0,0.1-0.1
			c0.8,0.2,1.7,0.4,2.7,0.4c2.7,0,4.9-1.3,6.3-3.8c1.3-2.1,1.9-4.8,1.9-8.1c0-2.3-0.3-4.6-0.9-6.9c-0.6-2.3-1.5-4.4-2.7-6.3
			c-1.2-2-2.7-3.7-4.4-4.9c-0.7-0.5-1.6-0.9-2.5-1.3c1-1.1,2.1-2,3.4-2.8c1.3-0.8,2.7-1.3,4.1-1.6c1.4-0.2,2.8-0.1,4.1,0.4
			c1.3,0.5,2.5,1.6,3.5,3.2c0.9,1.5,1.6,3.3,2.1,5.3c0.5,2,0.7,4.2,0.8,6.5c0.1,2.3,0.1,4.7-0.1,7.3c-0.2,2.5-0.4,5-0.8,7.5
			c-0.3,2.5-0.7,4.9-1.1,7.2c-0.4,2.3-0.8,4.4-1.2,6.3l-1,5.7c-0.2,1,0,1.6,0.7,1.9c0.7,0.3,1.5,0.5,2.4,0.4
			c0.9-0.1,1.8-0.3,2.7-0.7c0.9-0.4,1.3-0.8,1.5-1.3c0,0,0.1-0.8,0.4-2.2c0.3-1.4,0.6-3.3,1.2-5.6c0.5-2.3,1.1-5,1.9-7.9
			c0.7-3,1.6-6,2.5-9.1c2.3-7.2,4.7-12.8,7.3-16.9c1.4-2.3,2.8-3.9,4.1-4.8c1.3-0.9,2.5-1.3,3.6-1.1c1.1,0.2,2.1,0.8,3.1,1.9
			c0.9,1.1,1.8,2.5,2.5,4.2c0.7,1.8,1.3,3.7,1.8,6c0.5,2.2,0.9,4.6,1.1,7c0.3,3.2,0.4,6.4,0.3,9.8c-0.1,3.3-0.5,6.6-1,9.9
			c-2.3,0.8-4.7,1.5-6.9,2.3c-2.3,0.8-4.4,1.6-6.4,2.5c-2,0.9-3.8,1.9-5.5,2.9c-1.6,1-2.9,2.2-3.9,3.4c-2.2,2.7-3.5,5.5-3.8,8.5
			c-0.1,1.4,0,2.7,0.4,4c0.4,1.3,1,2.4,1.8,3.3c1.1,1.3,2.4,2.2,3.9,2.7c1.5,0.5,3,0.7,4.5,0.5c1.6-0.1,3.2-0.5,4.7-1.1
			c1.6-0.6,3.1-1.3,4.5-2.2c3.3-1.9,6.2-5.2,8.6-9.9c2.2-4.2,3.8-9.1,4.9-14.7c0.1-0.4,0.1-0.7,0.2-1.1c0.1-0.4,0.1-0.8,0.2-1.2
			c2.7-0.9,5.1-1.8,7.1-2.7c1.2-0.5,2.3-1.1,3.2-1.7c-0.4,1.9-0.7,3.9-0.7,6c0,2.7,0.4,4.8,1.2,6.4c0.5,1,1.1,1.7,1.8,2
			c0.7,0.4,1.3,0.6,1.9,0.7h0.5c1,0,1.9-0.2,2.8-0.6c0.9-0.4,1.7-0.9,2.5-1.5c0.8-0.6,1.5-1.4,2.2-2.2c0.7-0.8,1.4-1.7,2.1-2.6
			c0.2-0.3,0.5-0.6,0.7-1c0.2-0.3,0.5-0.7,0.7-1c-0.3,1.4-0.5,2.8-0.6,4c-0.1,1.3-0.2,2.4-0.3,3.5c-0.2,3.8,0.1,6.4,1.1,7.9
			c0.6,1,1.5,1.7,2.7,1.9h0.6c3.5,0,7.4-4.6,11.5-13.7c0.3-0.7,0.6-1.3,0.9-2c-0.1,1.1-0.2,2.1-0.3,3.2c-0.6,6.1-0.7,10.9-0.4,14.4
			c0.3,3.5,1,6,2.2,7.4c0.8,1,1.9,1.4,3.1,1.4h0.1c2.5,0,5-2.2,7.5-6.5c1.8-3.1,3.7-7.5,5.7-13.1c0.6-1.7,1.2-3.5,1.7-5.2
			c0.1,0.3,0.1,0.6,0.2,0.9c0.4,1.4,0.8,2.5,1.3,3.3c0.5,0.8,1,1.5,1.6,1.9c0.6,0.5,1.1,0.8,1.6,0.9c0.5,0.1,1,0.2,1.5,0.2
			c1.7,0,3.5-0.7,5.3-2.1c0.8-0.6,1.6-1.3,2.4-2.1c0.8-0.8,1.6-1.8,2.4-2.8c1.3-1.7,2.6-3.6,3.9-5.9c1.3-2.3,2.6-4.8,4-7.7
			c0.2-0.3,0.2-0.6,0.1-0.9c-0.1-0.3-0.3-0.5-0.6-0.7c-0.3-0.2-0.6-0.2-0.9-0.1c-0.3,0.1-0.5,0.3-0.7,0.7c-2.7,5.6-5.2,10-7.6,13.2
			c-0.8,1-1.5,1.8-2.2,2.5c-0.7,0.7-1.4,1.4-2.1,1.9c-0.5,0.4-0.9,0.6-1.3,0.6c-0.4-0.1-0.7-0.3-1-0.6c-0.3-0.4-0.5-0.8-0.7-1.4
			c-0.2-0.6-0.3-1.2-0.5-1.8c-0.6-2.2-0.7-4.7-0.5-7.6c0.1-0.6,0.2-1.3,0.2-1.9c0.1-0.6,0.2-1.2,0.2-1.8c0.5,0,1-0.2,1.6-0.5
			c0.6-0.3,1.1-0.7,1.7-1.1c0.6-0.4,1.1-0.9,1.6-1.4c0.5-0.5,0.9-0.9,1.1-1.2c1.1-1.4,1.7-2.9,1.8-4.4c0.1-1.7-0.5-3-1.9-3.8
			c-0.8-0.5-1.7-0.8-2.8-0.7c-1.1,0-2.2,0.4-3.3,1c-0.9,0.5-1.7,1.1-2.4,2c-0.7,0.9-1.3,1.8-1.7,2.8c-0.5,1-0.9,2-1.2,3
			c-0.3,1-0.6,1.9-0.7,2.6c-0.4,2-0.7,4-0.8,6c-0.4,1.4-0.8,2.9-1.3,4.5c-0.7,2.2-1.4,4.5-2.2,6.8c-1.8,5.3-3.7,9.6-5.5,12.7
			c-0.8,1.4-1.5,2.2-2,2.5c-0.5,0.3-0.9,0.3-1.3-0.2c-0.3-0.5-0.5-1.2-0.7-2.4c-0.1-1.1-0.2-2.5-0.2-4.1c0-1.6,0.1-3.4,0.2-5.3
			c0.1-1.9,0.3-4,0.5-6c0.2-2.4,0.5-4.9,0.8-7.5c0.3-2.5,0.7-5.1,1.1-7.7c0.4-2.6,0.8-5.1,1.2-7.6c0.4-2.5,0.8-4.8,1.2-7
			c0.3-1.8,0.5-3.4,0.8-4.9c0.2-1.5,0.5-2.9,0.7-4.2c3.5,0.6,6.9,1.1,10.5,1.6c3.5,0.5,6.9,0.7,10.1,0.7c0.6,0,1.1,0,1.6,0
			s1,0,1.6-0.1c4.5-0.3,8.1-1.2,10.8-2.9c3.2-1.9,5.2-4.8,6.2-8.6C251.4,182.2,251.4,181.9,251.2,181.6z M201.4,165.3
			c0.1-0.2,0.3-0.4,0.5-0.7c0.2-0.3,0.5-0.5,0.7-0.7c0.2-0.2,0.4-0.3,0.6-0.3c0.1,0,0.2,0.2,0.1,0.6c0,0.5-0.3,1.1-0.7,1.8
			c-0.5,0.7-1.3,1.4-2.4,2.1C200.6,167,201,166,201.4,165.3z M172.8,172c-0.3,1.2-0.7,2.5-1.1,4c-0.4,1.5-0.9,3-1.5,4.6
			c-1.2,3.6-2.5,6.5-3.7,8.6c-0.5,0.9-1,1.5-1.3,1.7c-0.3,0.2-0.6,0.2-0.8-0.1c-0.2-0.3-0.4-0.8-0.5-1.6c-0.1-0.8-0.1-1.7-0.1-2.7
			c0-1.1,0.1-2.3,0.1-3.6c0.1-1.3,0.2-2.7,0.3-4.1c0.2-1.6,0.3-3.3,0.6-5c0.2-1.7,0.5-3.5,0.7-5.2c0.3-1.7,0.5-3.4,0.8-5.1
			c0.3-1.7,0.5-3.3,0.8-4.8c0.2-1.2,0.4-2.3,0.5-3.3c0.2-1,0.3-1.9,0.4-2.8c2.3,0.4,4.7,0.8,7.1,1.1c0,0,0.1,0,0.1,0l-1.8,15.7
			C173.3,170.2,173.1,171.2,172.8,172z M86.1,199.7c-0.6,1-1.4,1.6-2.4,1.6c-1.1,0-1.9-0.2-2.3-0.7c-0.4-0.4-0.7-0.9-0.7-1.6
			c0-1,0.4-2.1,1.1-3.3c0.8-1.3,1.9-2.4,3.4-3.4c0.7,1.1,1.2,2.4,1.4,3.8C86.8,197.4,86.6,198.7,86.1,199.7z M101,198.1
			c0.7,1.6,1.1,3.4,1.5,5.2c0.2,1.2,0.3,2.5,0.3,3.9c0,1.4-0.1,2.6-0.4,3.8c-0.3,1.1-0.7,2.1-1.3,2.9c-0.6,0.8-1.3,1.2-2.3,1.2
			c-0.8,0-1.5-0.1-2-0.5c-0.5-0.4-1-0.9-1.4-1.6c-0.7-1-1.3-2.3-1.6-3.8c-0.4-1.5-0.5-3.1-0.5-4.8c0-2.2,0.3-4.3,0.8-6.5
			c0.5-2.2,1.3-4.3,2.4-6.2c0.9,0.8,1.6,1.5,2.1,2.2C99.5,195,100.4,196.4,101,198.1z M148.2,228.3c-0.2,0.7-0.3,1.3-0.5,1.9
			c-1.2,4.5-2.7,8.2-4.5,11.3c-1.8,3.1-3.8,5.3-6.2,6.7c-1.3,0.8-2.7,1.4-4.2,1.7c-1.5,0.4-2.8,0.4-4.1,0.1c-1.2-0.3-2.2-0.9-2.9-2
			c-0.7-1.1-1-2.6-0.8-4.7c0.1-1.2,0.4-2.4,1-3.6c0.5-1.2,1.3-2.4,2.2-3.6c0.9-1,2-2,3.5-2.9c1.5-0.9,3.1-1.8,4.9-2.6
			c1.8-0.8,3.8-1.6,5.8-2.4c2.1-0.7,4.1-1.4,6.2-2.1C148.5,227,148.4,227.7,148.2,228.3z M226.8,210.6c0.2-0.3,0.4-0.6,0.8-1
			c0.4-0.4,0.7-0.8,1-1.1c0.3-0.3,0.6-0.4,0.8-0.4c0.2,0,0.3,0.3,0.2,0.9c0,0.8-0.4,1.6-1.1,2.7c-0.7,1-1.9,2-3.5,3.1
			C225.6,213.1,226.2,211.8,226.8,210.6z"/>
	</g>
</g>
</svg>
