<svg width="24" height="24" viewBox="0 0 24 24" fill="none" xmlns="http://www.w3.org/2000/svg" class="max-w-full flex-shrink-0"><path d="M12 7C11.0111 7 10.0444 7.29325 9.22215 7.84265C8.3999 8.39206 7.75904 9.17295 7.3806 10.0866C7.00216 11.0002 6.90315 12.0055 7.09607 12.9755C7.289 13.9454 7.7652 14.8363 8.46447 15.5355C9.16373 16.2348 10.0546 16.711 11.0245 16.9039C11.9945 17.0969 12.9998 16.9978 13.9134 16.6194C14.827 16.241 15.6079 15.6001 16.1573 14.7779C16.7068 13.9556 17 12.9889 17 12C17 10.6739 16.4732 9.40215 15.5355 8.46447C14.5979 7.52678 13.3261 7 12 7ZM11.9993 14.5C11.5051 14.4999 11.022 14.3533 10.6111 14.0787C10.2 13.804 9.87952 13.4135 9.6903 12.9567C9.50108 12.4999 9.45157 11.9972 9.54804 11.5123C9.6445 11.0273 9.8826 10.5819 10.2322 10.2322C10.5819 9.8826 11.0273 9.6445 11.5123 9.54804C11.9972 9.45157 12.4999 9.50108 12.9567 9.6903C13.4135 9.87952 13.804 10.2 14.0787 10.6111C14.3533 11.022 14.4999 11.5051 14.5 11.9993C14.4977 12.6618 14.2335 13.2966 13.765 13.765C13.2966 14.2335 12.6618 14.4977 11.9993 14.5ZM16.125 2.125H7.875C6.35001 2.125 4.88747 2.7308 3.80914 3.80914C2.7308 4.88747 2.125 6.35001 2.125 7.875V16.125C2.125 17.65 2.7308 19.1125 3.80914 20.1909C4.88747 21.2692 6.35001 21.875 7.875 21.875H16.125C17.65 21.875 19.1125 21.2692 20.1909 20.1909C21.2692 19.1125 21.875 17.65 21.875 16.125V7.875C21.875 6.35001 21.2692 4.88747 20.1909 3.80914C19.1125 2.7308 17.65 2.125 16.125 2.125ZM19.375 16.125C19.375 16.5518 19.2909 16.9744 19.1276 17.3687C18.9643 17.763 18.7249 18.1213 18.4231 18.4231C18.1213 18.7249 17.763 18.9643 17.3687 19.1276C16.9744 19.2909 16.5518 19.375 16.125 19.375H7.875C7.4482 19.375 7.02559 19.2909 6.63128 19.1276C6.23697 18.9643 5.87869 18.7249 5.5769 18.4231C5.27511 18.1213 5.03572 17.763 4.87239 17.3687C4.70906 16.9744 4.625 16.5518 4.625 16.125V7.875C4.625 7.01305 4.96741 6.1864 5.5769 5.5769C6.1864 4.96741 7.01305 4.625 7.875 4.625H16.125C16.5518 4.625 16.9744 4.70906 17.3687 4.87239C17.763 5.03572 18.1213 5.27511 18.4231 5.5769C18.7249 5.87869 18.9643 6.23697 19.1276 6.63128C19.2909 7.02559 19.375 7.4482 19.375 7.875V16.125ZM18.2261 8.0278C18.4047 7.76057 18.5 7.4464 18.5 7.125C18.5 6.69402 18.3288 6.2807 18.024 5.97595C17.7193 5.6712 17.306 5.5 16.875 5.5C16.5536 5.5 16.2394 5.5953 15.9722 5.77386C15.705 5.95242 15.4967 6.20621 15.3737 6.50314C15.2507 6.80007 15.2185 7.1268 15.2812 7.44202C15.3439 7.75724 15.4987 8.04679 15.726 8.27405C15.9532 8.50131 16.2428 8.65608 16.558 8.71878C16.8732 8.78148 17.1999 8.7493 17.4969 8.6263C17.7938 8.50331 18.0476 8.29503 18.2261 8.0278Z" stroke="url(#paint0_linear_5104_23833)"></path><defs><linearGradient id="paint0_linear_5104_23833" x1="1.90333" y1="3.03163" x2="25.0717" y2="18.2174" gradientUnits="userSpaceOnUse"><stop stop-color="#e1bb64"></stop><stop offset="0.242874" stop-color="#e1bb64"></stop><stop offset="0.515487" stop-color="#d4aa5c"></stop><stop offset="0.729115" stop-color="#c49552"></stop><stop offset="1" stop-color="#ba874b"></stop></linearGradient></defs></svg>