<svg width="25" height="24" viewBox="0 0 25 24" fill="none" xmlns="http://www.w3.org/2000/svg" data-v-48e9fbf7=""><g clip-path="url(#clip0_1_9)"><path d="M7.73895 22.5C16.796 22.5 21.7505 14.9955 21.7505 8.499C21.7505 8.289 21.7505 8.076 21.7415 7.866C22.706 7.16773 23.5385 6.30323 24.2 5.313C23.2989 5.71028 22.3441 5.97211 21.3665 6.09C22.3963 5.47446 23.1675 4.50595 23.537 3.3645C22.5694 3.93769 21.5105 4.34006 20.4065 4.554C19.6642 3.76354 18.6821 3.23988 17.6121 3.06414C16.5421 2.8884 15.444 3.07038 14.488 3.58191C13.5319 4.09343 12.7712 4.90595 12.3236 5.89359C11.8761 6.88124 11.7667 7.9889 12.0125 9.045C10.0546 8.94683 8.13918 8.4382 6.39052 7.55212C4.64186 6.66603 3.09898 5.42227 1.86195 3.9015C1.23396 4.98613 1.04231 6.2691 1.32592 7.4899C1.60953 8.7107 2.34713 9.7778 3.38895 10.4745C2.60826 10.448 1.84473 10.2383 1.15995 9.8625V9.93C1.1613 11.0662 1.55491 12.1671 2.27426 13.0466C2.99361 13.9262 3.99457 14.5303 5.10795 14.757C4.68535 14.8734 4.2488 14.9315 3.81045 14.9295C3.50143 14.9304 3.19302 14.9018 2.88945 14.844C3.20413 15.8221 3.81686 16.6773 4.64182 17.2897C5.46678 17.9022 6.46265 18.2413 7.48995 18.2595C5.74478 19.6302 3.58905 20.3736 1.36995 20.37C0.978932 20.3717 0.588186 20.3491 0.199951 20.3025C2.45222 21.7384 5.0679 22.5008 7.73895 22.5V22.5Z" stroke="url(#paint0_linear_1_9)"></path></g><defs><linearGradient id="paint0_linear_1_9" x1="-0.723783" y1="3.42188" x2="24.9597" y2="24.1399" gradientUnits="userSpaceOnUse"><stop stop-color="#e1bb64"></stop><stop offset="0.242874" stop-color="#e1bb64"></stop><stop offset="0.515487" stop-color="#d4aa5c"></stop><stop offset="0.729115" stop-color="#c49552"></stop><stop offset="1" stop-color="#ba874b"></stop></linearGradient><clipPath id="clip0_1_9"><rect width="24" height="24" fill="white" transform="translate(0.199951)"></rect></clipPath></defs></svg>