<?xml version="1.0" encoding="utf-8"?>
<!-- Generator: Adobe Illustrator 27.7.0, SVG Export Plug-In . SVG Version: 6.00 Build 0)  -->
<svg fill="#fff" version="1.1" id="Layer_1" xmlns="http://www.w3.org/2000/svg" xmlns:xlink="http://www.w3.org/1999/xlink" x="0px" y="0px"
	 viewBox="0 0 31.4 30.6" style="enable-background:new 0 0 31.4 30.6;" xml:space="preserve">
<path d="M6.7,22.3c-0.7-0.5-1.2-0.5-1.6-0.5c-3-0.3-4.6-4.2-3.2-6.6c0.5-1.1,1.5-1.6,2.7-1.5c0.8,0.1,1.5,0,2.3-0.3
	c1.7-0.7,3.6-0.9,5.6-1.1c2.4-0.1,5-0.1,7.4,0c0.7,0,1.2-0.1,1.5-0.8c0.8-1.6,1.6-3.2,2.6-4.7C24,6.4,24.3,6,24.6,5.7
	c0.5-0.5,1.2-0.7,1.9-0.1C27,6,27.2,6.5,26.8,7.2c-0.3,0.4-0.5,0.8-0.7,1.2c-0.8,1.3-1.6,2.7-2.6,4.2c1.7,0.4,1.9,1.9,1.9,3.2
	c0,1.7-0.3,3.6-0.7,5.4c-0.3,1.3-0.3,1.3,1.1,1.5c1.1,0.1,2.1,0.1,3.4,0.1c0.7,0,1.2,0,1.5,0.7c0.4,0.5,0,1.1-0.4,1.6
	c-0.3,0.4-0.5,0.7-0.8,0.9c-2.3,2-5,3.6-8.2,3.9c-4.2,0.4-8.5,0.5-12.6,0c-2.7-0.4-5.4-1.1-7.1-3.4c-0.1-0.1-0.3-0.3-0.4-0.5
	c-0.9-1.3-0.7-2.3,0.8-2.8c0.9-0.4,1.9-0.7,2.8-0.7C5.3,22.5,5.9,22.4,6.7,22.3z M24.4,14.5c-1.1,0.4-2,0.8-3,1.1
	c-2.1,0.4-4.3,0.3-6.4,0.1c-2.8-0.1-5.8-0.4-8.6-0.7c-0.1,0.1-0.1,0.3-0.1,0.4s0,0.3,0,0.5c-0.1,2.6,0.7,4.7,1.6,7
	c0.8,1.9,1.7,2.8,3.9,2.8c3,0,5.9-0.1,8.9-0.3c0.9,0,1.5-0.4,2-1.2C24.2,21.2,24.6,18,24.4,14.5z M28.4,25.3c-2.4,0.1-4.7,0.5-7,0.8
	c-5.6,0.4-11.1,0.5-16.7-0.4c-0.8-0.1-1.6-0.3-2.6,0c0.7,0.9,1.3,1.6,2.3,1.9c1.3,0.5,2.8,0.9,4.3,1.2c3.6,0.5,7.1,0.3,10.7,0.1
	C22.9,28.8,25.9,27.8,28.4,25.3z M7.2,14.1c0.9,0.4,1.6,0.5,2.3,0.4c0.7-0.3,1.5-0.3,2.1-0.3c2.3-0.1,4.6-0.3,6.9,0
	c0.8,0,1.5,0,1.6-1.1C15.8,12.9,11.7,12.7,7.2,14.1z M5.9,20.8c0-0.4-0.1-0.5-0.3-0.5c-1.5-0.3-2-1.3-2.1-2.6
	c-0.1-1.2,0.4-2,1.6-2.3c0.1,0,0.3-0.1,0.3-0.4c0-0.3-0.1-0.4-0.3-0.5c-0.8-0.4-1.9,0-2.4,0.7C2,16.5,2,17.7,2.8,19
	C3.5,20.4,4.5,21,5.9,20.8z M29.5,23.9c0-0.1,0-0.3,0-0.4c-1.1-0.1-2.1-0.3-3.2-0.4c-2.6-0.4-1.7-0.4-2.8,1.6c0,0.1,0,0.3,0,0.5
	C25.4,24.7,27.5,24.8,29.5,23.9z M7.9,25.3c-0.9-2.7-0.8-2.3-2.8-2c-0.3,0-0.7,0-0.9,0c-0.8,0.1-1.6,0.3-2.6,0.9
	C3.9,24.8,5.9,25.1,7.9,25.3z M20.4,14.7c0.7,0.1,0.8-0.3,0.9-0.5c0.7-1.1,1.3-2.1,2-3.2c0.8-1.2,1.6-2.4,2.3-3.8
	c0.3-0.4,0.7-0.9,0-1.2c-0.5-0.3-0.8,0.3-1.1,0.7c-0.4,0.7-0.8,1.5-1.2,2.3C22.4,10.8,21.5,12.7,20.4,14.7z M5.6,19.3
	c0.1-0.7,0-1.2,0-1.9c0-0.3-0.1-0.4-0.1-0.7s-0.1-0.4-0.4-0.4c-0.3,0-0.5,0.1-0.7,0.4C4,17.6,4.4,18.8,5.6,19.3z M23.7,13.5
	c-0.1-0.1-0.3-0.1-0.4-0.3c-0.4-0.1-0.5,0-0.7,0.4c-0.1,0.1-0.1,0.4,0.1,0.4C23.1,14.2,23.3,13.9,23.7,13.5z"/>
<path d="M16.9,1.8c-0.7,1.1-0.8,2.3,0,3.4c0.5,0.7,0.5,1.5,0.4,2.3c0,0.3-0.1,0.5-0.5,0.5s-0.4-0.3-0.4-0.5c0-0.1,0-0.3,0.1-0.3
	c0.1-0.8-0.3-1.3-0.7-1.9C15,4,15.6,1.4,16.9,0.5"/>
<path d="M14.3,2.1c-1.1,1.5-1.1,1.7,0,3.2c0.8,0.9,0.8,1.9,0.8,3c0,0.1,0,0.3-0.1,0.4C14.9,9,14.7,9.1,14.5,9
	c-0.3,0-0.3-0.3-0.3-0.5c0-0.3,0.1-0.4,0.1-0.7c0.1-0.9-0.4-1.7-0.9-2.4c-1.1-1.2-0.7-2.6,0-3.5"/>
</svg>
