<?xml version="1.0" encoding="utf-8"?>
<!-- Generator: Adobe Illustrator 27.7.0, SVG Export Plug-In . SVG Version: 6.00 Build 0)  -->
<svg fill="#fff" version="1.1" id="Layer_1" xmlns="http://www.w3.org/2000/svg" xmlns:xlink="http://www.w3.org/1999/xlink" x="0px" y="0px"
	 viewBox="0 0 33.7 25.7" style="enable-background:new 0 0 33.7 25.7;" xml:space="preserve">
<path d="M3.3,24.9h27c1.6,0,2.7-1.3,2.9-2.9V7.2c0-1.6-1.3-2.7-2.9-2.9H14.3c0.7-0.5,1.3-1,1.8-1.7c0.5-0.7,1.4-1,2.4-1h4.7
	c0.9,0,1.7,0.4,2.4,1c0.3,0.3,0.5,0.5,0.8,0.8c0.1,0.1,0.4,0.1,0.5,0s0.1-0.4,0-0.5l0,0c-0.3-0.3-0.5-0.5-0.8-0.8
	c-0.8-0.8-1.8-1.3-2.9-1.3h-4.7c-1.2,0-2.2,0.5-2.9,1.3C15,2.7,14.1,3.6,13,4.3h-1.7c-0.3,0-0.4,0.3-0.4,0.4c0,0.3,0.1,0.4,0.4,0.4
	h19.1c1.2,0,2,0.9,2,2v15c0,1.2-0.9,2-2,2H9.6V4.8c0-0.3-0.1-0.4-0.4-0.4H4.1V3.8c0-0.3,0.3-0.5,0.5-0.5H6c0.3,0,0.4,0.1,0.4,0.4
	S6.7,4,6.9,3.9c0.3,0,0.3-0.3,0.3-0.5C7.1,3,6.6,2.6,5.9,2.6H4.5c-0.7,0-1.3,0.5-1.3,1.3v0.5c-1.6,0-2.7,1.3-2.7,2.9v15
	C0.4,23.8,1.7,24.9,3.3,24.9L3.3,24.9z M1.2,7.2c0-1.2,0.9-2,2-2h5.5v18.9H3.3c-1.2,0-2-0.9-2-2L1.2,7.2L1.2,7.2z"/>
<path d="M31.4,7.6c0-0.8-0.7-1.4-1.4-1.4s-1.4,0.7-1.4,1.4S29.1,9,29.9,9l0,0C30.7,9.1,31.4,8.3,31.4,7.6z M29.1,7.6
	c0-0.4,0.3-0.7,0.7-0.7s0.7,0.3,0.7,0.7c0,0.4-0.3,0.7-0.7,0.7S29.1,8,29.1,7.6L29.1,7.6L29.1,7.6z"/>
<path d="M15.8,8.9L16,8.7c0.1-0.1,0.3-0.4,0.1-0.5C16,8.1,15.7,8,15.6,8.1l0,0l-0.1,0.1c-0.1,0.1-0.1,0.4,0,0.5
	C15.4,9,15.7,9,15.8,8.9L15.8,8.9L15.8,8.9z"/>
<path d="M14.6,9.4c-0.1-0.1-0.4-0.1-0.5,0c-2.9,3.5-2.4,8.9,1.3,11.8s8.9,2.4,11.8-1.3c2.9-3.5,2.4-8.9-1.3-11.8
	c-2.6-2.1-6.1-2.4-9.1-0.9c-0.3,0.1-0.3,0.4-0.1,0.5C16.7,8,17,8,17.1,7.8l0,0c3.7-2,8.2-0.5,10.2,3.1s0.5,8.2-3.1,10.2
	S16,21.7,14,18c-0.5-1-0.9-2.4-0.9-3.5c0-1.7,0.5-3.4,1.7-4.7C14.9,9.8,14.9,9.5,14.6,9.4L14.6,9.4L14.6,9.4z"/>
<path d="M20.7,21c3.5,0,6.3-2.9,6.3-6.3s-2.9-6.3-6.3-6.3s-6.3,2.9-6.3,6.3l0,0C14.4,18.1,17.1,21,20.7,21z M20.7,9.3
	c3,0,5.5,2.5,5.5,5.5s-2.5,5.5-5.5,5.5s-5.5-2.5-5.5-5.5l0,0C15.2,11.6,17.7,9.3,20.7,9.3L20.7,9.3z"/>
<path d="M16.7,14.9c0.5,1.2,1.6,2.6,3.8,3.3h0.1h0.1c0.3-0.1,0.5-0.1,0.8-0.3s0.3-0.3,0.3-0.5c-0.1-0.3-0.3-0.3-0.5-0.3
	c-0.3,0.1-0.4,0.1-0.7,0.3c-1.8-0.5-2.7-1.8-3.1-2.7c-0.3-0.7,0-1.2,0.3-1.4c0.4-0.3,0.9-0.5,1.4-0.1c0.4,0.3,0.8,0.5,1,0.9
	c0.1,0.1,0.3,0.1,0.4,0.1l0,0c0.1,0,0.3-0.1,0.4-0.1c0.3-0.4,0.7-0.7,1-0.9c0.7-0.3,1.2-0.1,1.4,0.1c0.4,0.3,0.7,0.9,0.3,1.4
	c-0.1,0.1-0.1,0.3-0.3,0.4c-0.1,0.3,0,0.4,0.1,0.5s0.4,0,0.5-0.1s0.1-0.3,0.3-0.5c0.5-1,0-2.4-1-2.7c-0.7-0.3-1.3-0.3-1.8,0
	c-0.4,0.3-0.7,0.5-0.9,0.8c-0.3-0.3-0.7-0.5-0.9-0.8c-1-0.5-2.4-0.1-2.9,0.9C16.5,13.7,16.5,14.4,16.7,14.9L16.7,14.9L16.7,14.9z"/>
<path d="M22.6,16.2L22.6,16.2c-0.3,0.3-0.3,0.5-0.1,0.7s0.4,0.1,0.5,0c0,0,0,0,0.1-0.1s0.1-0.4,0-0.5S22.9,16,22.6,16.2L22.6,16.2
	L22.6,16.2z"/>
</svg>
