<?xml version="1.0" encoding="utf-8"?>
<!-- Generator: Adobe Illustrator 27.7.0, SVG Export Plug-In . SVG Version: 6.00 Build 0)  -->
<svg fill="#fff" version="1.1" id="Layer_1" xmlns="http://www.w3.org/2000/svg" xmlns:xlink="http://www.w3.org/1999/xlink" x="0px" y="0px"
	 viewBox="0 0 60 75" style="enable-background:new 0 0 60 75;" xml:space="preserve">
<path d="M56.5,33.9c0,0-1.6,0.4-3.3-0.9c-1.7-1.3-3.8-4.5-4.1-12.5c0-0.3,0.4-8.1-4.8-13.6C41,3.5,36.4,1.7,30.6,1.7
	c-5.8,0-10.4,1.8-13.7,5.2c-5.2,5.5-4.8,13.2-4.8,13.4C11.8,28.4,9.7,31.6,8,32.9c-1.7,1.3-3.3,0.9-3.4,0.9c-0.5-0.1-1,0-1.4,0.4
	c-0.4,0.3-0.5,0.9-0.4,1.3c1.1,5,5.1,8.2,8.2,10c-4.3,2-7.3,6.3-7.3,11.4v9c0,0.5,0.2,0.9,0.7,1.2c6.8,4.4,16.9,6.6,26.7,6.6
	c9.9,0,19.6-2.2,25.7-6.6c0.4-0.3,0.6-0.7,0.6-1.2v-9c0-5.1-3-9.4-7.3-11.4c3.1-1.8,7.1-5,8.2-10c0.1-0.5,0-1-0.4-1.3
	C57.5,33.9,57,33.7,56.5,33.9z M54.5,56.9v8.3c-11.3,7.6-35.3,7.5-47.9,0v-8.2c0-5.3,4.3-9.6,9.6-9.6h4.4c4,2.6,7.7,3.5,10.7,3.5
	c3.1,0,5.6-0.9,7.2-1.8c0.7-0.4,1.8-1,2.5-1.7h3.9C50.2,47.3,54.5,51.6,54.5,56.9z M45.8,44.4c-0.3,0-0.6,0-0.9,0h-4.5c0,0,0,0,0,0
	c0,0,0,0,0,0c-0.2,0-0.3,0-0.5,0.1c0,0,0,0-0.1,0c-0.2,0.1-0.3,0.2-0.4,0.3c0,0,0,0,0,0c-0.1,0.1-0.1,0.1-0.2,0.2
	c-0.5,0.5-7.2,6.4-17.3-0.4c0,0-0.1,0-0.1-0.1c-0.1,0-0.2-0.1-0.2-0.1c-0.1,0-0.2-0.1-0.3-0.1c0,0-0.1,0-0.1,0h-4.8
	c-0.3,0-0.6,0-0.9,0c-1.2-0.5-7-2.9-9.1-7.7c1-0.1,2.2-0.5,3.4-1.4c3.2-2.4,5-7.4,5.3-15c0-0.1-0.3-6.8,4-11.4
	c2.7-2.8,6.6-4.3,11.6-4.3c5,0,8.9,1.5,11.6,4.3c4.3,4.6,4.1,11.4,4.1,11.6c0.3,7.4,2,12.4,5.3,14.9c1.2,0.9,2.4,1.3,3.4,1.4
	C52.7,41.5,47,44,45.8,44.4z"/>
<path d="M29.2,17.9c-0.1,0-6.4,0.4-8-2.6c-0.3-0.5-0.8-0.8-1.4-0.8c-0.6,0.1-1.1,0.5-1.2,1.1c-0.2,0.6-4,15.3,1.8,23.7
	c2.3,3.3,5.7,5.1,10,5.5c0,0,0.3,0,0.8,0c1.4,0,4.3-0.3,7.2-2.6c3.7-3,6-8.1,6.7-15.3c0-0.2,0-0.5-0.1-0.7
	C44.9,26.2,41.1,16.9,29.2,17.9z M36.6,39.9c-2.9,2.3-5.7,2-5.9,2c-3.6-0.3-6.2-1.7-8-4.3C19,32.2,20,23.3,20.8,18.9
	c3.3,2.3,8.4,1.9,8.7,1.9c8.7-0.7,12,4.9,12.7,6.2C41.5,33.2,39.6,37.5,36.6,39.9z"/>
</svg>
