<?xml version="1.0" encoding="utf-8"?>
<!-- Generator: Adobe Illustrator 27.7.0, SVG Export Plug-In . SVG Version: 6.00 Build 0)  -->
<svg fill="#fff" version="1.1" id="Layer_1" xmlns="http://www.w3.org/2000/svg" xmlns:xlink="http://www.w3.org/1999/xlink" x="0px" y="0px"
	 viewBox="0 0 98.4 69.9" style="enable-background:new 0 0 98.4 69.9;" xml:space="preserve">
<g>
	<path d="M4.4,46.9c0-0.3,0-0.4,0-0.7c0-24.6,19.9-44.5,44.5-44.5s44.5,19.9,44.5,44.5c0,0.3,0,0.4,0,0.7h-4.2c0-0.3,0-0.4,0-0.7
		C89.2,24,71.1,5.9,48.9,5.9S8.6,24,8.6,46.2c0,0.3,0,0.4,0,0.7H4.4z"/>
	<path d="M86.6,63.4v-4.2c3.5,0,6.4-2.8,6.4-6.4c0-3.5-2.8-6.4-6.4-6.4v-4.2c5.8,0,10.6,4.8,10.6,10.6S92.5,63.4,86.6,63.4z"/>
	<path d="M77.9,42.7v21.2h5.7V42.7H77.9z M76.4,38.4h8.5c1.6,0,2.8,1.3,2.8,2.8v24c0,1.6-1.3,2.8-2.8,2.8h-8.5
		c-1.6,0-2.8-1.3-2.8-2.8v-24C73.6,39.7,74.9,38.4,76.4,38.4z"/>
	<path d="M11.2,42.2v4.2c-3.5,0-6.4,2.8-6.4,6.4c0,3.5,2.8,6.4,6.4,6.4v4.2c-5.8,0-10.6-4.8-10.6-10.6S5.2,42.2,11.2,42.2z"/>
	<path d="M14.3,42.7v21.2h5.7V42.7H14.3z M12.9,38.4h8.5c1.6,0,2.8,1.3,2.8,2.8v24c0,1.6-1.3,2.8-2.8,2.8h-8.5
		c-1.6,0-2.8-1.3-2.8-2.8v-24C10,39.7,11.3,38.4,12.9,38.4z"/>
</g>
</svg>
