<?xml version="1.0" encoding="utf-8"?>
<!-- Generator: Adobe Illustrator 27.7.0, SVG Export Plug-In . SVG Version: 6.00 Build 0)  -->
<svg fill="#fff" version="1.1" id="Layer_1" xmlns="http://www.w3.org/2000/svg" xmlns:xlink="http://www.w3.org/1999/xlink" x="0px" y="0px"
	 viewBox="0 0 103.8 99.7" style="enable-background:new 0 0 103.8 99.7;" xml:space="preserve">
<path d="M47.3,41L36.5,51c1.7,4.5,1.9,9.3,0.5,13.9c-0.3,1.3-1.7,2.1-3,1.8c-1.3-0.3-2.1-1.7-1.8-3c0-0.1,0-0.1,0-0.2
	c1.1-4,0.8-8.3-1-12c-0.5-1-0.2-2.2,0.6-2.9l12.1-11.2c1.4-1.3,1.5-3.5,0.2-4.9c0,0-0.1-0.1-0.1-0.1c-1.3-1.3-3.3-1.4-4.7-0.2
	l-19,16.1c-1,1-2.5,1-3.5,0.1s-1-2.5-0.1-3.5c0.1-0.1,0.3-0.3,0.4-0.4l19-16.2c3.4-2.9,8.4-2.6,11.5,0.5c3.3,3.3,3.2,8.7-0.1,12
	C47.4,40.9,47.4,41,47.3,41z M39.5,86.8c-1.4,0-2.5,1.1-2.5,2.5s1.1,2.5,2.5,2.5s2.5-1.1,2.5-2.5S40.9,86.8,39.5,86.8z M30.4,26
	c0.2,0,0.4,0,0.5-0.1c6-1.4,10.7-6,12.1-12c0.3-1.4-0.5-2.7-1.9-3c-1.4-0.3-2.7,0.5-3,1.9c-0.9,4.1-4.2,7.4-8.3,8.3
	c-1.3,0.4-2.1,1.8-1.7,3.1C28.4,25.2,29.3,25.9,30.4,26z M87.1,32.8c-5.3,1.8-9.3,6.2-10.6,11.7c-0.3,1.3,0.5,2.7,1.9,3
	s2.7-0.5,3-1.9c0.9-3.8,3.6-6.8,7.3-8c1.3-0.4,2-1.9,1.6-3.2C89.8,33.1,88.4,32.4,87.1,32.8L87.1,32.8z M88.6,20.8
	c-3.7-1.2-6.4-4.2-7.3-8c-0.3-1.3-1.6-2.2-3-1.9s-2.2,1.6-1.9,3c1.2,5.5,5.3,9.9,10.6,11.7c1.3,0.4,2.7-0.3,3.2-1.6
	C90.7,22.7,89.9,21.3,88.6,20.8L88.6,20.8z M93.8,2.4H25.6c-3.4,0-6.2,2.8-6.2,6.2v11.8l-7.3,7.2c-3.7,3.7-5.8,8.8-5.8,14.1v36H4.6
	c-1.4,0-2.5,1.1-2.5,2.5c0,0,0,0,0,0v14.8c0,1.4,1.1,2.5,2.5,2.5s2.5-1.1,2.5-2.5V82.8h41.3v12.3c0,1.4,1.1,2.5,2.5,2.5
	s2.5-1.1,2.5-2.5V80.3c0-1.4-1.1-2.5-2.5-2.5h-3.7v-2.4c4.5-3.3,7.4-8.2,8.1-13.7c0.2-1.4-0.8-2.6-2.2-2.8s-2.6,0.8-2.8,2.2
	c-0.6,4.5-3.1,8.5-7,10.9c-0.7,0.5-1.1,1.3-1.1,2.1v3.8H11.3v-36c0-4,1.6-7.8,4.4-10.5l3.7-3.7v4.9c0,1.4,1.1,2.5,2.5,2.5
	s2.5-1.1,2.5-2.5V8.6c0-0.7,0.5-1.2,1.2-1.2l0,0h68.2c0.7,0,1.2,0.5,1.2,1.2v41.1c0,0.7-0.5,1.2-1.2,1.2H45.1
	c-1.4,0-2.5,1.1-2.5,2.5s1.1,2.5,2.5,2.5h48.8c3.4,0,6.2-2.8,6.2-6.2V8.6C100.1,5.2,97.3,2.4,93.8,2.4L93.8,2.4z M90.9,60
	c-1.3-0.5-2.7,0.2-3.2,1.5c0,0,0,0,0,0l-1.6,4.4c-0.2,0.6-0.9,0.9-1.6,0.7l-21.1-7.7c-1.3-0.5-2.7,0.2-3.2,1.5
	c-0.5,1.3,0.2,2.7,1.5,3.2l21.2,7.7c3.2,1.2,6.8-0.4,8-3.7c0,0,0,0,0,0l1.6-4.4C92.9,61.9,92.2,60.5,90.9,60
	C90.9,60,90.9,60,90.9,60z M78,75.9l-3.2,3.4c-0.2,0.2-0.5,0.4-0.8,0.4c-0.3,0-0.6-0.1-0.9-0.3L60.7,67.7c-1-0.9-2.6-0.9-3.5,0.1
	c-0.9,1-0.9,2.6,0.1,3.5L69.6,83c1.2,1.1,2.7,1.7,4.3,1.7h0.2c1.6,0,3.2-0.7,4.3-1.9l3.2-3.4c0.9-1,0.9-2.6-0.1-3.5
	C80.5,74.9,78.9,74.9,78,75.9C78,75.9,78,75.9,78,75.9z M57.6,35.6c-1.3-0.5-2.7,0.2-3.2,1.5c-0.4,1.2,0.2,2.6,1.4,3.1
	c6.1,2.3,13-0.7,15.3-6.9c2.3-6.1-0.7-13-6.9-15.3c-4.9-1.9-10.5-0.3-13.7,3.9c-0.8,1.1-0.6,2.7,0.5,3.5s2.7,0.6,3.5-0.5
	c2.3-3,6.6-3.6,9.6-1.3c3,2.3,3.6,6.6,1.3,9.6C63.6,35.8,60.4,36.7,57.6,35.6L57.6,35.6z M74.4,29.2c0,1.4,1.1,2.5,2.5,2.5h3.6
	c1.4,0,2.5-1.1,2.5-2.5s-1.1-2.5-2.5-2.5h-3.6C75.5,26.7,74.4,27.8,74.4,29.2C74.4,29.2,74.4,29.2,74.4,29.2z"/>
</svg>
