<?xml version="1.0" encoding="utf-8"?>
<!-- Generator: Adobe Illustrator 27.7.0, SVG Export Plug-In . SVG Version: 6.00 Build 0)  -->
<svg fill="#fff" version="1.1" id="Layer_1" xmlns="http://www.w3.org/2000/svg" xmlns:xlink="http://www.w3.org/1999/xlink" x="0px" y="0px"
	 viewBox="0 0 72.3 56.8" style="enable-background:new 0 0 72.3 56.8;" xml:space="preserve">
<g>
	<g>
		<path d="M55.8,12.3c0,0.6-0.2,1.1-0.5,1.5c-0.6,0.7-0.9,1.7-0.9,2.6h1.9c0-0.6,0.2-1.1,0.5-1.5c0.6-0.7,0.9-1.7,0.9-2.6
			c0-1-0.3-1.9-0.9-2.6c-0.4-0.4-0.6-1-0.5-1.5c0-0.6,0.2-1.1,0.5-1.5c0.6-0.7,0.9-1.7,0.9-2.6h-1.9c0,0.6-0.2,1.1-0.6,1.5
			c-0.6,0.7-0.9,1.7-0.9,2.6c0,1,0.3,1.9,0.9,2.6C55.6,11.2,55.8,11.7,55.8,12.3z"/>
		<path d="M61.2,15.1h1.9c0-0.6,0.2-1.2,0.6-1.7c0.6-0.8,0.9-1.8,0.9-2.8c0-1-0.3-2-0.9-2.8c-0.4-0.5-0.6-1.1-0.6-1.7
			c0-0.6,0.2-1.2,0.6-1.7c0.6-0.8,0.9-1.8,0.9-2.8h-1.9c0,0.6-0.2,1.2-0.6,1.7c-0.6,0.8-0.9,1.8-0.9,2.8c0,1,0.3,2,0.9,2.8
			c0.4,0.5,0.6,1.1,0.6,1.7c0,0.6-0.2,1.2-0.6,1.7C61.5,13.1,61.2,14.1,61.2,15.1z"/>
		<path d="M11.9,39.9l1.9,0.2c1.2-9.3,6-15.8,14.5-19.4l-0.8-1.8C18.5,22.8,13.1,30,11.9,39.9z"/>
		<path d="M70.3,43.9c-0.3-0.6-1-1-1.6-1h-5.3c0.3-0.6,0.5-1.2,0.5-1.9c0-14.1-10.9-25.8-24.9-26.8v-2h6.7V9.3
			c0-1.6-1.3-2.9-2.9-2.9H29.3c-1.6,0-2.9,1.3-2.9,2.9v2.9h6.7v2c-14,1-24.9,12.7-24.9,26.8c0,0.7,0.2,1.3,0.5,1.9H3.4
			c-0.7,0-1.3,0.4-1.6,1c-0.3,0.6-0.4,1.3-0.1,1.9l4.8,6.6c1,1.9,3,3.1,5.2,3.1h48.7c2.2,0,4.2-1.2,5.2-3.1l4.7-6.5l0.1-0.1
			C70.6,45.1,70.6,44.4,70.3,43.9z M28.3,10.3v-1c0-0.5,0.4-1,1-1h13.4c0.5,0,1,0.4,1,1v1H37v3.8H35v-3.8H28.3z M10.1,41
			c0-13.8,11.2-24.9,24.9-24.9H37c13.8,0,24.9,11.2,24.9,24.9c0,1.1-0.9,1.9-1.9,1.9H12C11,42.9,10.1,42.1,10.1,41z M63.9,51.2
			l-0.1,0.1c-0.7,1.3-2,2.1-3.5,2.1H11.7c-1.5,0-2.8-0.8-3.5-2.1l-4.8-6.5h65.2L63.9,51.2z"/>
	</g>
</g>
</svg>
