<?xml version="1.0" encoding="utf-8"?>
<!-- Generator: Adobe Illustrator 27.7.0, SVG Export Plug-In . SVG Version: 6.00 Build 0)  -->
<svg fill="#fff" version="1.1" id="Layer_1" xmlns="http://www.w3.org/2000/svg" xmlns:xlink="http://www.w3.org/1999/xlink" x="0px" y="0px"
	 viewBox="0 0 32.9 29.7" style="enable-background:new 0 0 32.9 29.7;" xml:space="preserve">
<g>
	<path d="M11.1,11.3h10.6c0.2,0,0.5-0.2,0.5-0.5V8.9c0-0.2-0.2-0.5-0.5-0.5H11.1c-0.2,0-0.5,0.2-0.5,0.5v1.9
		C10.6,11.1,10.8,11.3,11.1,11.3z M11.6,9.5h9.7v1h-9.7V9.5z"/>
	<path d="M11.1,16.1h10.6c0.2,0,0.5-0.2,0.5-0.5v-1.9c0-0.2-0.2-0.5-0.5-0.5H11.1c-0.2,0-0.5,0.2-0.5,0.5v1.9
		C10.6,15.9,10.8,16.1,11.1,16.1z M11.6,14.2h9.7v1h-9.7V14.2z"/>
	<path d="M11.1,20.7h10.6c0.2,0,0.5-0.2,0.5-0.5v-1.9c0-0.2-0.2-0.5-0.5-0.5H11.1c-0.2,0-0.5,0.2-0.5,0.5v1.9
		C10.6,20.5,10.8,20.7,11.1,20.7z M11.6,18.8h9.7v1h-9.7V18.8z"/>
	<path d="M29.6,14.3l-5-2.7V6.6c0-0.2-0.2-0.5-0.5-0.5H8.8c-0.2,0-0.5,0.2-0.5,0.5v5.1l-5,2.7c-0.1,0.1-0.2,0.2-0.2,0.4v14.1
		c0,0.2,0.2,0.5,0.5,0.5c10.8,0,8.7,0,15.6,0c3.6,0,6.5,0,10.3,0c0.2,0,0.5-0.2,0.5-0.5v-14C29.8,14.6,29.7,14.4,29.6,14.3z
		 M8.3,28.5H4V15l4.2-2.3C8.3,12.7,8.3,28.5,8.3,28.5z M14.8,28.5V25c0-1.1,0.8-1.9,1.9-1.9c1.1,0,1.9,0.8,1.9,1.9v3.5H14.8z
		 M23.7,28.5h-4.1V25c0-1.6-1.3-2.8-2.8-2.8c-1.6,0-2.8,1.3-2.8,2.8v3.5H9.3V7.1h14.5v21.4H23.7z M28.9,28.5h-4.2V12.7l4.2,2.3V28.5
		z"/>
	<path d="M26.3,20h1c0.2,0,0.5-0.2,0.5-0.5S27.5,19,27.3,19h-1c-0.2,0-0.5,0.2-0.5,0.5S26.1,20,26.3,20z"/>
	<path d="M26.1,16.3l1,0.6c0.1,0,0.1,0.1,0.2,0.1s0.2-0.1,0.4-0.2c0.1-0.2,0.1-0.5-0.1-0.6l-1-0.6c-0.2-0.1-0.5-0.1-0.6,0.1
		C25.7,15.8,25.8,16,26.1,16.3z"/>
	<path d="M26.3,23.5h1c0.2,0,0.5-0.2,0.5-0.5s-0.2-0.5-0.5-0.5h-1c-0.2,0-0.5,0.2-0.5,0.5S26.1,23.5,26.3,23.5z"/>
	<path d="M26.3,27h1c0.2,0,0.5-0.2,0.5-0.5c0-0.2-0.2-0.5-0.5-0.5h-1c-0.2,0-0.5,0.2-0.5,0.5S26.1,27,26.3,27z"/>
	<path d="M5.6,20h1c0.2,0,0.5-0.2,0.5-0.5S6.9,19,6.6,19h-1c-0.2,0-0.5,0.2-0.5,0.5S5.4,20,5.6,20z"/>
	<path d="M5.6,16.9c0.1,0,0.2,0,0.2-0.1l1-0.6C7.1,16,7.1,15.7,7,15.5c-0.1-0.2-0.5-0.2-0.6-0.1l-1,0.6c-0.2,0.1-0.2,0.5-0.1,0.6
		C5.4,16.9,5.5,16.9,5.6,16.9z"/>
	<path d="M5.6,23.5h1c0.2,0,0.5-0.2,0.5-0.5s-0.2-0.5-0.5-0.5h-1c-0.2,0-0.5,0.2-0.5,0.5S5.4,23.5,5.6,23.5z"/>
	<path d="M5.6,27h1c0.2,0,0.5-0.2,0.5-0.5c0-0.2-0.2-0.5-0.5-0.5h-1c-0.2,0-0.5,0.2-0.5,0.5S5.4,27,5.6,27z"/>
	<path d="M31.8,0.4h-6.2c-0.2,0-0.5,0.2-0.5,0.5v3.6c0,1.8,1.3,3.3,3,3.5v2.7h-1.7c-0.2,0-0.5,0.2-0.5,0.5s0.2,0.5,0.5,0.5h4.4
		c0.2,0,0.5-0.2,0.5-0.5s-0.2-0.5-0.5-0.5h-1.7V8c1.7-0.2,3-1.7,3-3.5V0.9C32.2,0.7,32.1,0.4,31.8,0.4z M31.3,1.4v1.7
		c-2.4-0.2-3.9,0.7-5.1,0.2V1.4H31.3z M28.7,7.1c-1.5,0-2.5-1.2-2.5-2.5V4.4c1.6,0.4,2.8-0.5,5.2-0.2v0.4C31.3,6,30.2,7.1,28.7,7.1z
		"/>
	<path d="M6.4,11.5c0.2,0,0.5-0.2,0.5-0.5s-0.2-0.5-0.5-0.5H4.7V7.9c1.7-0.2,3-1.7,3-3.5V0.9c0-0.2-0.2-0.5-0.5-0.5h-6
		c-0.2,0-0.5,0.2-0.5,0.5v3.6c0,1.8,1.3,3.3,3,3.5v2.7H2c-0.2,0-0.5,0.2-0.5,0.5s0.2,0.5,0.5,0.5L6.4,11.5L6.4,11.5z M6.7,1.4v1.7
		C4.3,2.8,2.9,3.8,1.5,3.3V1.4H6.7z M1.5,4.5V4.3C3.2,4.6,4.3,3.8,6.7,4v0.4c0,1.5-1.2,2.5-2.5,2.5S1.5,6,1.5,4.5z"/>
</g>
</svg>
