<?xml version="1.0" encoding="utf-8"?>
<!-- Generator: Adobe Illustrator 27.7.0, SVG Export Plug-In . SVG Version: 6.00 Build 0)  -->
<svg fill="#fff" version="1.1" id="Layer_1" xmlns="http://www.w3.org/2000/svg" xmlns:xlink="http://www.w3.org/1999/xlink" x="0px" y="0px"
	 viewBox="0 0 88.9 96.4" style="enable-background:new 0 0 88.9 96.4;" xml:space="preserve">
<path d="M20.7,69.4L20.7,69.4c5,0,9,2.7,9.7,6.8c0.9,5.2-3.7,10.8-10.2,12.3c-1.1,0.2-2.2,0.4-3.3,0.4c-5,0-9-2.7-9.7-6.8
	C6.3,76.9,11,71.3,17.5,69.8C18.5,69.6,19.6,69.4,20.7,69.4 M20.7,64c-1.5,0-3,0.2-4.5,0.5C6.9,66.7,0.5,75,2,83
	C3.2,89.8,9.5,94.2,17,94.2c1.5,0,3-0.2,4.5-0.6c9.4-2.1,15.7-10.4,14.3-18.5C34.6,68.5,28.2,64,20.7,64z"/>
<path d="M32.6,78.8c-1.5,0-2.7-1.2-2.7-2.7V17c0-1.5,1.2-2.7,2.7-2.7c1.5,0,2.7,1.2,2.7,2.7v59.1C35.3,77.6,34.1,78.8,32.6,78.8z"/>
<path d="M71.8,58.8L71.8,58.8c5,0,9,2.8,9.7,6.8c0.9,5.2-3.7,10.8-10.2,12.3c-1.1,0.3-2.2,0.4-3.3,0.4c-5,0-9-2.7-9.7-6.8
	c-0.9-5.2,3.7-10.8,10.2-12.3C69.6,59,70.7,58.8,71.8,58.8 M71.8,53.4c-1.5,0-3,0.2-4.4,0.5C57.9,56.1,51.6,64.4,53,72.5
	c1.2,6.8,7.6,11.2,15.1,11.2c1.5,0,3-0.2,4.5-0.5c9.3-2.2,15.7-10.4,14.3-18.5C85.7,57.9,79.3,53.4,71.8,53.4z"/>
<path d="M83.6,66.7c-1.5,0-2.7-1.2-2.7-2.7V4.9c0-1.5,1.2-2.7,2.7-2.7s2.7,1.2,2.7,2.7v59.1C86.3,65.4,85.1,66.7,83.6,66.7z"/>
<path d="M32.6,33c-0.6,0-1.2-0.2-1.7-0.6c-0.7-0.5-1.1-1.3-1.1-2.1V17c0-1.2,0.8-2.3,2-2.6L83,1.2c0.8-0.2,1.7,0,2.3,0.5
	c0.6,0.5,1,1.3,1,2.1V17c0,1.2-0.8,2.3-2,2.6L33.2,32.9C33,32.9,32.8,33,32.6,33z M35.3,19.1v7.7l45.6-11.8V7.3L35.3,19.1z"/>
</svg>
