<?xml version="1.0" encoding="utf-8"?>
<!-- Generator: Adobe Illustrator 27.7.0, SVG Export Plug-In . SVG Version: 6.00 Build 0)  -->
<svg  version="1.1" id="Layer_1" xmlns="http://www.w3.org/2000/svg" xmlns:xlink="http://www.w3.org/1999/xlink" x="0px" y="0px"
	 viewBox="0 0 58.7 65.1" style="enable-background:new 0 0 58.7 65.1;" xml:space="preserve">
<g>
	<g>
		<path d="M57.3,5.3l-2.9-2.9c-0.2-0.2-0.5-0.3-0.8-0.3c-0.2,0-0.5,0.1-0.6,0.3l-0.9-1c-0.4-0.4-1-0.5-1.4-0.1
			c-0.4,0.4-0.5,1-0.1,1.4L51.7,4l-1.5,2.1l-0.9-1c-0.4-0.4-1-0.5-1.4-0.1c-0.4,0.4-0.5,1-0.1,1.4L49,7.8L47.4,10l-0.9-1
			c-0.4-0.4-1-0.5-1.4-0.1c-0.4,0.4-0.5,1-0.1,1.4l1.2,1.3L28.6,29.1c-1-1.6-1.6-3.3-0.5-5.5c0.8-1.4,0.9-2.6,0.3-3.5
			c-0.4-0.7-1.1-1-2.1-1c-1.1,0-2.3,0.5-3.5,1.3c-3.9,2.9-4.6,5.9-5.4,9.3c-0.1,0.5-0.2,0.9-0.4,1.4L17,31.7
			c-0.5,2.1-0.8,3.3-3.1,3.6c-5.5,0.5-10.2,4.1-12,9.1c-1.7,4.9-0.4,10,3.7,14.1c3,3,6.4,4.5,9.9,4.5c6.5,0,12.1-5.5,13.3-13
			c0.7-3.5,2.4-3.7,4.7-4c1.8-0.3,3.8-0.5,5.4-2.5c1.2-1.6,1.5-3.3,0.9-4.4c-0.2-0.5-0.9-1.3-2.4-1.3c-0.6,0-1.3,0.1-2.1,0.4
			c-1.1,0.4-2,0.2-3.1-0.8l20-20l2.7-0.9c0.3-0.1,0.6-0.4,0.7-0.7l2-9.5C57.6,5.9,57.5,5.5,57.3,5.3z M44.2,22.6l-3.1-3.1l1.9-1.9
			l3.1,3.1L44.2,22.6z M40.9,25.9l-3.1-3.1l1.9-1.9l3.1,3.1L40.9,25.9z M37.6,29.2l-3.1-3.1l1.9-1.9l3.1,3.1L37.6,29.2z M34.3,32.5
			l-3.1-3.1l1.9-1.9l3.1,3.1L34.3,32.5z M23.2,37.4l3.1,3.1l-1.8,1.8l-3.1-3.1L23.2,37.4z M27.7,39.1L24.6,36l1.9-1.9l3.1,3.1
			L27.7,39.1z M36,40c0.5-0.2,1-0.3,1.4-0.3c0.2,0,0.5,0,0.6,0.2c0.2,0.3,0,1.3-0.7,2.3c-1,1.3-2.4,1.5-4,1.7
			c-2.4,0.3-5.3,0.8-6.3,5.7C25.8,56.2,21,61,15.5,61c-3,0-5.9-1.4-8.5-4c-3.5-3.5-4.7-7.9-3.2-12c1.5-4.3,5.6-7.3,10.4-7.8
			c3.7-0.5,4.3-3,4.8-5.1l0.1-0.5c0.1-0.5,0.2-1,0.4-1.5c0.8-3.3,1.4-5.7,4.6-8.2c1-0.7,1.8-0.9,2.3-0.9c0.3,0,0.4,0.1,0.4,0.1
			c0.1,0.1,0.1,0.6-0.4,1.5c-1.7,3.5-0.3,6.2,0.9,7.9l-8,8c-0.2,0.2-0.3,0.4-0.3,0.7s0.1,0.5,0.3,0.7l4.5,4.5
			c0.2,0.2,0.5,0.3,0.7,0.3s0.5-0.1,0.7-0.3l5.7-5.7C32.6,40.3,34.3,40.6,36,40z M31,35.8l-3.1-3.1l1.9-1.9l3.1,3.1L31,35.8z
			 M47.5,19.3l-3.1-3.1l2.9-2.9l3.1,3.1L47.5,19.3z M53.8,14.7L52,15.3l-3.4-3.4l5.3-7.3l1.7,1.7L53.8,14.7z"/>
		<path d="M17.2,52.9l-6.5-6.5c-0.4-0.4-1-0.4-1.4,0s-0.4,1,0,1.4l6.5,6.5c0.2,0.2,0.5,0.3,0.7,0.3s0.5-0.1,0.7-0.3
			C17.6,53.9,17.6,53.3,17.2,52.9z"/>
		<path d="M14.1,43.2c-0.4-0.4-1-0.4-1.4,0s-0.4,1,0,1.4l6.5,6.5c0.2,0.2,0.5,0.3,0.7,0.3s0.5-0.1,0.7-0.3c0.4-0.4,0.4-1,0-1.4
			L14.1,43.2z"/>
		<path d="M21.7,53.1c-0.4,0.4-0.4,1,0,1.4c0.2,0.2,0.5,0.3,0.7,0.3s0.5-0.1,0.7-0.3l0,0c0.4-0.4,0.4-1,0-1.4S22.1,52.7,21.7,53.1z"
			/>
		<path d="M17.1,56.6c-0.4,0.4-0.4,1,0,1.4c0.2,0.2,0.5,0.3,0.7,0.3s0.5-0.1,0.7-0.3l0,0c0.4-0.4,0.4-1,0-1.4
			C18.1,56.2,17.5,56.2,17.1,56.6z"/>
	</g>
</g>
</svg>
