<?xml version="1.0" encoding="utf-8"?>
<!-- Generator: Adobe Illustrator 27.7.0, SVG Export Plug-In . SVG Version: 6.00 Build 0)  -->
<svg fill="#fff" version="1.1" id="Layer_1" xmlns="http://www.w3.org/2000/svg" xmlns:xlink="http://www.w3.org/1999/xlink" x="0px" y="0px"
	 viewBox="0 0 507 497" style="enable-background:new 0 0 507 497;" xml:space="preserve">
<style type="text/css">
	.st0{fill-rule:evenodd;clip-rule:evenodd;}
</style>
<path class="st0" d="M412.2,322.5c2-0.2,4-1.1,5.5-2.6l39.3-39.3c4.7-4.7,11.7,2.4,7.1,7.1L424.8,327c-2,2-4.4,3.5-7,4.5v11.8h32.5
	c21,0,38.2-17.2,38.2-38.2v-32.7c0-19.4-15.9-35.4-35.4-35.4s-35.4,15.9-35.4,35.4v7.4l19.2-19.2c4.7-4.7,11.7,2.4,7.1,7.1
	l-25.9,25.9l0,0c-2.3,2.3-6.2,1.8-7.8-1l-16.6-28.8c-3-5.2-8.3-5.7-12.5-3.3l0,0c-4.3,2.5-6.4,7.3-3.4,12.5
	c6.7,11.5,22.6,42.7,27,47.1C406.7,321.9,409.5,322.8,412.2,322.5L412.2,322.5z M212.5,237c6.6,0,6.6,10,0,10h-24.5
	c-6.6,0-6.6-10,0-10H212.5L212.5,237z M217.3,265.5h-29.3c-6.6,0-6.6-10,0-10h36.6c3.3-2.6,7.3-4.3,11.6-4.7v-11.2
	c0-7-5.7-12.7-12.7-12.7h-14.5v0c-1.3,0-2.6-0.5-3.5-1.5l-19.8-19.8v16.3c0,2.8-2.2,5-5,5c-7,0-12.7,5.7-12.7,12.7v25.2
	c0,7,5.7,12.7,12.7,12.7h35.1C215.9,272.9,215.6,269.9,217.3,265.5L217.3,265.5z M275.8,289.7c-6.6,0-6.6-10,0-10h1.2
	c6.6,0,6.6,10,0,10H275.8L275.8,289.7z M259.3,289.7c-6.6,0-6.6-10,0-10h1.2c6.6,0,6.6,10,0,10H259.3L259.3,289.7z M242.9,289.7
	c-6.6,0-6.6-10,0-10h1.2c6.6,0,6.6,10,0,10H242.9L242.9,289.7z M246.2,250.6v-11.1c0-12.5-10.2-22.7-22.7-22.7h-12.4L184.3,190
	c-3.2-3.2-8.6-0.9-8.6,3.5v23.9c-10.2,2.3-17.7,11.4-17.7,22.1v25.2c0,12.5,10.2,22.7,22.7,22.7h35.1v11.1
	c0,12.5,10.2,22.7,22.7,22.7h12.4l26.9,26.9c3.2,3.2,8.6,0.9,8.6-3.5v-23.9c10.2-2.3,17.7-11.4,17.7-22.1v-25.2
	c0-12.5-10.2-22.7-22.7-22.7L246.2,250.6L246.2,250.6z M281.3,260.6c7,0,12.7,5.7,12.7,12.7v25.2c0,7-5.7,12.7-12.7,12.7
	c-2.8,0-5,2.2-5,5v16.3l-19.8-19.8c-1-1-2.3-1.5-3.5-1.5v0h-14.5c-7,0-12.7-5.7-12.7-12.7v-25.2c0-7,5.7-12.7,12.7-12.7L281.3,260.6
	L281.3,260.6z M42.9,287.7c-4.7-4.7,2.4-11.7,7.1-7.1l39.3,39.3c3.6,3.6,9.4,3.6,13,0c4.5-4.5,20.4-35.6,27-47.1
	c6.2-10.8-10-19.6-16-9.2l-16.6,28.8c-1.6,2.9-5.5,3.3-7.8,1l0,0L63,267.6c-4.7-4.7,2.4-11.7,7.1-7.1l19.2,19.2v-7.4
	c0-19.4-15.9-35.4-35.4-35.4s-35.4,15.9-35.4,35.4V305c0,21,17.2,38.2,38.2,38.2h32.5v-11.8c-2.6-0.9-5-2.4-7-4.5L42.9,287.7
	L42.9,287.7z M99.2,268.2v-79.6c0-9.7,7.9-17.6,17.6-17.6h273.4c9.7,0,17.6,7.9,17.6,17.6v79.6l-5.5-9.5c-6-10.5-17.4-12-26.2-6.9
	l0,0c-8.8,5.1-13.1,15.7-7.1,26.1c7.3,12.6,22.9,43.5,28.6,49.2c2.9,2.9,6.4,4.6,10.1,5.3v33.3c0,4.8-2,9.2-5.2,12.4
	c-6,6-12,5.2-19.5,5.2c-7.2-8-16.3-14.2-26.7-17.8c17.4-12.6,19.5-37.8,4.3-53.1c-13.6-13.6-35.8-13.6-49.4,0
	c-15.2,15.2-13.2,40.5,4.3,53.1c-10.3,3.6-19.5,9.8-26.7,17.8h-70.7c-7.2-8-16.3-14.2-26.7-17.8c17.4-12.6,19.5-37.8,4.3-53.1
	c-13.6-13.6-35.8-13.6-49.4,0c-15.2,15.2-13.2,40.5,4.3,53.1c-10.4,3.6-19.5,9.8-26.7,17.8h-7.1c-9.7,0-17.6-7.9-17.6-17.6v-33.3
	c3.7-0.7,7.3-2.4,10.1-5.3c5.7-5.7,21.3-36.6,28.6-49.2c4.6-8,3.2-15.5-1.1-21c-7.7-9.9-24.3-11.7-32.2,1.8L99.2,268.2L99.2,268.2z
	 M89.2,353.2H56.7c-26.5,0-48.2-21.6-48.2-48.2v-32.7c0-16.6,9-31.4,22.8-39.3c-20.8-10.9-25.2-39-8.5-55.7
	c13.6-13.6,35.8-13.6,49.4,0c14.9,14.9,13.3,39.4-3.2,52.3c8,2.8,15,7.9,20.2,14.4v-55.4c0-11.9,7.7-22.3,18.7-26.1v-24.6
	c0-27.3,17.6-51.1,42.7-59.7c-17.4-12.6-19.5-37.8-4.3-53.1c13.6-13.6,35.8-13.6,49.4,0c15.2,15.2,13.2,40.5-4.3,53.1
	c25.1,8.6,42.7,32.5,42.7,59.7v23.1h38.6v-23.1c0-27.3,17.6-51.1,42.7-59.7c-17.4-12.6-19.5-37.8-4.3-53.1
	c13.6-13.6,35.8-13.6,49.4,0c15.2,15.2,13.2,40.5-4.3,53.1c25.1,8.6,42.7,32.5,42.7,59.7v24.6c11,3.8,18.7,14.2,18.7,26.1v55.4
	c5.2-6.5,12.2-11.6,20.2-14.4c-16.5-12.9-18.1-37.4-3.2-52.3c13.6-13.6,35.8-13.6,49.4,0c16.7,16.7,12.3,44.8-8.5,55.7
	c13.8,8,22.8,22.8,22.8,39.3V305c0,26.5-21.6,48.2-48.2,48.2h-32.5v12.4c0,15.1-12.3,27.5-27.4,27.6c5.5,9.4,8.7,20.3,8.7,31.9v32.3
	c0,17-13.8,30.8-30.8,30.8h-64.6c-17,0-30.8-13.8-30.8-30.8v-32.3c0-11.6,3.2-22.6,8.7-31.9h-56.1c5.5,9.4,8.7,20.3,8.7,31.9v32.3
	c0,17-13.8,30.8-30.8,30.8h-64.6c-17,0-30.8-13.8-30.8-30.8v-32.3c0-11.6,3.2-22.6,8.7-31.9c-15.1-0.1-27.4-12.5-27.4-27.6
	L89.2,353.2L89.2,353.2z M47.5,177c-22.2,0-33.3,26.9-17.6,42.6c15.7,15.7,42.6,4.5,42.6-17.6C72.5,188.2,61.3,177,47.5,177
	L47.5,177z M477.1,184.3c-15.7-15.7-42.6-4.5-42.6,17.6s26.9,33.3,42.6,17.6C486.8,209.9,486.8,194.1,477.1,184.3L477.1,184.3z
	 M376.9,391.3c-21.4-25.9-60.5-25.9-82,0c-7.6,9.2-12.2,21-12.2,33.7v32.3c0,11.5,9.4,20.8,20.8,20.8h64.6
	c11.5,0,20.8-9.4,20.8-20.8v-32.3C389.1,412.3,384.5,400.5,376.9,391.3L376.9,391.3z M353.6,319.3c-15.7-15.7-42.6-4.5-42.6,17.6
	s26.9,33.3,42.6,17.6C363.3,344.9,363.3,329.1,353.6,319.3L353.6,319.3z M208.6,387.5c-22.3-22.3-58.5-20.5-78.5,3.8
	c-7.6,9.2-12.2,21-12.2,33.7v32.3c0,11.5,9.4,20.8,20.8,20.8h64.6c11.5,0,20.8-9.4,20.8-20.8v-32.3
	C224.2,410.6,218.3,397.3,208.6,387.5L208.6,387.5z M188.7,319.3c9.7,9.7,9.7,25.5,0,35.3c-15.7,15.7-42.6,4.5-42.6-17.6
	C146.1,314.8,173,303.7,188.7,319.3L188.7,319.3z M224.2,160.9v-23.1c0-29.2-23.9-53.1-53.1-53.1c-29.2,0-53.1,23.9-53.1,53.1v23.1
	H224.2L224.2,160.9z M282.8,160.9h106.3v-23.1c0-29.2-23.9-53.1-53.1-53.1c-29.2,0-53.1,23.9-53.1,53.1V160.9L282.8,160.9z
	 M353.6,32.1C337.9,16.5,311,27.6,311,49.8s26.9,33.3,42.6,17.6C363.3,57.7,363.3,41.9,353.6,32.1L353.6,32.1z M188.7,32.1
	c-15.7-15.7-42.6-4.5-42.6,17.6c0,22.2,26.9,33.3,42.6,17.6C198.4,57.7,198.4,41.9,188.7,32.1z"/>
</svg>
