<?xml version="1.0" encoding="utf-8"?>
<!-- Generator: Adobe Illustrator 27.7.0, SVG Export Plug-In . SVG Version: 6.00 Build 0)  -->
<svg fill="#fff" version="1.1" id="Layer_1" xmlns="http://www.w3.org/2000/svg" xmlns:xlink="http://www.w3.org/1999/xlink" x="0px" y="0px"
	 viewBox="0 0 40.8 59.2" style="enable-background:new 0 0 40.8 59.2;" xml:space="preserve">
<g>
	<path d="M24.3,32c-1.3,0-2.6,0.4-3.7,1.2c-1.1-0.7-2.3-1.2-3.7-1.2c-1.7,0-3.4,0.7-4.6,1.9c-1.2,1.2-1.9,2.8-1.9,4.6
		s0.7,3.4,1.9,4.6l7.3,7.3c0.2,0.2,0.5,0.4,0.8,0.4c0.4,0,0.6-0.1,0.8-0.4l7.3-7.3c1.2-1.2,1.9-2.8,1.9-4.6s-0.7-3.4-1.9-4.6
		C27.6,32.6,26,32,24.3,32z M27.1,41.1l-6.5,6.6l-6.5-6.5c-0.7-0.7-1.2-1.8-1.2-2.9s0.4-2,1.2-2.9c0.7-0.7,1.8-1.2,2.9-1.2
		s2,0.4,2.9,1.2c0.5,0.5,1.2,0.5,1.7,0c1.6-1.6,4.1-1.6,5.6,0c0.7,0.7,1.2,1.8,1.2,2.9S27.8,40.4,27.1,41.1z"/>
	<path d="M38.3,10.4h-7.7V2c0-0.4-0.2-0.7-0.5-1c-0.4-0.2-0.7-0.2-1.1-0.1L2.5,10.5c-0.5,0.1-0.7,0.6-0.8,1.1l0,0v45.3
		c0,0.7,0.5,1.2,1.2,1.2h35.5c0.7,0,1.2-0.5,1.2-1.2V11.6C39.5,11,38.9,10.4,38.3,10.4z M28.3,3.7v6.7H9.7L28.3,3.7z M37.1,55.9H4.1
		v-43h33.1C37.1,12.8,37.1,55.9,37.1,55.9z"/>
	<path d="M10.8,20.3h19.8c0.7,0,1.2-0.5,1.2-1.2c0-0.7-0.5-1.2-1.2-1.2H10.8c-0.7,0-1.2,0.5-1.2,1.2C9.6,19.8,10,20.3,10.8,20.3z"/>
	<path d="M10.8,26.4h19.8c0.7,0,1.2-0.5,1.2-1.2c0-0.7-0.5-1.2-1.2-1.2H10.8c-0.7,0-1.2,0.5-1.2,1.2C9.6,25.9,10,26.4,10.8,26.4z"/>
</g>
</svg>
