<?xml version="1.0" encoding="utf-8"?>
<!-- Generator: Adobe Illustrator 27.7.0, SVG Export Plug-In . SVG Version: 6.00 Build 0)  -->
<svg fill="#fff" version="1.1" id="Layer_1" xmlns="http://www.w3.org/2000/svg" xmlns:xlink="http://www.w3.org/1999/xlink" x="0px" y="0px"
	 viewBox="0 0 71.7 104.2" style="enable-background:new 0 0 71.7 104.2;" xml:space="preserve">
<path d="M43.1,100.9c-1.5,0-3.2-1.1-4.5-2.2c-0.3,1.2-1.8,3.1-3.1,3.3c-0.9,0.1-2.2-1.3-3.1-2.5c0,0-0.8,1.3-1.1,1.7
	c-1.4,1.4-3.1,1.3-4-0.5c-0.7-1.4-1.1-1.1-2-0.2c-0.6,0.7-2.2,1.4-3,1.1c-1.5-0.5-1.1-3.2-0.6-4.4C23.3,93,25,89.6,26,85.7
	c0.4-1.3-0.1-3.1-0.7-4.5c-1.4-3.2-18.2-38.8-19.2-41c-0.7-1.3-2.3-4.8,2-4.8c0,0-4-0.6-5.4-2.2c-2.2-2.5-2-9.7,4.5-10
	c-0.6-0.5-1.7-3.2-1.9-3.9c-1.1-3.5,2.2-6.5,5.8-5.7c1.9,0.4,4.4,2.7,4.6,2.5c3-3.8,6.6-3.5,10.6-1.7c2.5-1.3,2.1-2.2,0.7-4.1
	c-1.2-1.7,0.1-4.9,2.2-6.7c1.9-1.6,4.3-1.8,6-0.2c0.9,0.8,2.2,0.6,3-0.1c2.5-2.2,6.2-1,8.1,0.9c1.5,1.5,1.8,5.4-0.2,7
	c-1.5,1.2-2.6,1.3-0.8,3.5c1.8,2.2-0.5,4.2-2.8,4.8c1.3-0.3,3.7,0,4.4,1c0.6-2.4,0.5-4,3.6-4.5c1.8-0.3,3.7,0.2,5.5,3.6
	c0.4-5.1,4.7-7.7,8.3-6c3,1.5,4,4.7,2.7,6.9c-0.9,1.5-0.9,1.4,1.3,2.7c1.9,1.1,3.5,5.4,0,8.9c-1,1-3,2.8-6.5,0.7
	c2.3,1.5,1.6,4.3,0.8,6.2c-4,8.7-16.5,35-19.6,41.8c-1.5,3.3-2.7,4.4-1.3,7c2,3.8,2.4,6.2,3.8,9.9C46.1,99.8,44.2,100.9,43.1,100.9z
	 M8.1,38.5C14,51,20.8,65.4,27,78.4c0.6,1.2,1.7,2,3,2c2.4,0,4.8,0,7.5,0.1c2.9,0.1,3.2-1,3.8-2.2c5.3-11.3,17.5-37.4,18-38.4
	C46.2,44.3,21.7,44.2,8.1,38.5z M39.3,89.3c-0.2-0.5-0.7-0.9-1.2-0.9c-3.6-0.1-5.5-0.2-8.8-0.3c-0.9,0-1.5-0.1-1.9,0.9
	c-0.8,2.4-1.6,4.7-2.5,7c2.9-0.7,2.9-1.5,4.7,1.7c0.9-0.7,1.7-1.9,2.7-2.1c0.8-0.2,2.3,1.7,3.1,2.1c1.1-0.5,2.1-2.6,3.1-2.4
	c1,0.2,1.3,1,2.9,2.4C41.8,96.3,40.1,91.5,39.3,89.3z M27.6,19.1c-0.4,0.5-1.3,2.1-1.8,2.3c-1.8,1.1-0.3,1.8,0.8,3.3
	c2.6,3.5,1.1,7.9-2.9,9.3c-0.4,0.1-0.8,0.2-1.1,0.4c1.6,1.8,3.8,4.3,5.4,5.9c2,0.5,7.9,0.7,9.4,0.2c-0.6-1.5-0.9-2.7-2.1-2.4
	c-2.2,0.6-5.8-0.1-7.2-1.9c-1.1-1.4-1-4.9,1.5-5.1c1.3-0.1,0-1.8-0.2-2.4c-0.8-1.9-1.2-3.9-0.2-5.8C30.1,21.4,29.6,20.4,27.6,19.1z
	 M33.3,11.4c-1.5,0.5-4.8,2.8-4.8,5.2c0,1.7,1.4,2.7,2,2.8c0.6,0.1,2.1-0.7,2.6-1.1c1.7-1.2,2.9-4.4,1.2-6.2
	c-1.7-1.5,0.1-4.3,2.2-4.5c0-1.4-2.2-3.1-4.7-2.4C29,6,28.9,9.4,30,9.8C31,10.3,31.9,10.9,33.3,11.4z M57.9,27.9
	c-1.9-0.1-4.5,1.2-5.2,2.6c-0.5,1.1,0.2,3.8,0.9,4.4c1.6,1.4,5.1,2.2,6.4-0.8C60.7,32.2,58.2,29,57.9,27.9z M53.7,19.3
	c-1.3-1.7-4.3-1.1-4.6,0.9c-0.2,1.7,0.3,4.9,2.5,5.8c1.8,0.8,3.8-1.2,4.8-1.9C56,22.6,54.5,20.3,53.7,19.3z M60.7,21.9
	c2.5,0.4,5.1-1.1,5.1-3.4c0-2-2.7-3.3-4.9-2.6C57.8,17,58.1,19.3,60.7,21.9z M64,31.7c1.9,0.9,4.1-1.2,4.3-3.8
	c0.1-1.2-0.7-4.2-2-3.7c-1.6,0.6-3.4,1.4-3.4,1.4C62.7,27.2,60.8,30.2,64,31.7z M25.5,26.1c-0.5-1.2-3.9-1.3-6.1-0.5
	c-0.2,1.6,0.3,4.9,0.7,5.7c0.2,0.5,1.4,0.7,2.1,0.7C24,31.9,26.8,29.1,25.5,26.1z M22.9,15.5c-2.3,0-5.3,2-4.8,3.2
	c0.5,1.2,2.2,3.6,3.5,3.9c1.6,0.5,3.6-3.2,3.5-5C25,16,24.1,15.4,22.9,15.5z M38,7.5c1.3,0.4,3.4,1.5,3.2,3.5c0,0,4-1,4-3.5
	c0-1-1.1-2.3-1.8-2.7C41.8,4,38.4,4.3,38,7.5z M14.4,27c-0.5-0.2-3.6-0.9-4.7-1.2c-3.4-0.8-5.5,0.4-6.1,3.8
	c-0.3,1.6,3.2,3.2,4.6,2.8C10,31.9,12.7,28.3,14.4,27z M36.8,27.6c-0.6-0.9-3.5-4.6-5.4-3c-0.6,0.5-0.4,1.9-0.3,2.7
	c0.2,2.2,1.3,3.4,3.3,3.4C35.5,30.6,35.9,28.9,36.8,27.6z M13.7,24.8c-0.9-1.3,0.4-3.1,2-4.4c0-1.1-5.1-5.7-7.6-3.8
	C6.2,18.1,9.6,23.5,13.7,24.8z M43.4,29.4c-0.2,1.2,0,3.7,0.8,4.5c1.2,1.1,3.6,0.7,4.4-0.7c0.8-1.4,0.6-2.8-0.5-4
	C46.9,27.7,44.7,29,43.4,29.4z M29.6,83.6c0.2,1.1,0.9,2.5,2.6,2.5c1.6,0,2.2,0,4.1,0c1.5,0,1.9-0.7,2.3-2.5
	C35.4,83.6,33,83.6,29.6,83.6z M10.4,35c0.1,2.5,4.3,2,5.8,1.3c1.8-0.9,2.5-2.6,1.9-4.8c-0.4-1.2-1.3-3.5-1.8-3.9
	C15.2,28.4,10.3,32.8,10.4,35z M40,39.4c1.1,0.5,2.4,0.3,3.1-0.7c0.1-0.2,0.2-0.4,0.3-0.5c0.4-1.6-2.5-5-3.5-5.4
	c-1.2,0.7-2,2.5-2.1,3.6C37.6,37.5,38.6,38.7,40,39.4z M46.7,26.2c1.2-1-0.1-3.4-0.5-3.9c-0.2-0.3-0.4-0.5-0.6-0.6
	c-2-1-4.8-0.1-5.4,2c-0.3,1.2,0.7,2.4,1,3.2C42.5,26.9,45.3,27.4,46.7,26.2z M40.9,17.9c1.7-0.6,2.6-1.4,2.2-3
	c-0.3-1.3-2-2.1-2.5-1.9c-0.6,1-1.8,1.5-3.2,1.4c-0.3,0.2-1,2.6-0.7,2.8C38,18.3,39.7,18.3,40.9,17.9z M44,40.6
	c2.7,0,10.8-1.4,13.2-2.5c-5.8,0.4-6.5-2.9-6.6-5.3c0,0-0.2,1.8-1.4,2.6c-1.3,0.9-3,0.5-3,0.5C46.6,37.4,46.2,39.6,44,40.6z
	 M37.5,25.2c-0.2-1.7,1.2-4.3,2.7-4.7c-2.9,0.7-4.3,0-4.7-2c-0.2,2.3-3.1,2.8-4.3,2.8C34.4,21.5,36.9,23.2,37.5,25.2z M20.8,35.4
	c-0.8,1.5-2.7,2.7-4.9,3.1c3,0.5,6.1,1,9.1,1.5C23.4,38.6,22.5,37,20.8,35.4z M18.8,24.4c0.4-0.9-0.2-2.5-1.2-2.8
	c-1.2-0.4-1.8,1.4-1.8,2.6c0,0,0,0,0,0c0.1,1.3,1.9,1.7,2.8,0.7C18.6,24.7,18.7,24.5,18.8,24.4z M36.5,32.2
	c-1.2-0.2-4.1-0.1-5.6,0.6c-1.4,0.6-0.8,2.2-0.4,2.6c0.4,0.4,1.4,0.8,1.9,0.8C34.2,36.4,36.8,34.5,36.5,32.2z M40.2,27.3
	c-1.6-0.6-2.2,0.9-2.2,2.1c0,1,0,2.2,1.5,2.1c1.5,0,2.4-1.1,2.4-2.4C41.8,28.6,41,27.6,40.2,27.3z M57.6,24.2
	c-0.3,1.5,0.9,2.7,2.4,2.7c1,0,1.5-1,1.7-1.8c0.1-1.2-1.1-2.3-1.9-2.3C58.7,22.6,57.8,23.1,57.6,24.2z M35.9,11.1
	c0,0.6,0.5,1.1,1.1,1c1.1-0.1,1.8-0.6,1.8-2c0-0.7-1.4-1-1.8-0.8C36.4,9.6,36,10.4,35.9,11.1L35.9,11.1z"/>
</svg>
