<?xml version="1.0" encoding="utf-8"?>
<!-- Generator: Adobe Illustrator 27.7.0, SVG Export Plug-In . SVG Version: 6.00 Build 0)  -->
<svg fill="#fff" version="1.1" id="Layer_1" xmlns="http://www.w3.org/2000/svg" xmlns:xlink="http://www.w3.org/1999/xlink" x="0px" y="0px"
	 viewBox="0 0 30.6 29.7" style="enable-background:new 0 0 30.6 29.7;" xml:space="preserve">
<style type="text/css">
	.st0{fill-rule:evenodd;clip-rule:evenodd;}
</style>
<path class="st0" d="M26.3,20.4c-0.7-0.7-1.6-0.7-2.2,0c-0.7,0.7-0.7,1.6,0,2.2c0.7,0.7,1.6,0.7,2.2,0c0.3-0.3,0.4-0.7,0.4-1
	C26.8,21,26.5,20.6,26.3,20.4z M25.2,19c1.3,0,2.4,1,2.4,2.4s-1,2.4-2.4,2.4s-2.4-1-2.4-2.4c0-0.7,0.3-1.2,0.7-1.7
	C23.9,19.3,24.6,19,25.2,19z M21.3,28.5h7.9v-1.6c0-1-0.9-2-2-2h-3.9c-1,0-2,0.9-2,2V28.5z M19.7,20.4c-0.7-0.7-1.6-0.7-2.2,0
	c-0.7,0.7-0.7,1.6,0,2.2c0.7,0.7,1.6,0.7,2.2,0c0.3-0.3,0.4-0.7,0.4-1C20.1,21,20,20.6,19.7,20.4z M18.5,19c1.3,0,2.4,1,2.4,2.4
	s-1,2.4-2.4,2.4s-2.4-1-2.4-2.4c0-0.7,0.3-1.2,0.7-1.7C17.4,19.3,18,19,18.5,19L18.5,19z M15.9,25.1c0.4,0.5,0.7,1.2,0.7,1.8v1.6
	h3.8v-1.6c0-0.7,0.3-1.3,0.7-1.8c0,0,0,0-0.1,0s-0.4-0.1-0.5-0.1h-3.9C16.4,25.1,16.2,25.1,15.9,25.1C16,25.1,15.9,25.1,15.9,25.1z
	 M13,20.4c-0.7-0.7-1.6-0.7-2.2,0c-0.7,0.7-0.7,1.6,0,2.2c0.7,0.7,1.6,0.7,2.2,0c0.3-0.3,0.4-0.7,0.4-1C13.6,21,13.3,20.6,13,20.4z
	 M12,19c1.3,0,2.4,1,2.4,2.4s-1,2.4-2.4,2.4s-2.4-1-2.4-2.4c0-0.7,0.3-1.2,0.7-1.7C10.7,19.3,11.3,19,12,19z M9.4,25.1
	c0.4,0.5,0.7,1.2,0.7,1.8v1.6h5.9v-1.6c0-1-0.9-2-2-2H10C9.8,25.1,9.6,25.1,9.4,25.1L9.4,25.1z M6.5,20.4c-0.7-0.7-1.6-0.7-2.2,0
	c-0.7,0.7-0.7,1.6,0,2.2c0.7,0.7,1.6,0.7,2.2,0c0.3-0.3,0.4-0.7,0.4-1C6.9,21,6.8,20.6,6.5,20.4z M5.3,19c1.3,0,2.4,1,2.4,2.4
	s-1,2.4-2.4,2.4S3,22.7,3,21.4c0-0.7,0.3-1.2,0.7-1.7C4.1,19.3,4.8,19,5.3,19z M7.7,29.3H1.1c-0.3,0-0.4-0.1-0.4-0.4l0,0v-2
	c0-1.4,1.2-2.7,2.7-2.7h3.9c0.5,0,0.9,0.1,1.3,0.4c0.4-0.3,0.9-0.4,1.3-0.4H14c0.5,0,0.9,0.1,1.3,0.4c0.4-0.3,0.9-0.4,1.3-0.4h3.9
	c0.5,0,0.9,0.1,1.3,0.4c0.4-0.3,0.9-0.4,1.3-0.4H27c1.4,0,2.7,1.2,2.7,2.7v2c0,0.3-0.1,0.4-0.4,0.4C29.5,29.3,7.7,29.3,7.7,29.3z
	 M1.4,28.5h7.9v-1.6c0-1-0.9-2-2-2H3.3c-1,0-2,0.9-2,2C1.4,26.9,1.4,28.5,1.4,28.5z M17,1.8c-0.7-0.7-1.8-0.7-2.5,0s-0.7,1.8,0,2.5
	s1.8,0.7,2.5,0c0.3-0.3,0.5-0.8,0.5-1.2C17.5,2.5,17.4,2,17,1.8z M15.8,0.5c1.4,0,2.5,1.2,2.5,2.5s-1,2.6-2.5,2.6s-2.5-1.2-2.5-2.5
	c0-0.7,0.3-1.3,0.8-1.8C14.5,0.7,15.1,0.5,15.8,0.5z M21.8,11.6H9.9v2.1h11.9V11.6z M11.5,10.8H13v-0.4c0-0.3,0.1-0.4,0.4-0.4
	s0.4,0.1,0.4,0.4v0.4h4.1v-0.4c0-0.3,0.1-0.4,0.4-0.4c0.3,0,0.4,0.1,0.4,0.4l0,0v0.4h1.6V9.1c0-1.2-0.9-2.1-2.2-2.2h-4.3
	c-1.2,0-2.1,0.9-2.2,2.2L11.5,10.8L11.5,10.8z M6.1,14.5c-0.3,0-0.4-0.1-0.4-0.4c0-0.3,0.1-0.4,0.4-0.4h0.7V7.8c0-0.1,0-0.3,0.1-0.3
	l3.4-3.4c0.1-0.1,0.4-0.1,0.5,0c0.1,0.1,0.1,0.4,0,0.5L7.5,7.9v5.8H9v-2.6c0-0.3,0.1-0.4,0.4-0.4l0,0h1.3V9c0-1.6,1.3-2.9,2.9-2.9
	h4.3c1.6,0,2.9,1.3,2.9,2.9v1.7h1.3c0.3,0,0.4,0.1,0.4,0.4v2.6h1.8c0.3,0,0.4,0.1,0.4,0.4c0,0.3-0.1,0.4-0.4,0.4H6.1L6.1,14.5z"/>
</svg>
