<?xml version="1.0" encoding="utf-8"?>
<!-- Generator: Adobe Illustrator 27.7.0, SVG Export Plug-In . SVG Version: 6.00 Build 0)  -->
<svg fill="#fff" version="1.1" id="Layer_1" xmlns="http://www.w3.org/2000/svg" xmlns:xlink="http://www.w3.org/1999/xlink" x="0px" y="0px"
	 viewBox="0 0 96 87.4" style="enable-background:new 0 0 96 87.4;" xml:space="preserve">
<g>
	<path d="M44.6,77.2c0,0.2,0,0.4,0,0.6c0,0.3,0,0.6-0.1,0.9l0,0c-0.5,3.8-4,6.5-7.8,6s-6.5-4-6-7.8c0.5-3.8,4-6.5,7.8-6
		c0.9,0.1,1.8,0.4,2.6,0.9v-16c0-0.2-0.1-0.4-0.3-0.5c-0.2-0.1-0.4-0.1-0.5,0l-13.6,5.6c-0.2,0.1-0.3,0.3-0.4,0.5l-0.1,2.9l10.2-3.9
		c0.9-0.3,1.9,0.1,2.2,1c0.3,0.9-0.1,1.9-1,2.2l0,0L26.1,68l-0.5,9.9l0,0c-0.1,3.9-3.2,6.9-7.1,6.9s-6.9-3.2-6.9-7.1
		c0.1-3.9,3.2-6.9,7.1-6.9c1.3,0,2.6,0.4,3.7,1.2l0.3-5.2l0,0l0.3-5.6c0.1-1.5,1-2.9,2.4-3.5l13.6-5.6c2-0.9,4.4,0.1,5.2,2.1
		c0.2,0.5,0.3,1,0.3,1.6V77.2z M84.4,77.2V55.8c0-2.2-1.8-4-4-4c-0.5,0-1,0.1-1.5,0.3l-13.7,5.6c-1.4,0.6-2.4,2-2.4,3.5l-0.3,5.5
		l0,0L62.2,72c-3.2-2.1-7.5-1.2-9.7,2s-1.2,7.5,2,9.7c3.2,2.1,7.5,1.2,9.7-2c0.7-1.1,1.1-2.4,1.2-3.7l0,0l0.5-9.9l11.6-4.4
		c0.9-0.3,1.3-1.3,1-2.2c-0.3-0.9-1.3-1.3-2.2-1l-10.2,3.9l0.1-2.9c0-0.2,0.1-0.4,0.4-0.5l13.6-5.6c0.2-0.1,0.4-0.1,0.5,0
		c0.2,0.1,0.3,0.3,0.3,0.5v16.1c-3.3-1.9-7.6-0.8-9.5,2.5c-1.9,3.3-0.8,7.6,2.5,9.5c3.3,1.9,7.6,0.8,9.5-2.5
		c0.5-0.8,0.8-1.7,0.9-2.6l0,0c0-0.3,0.1-0.6,0.1-0.9C84.4,77.6,84.4,77.4,84.4,77.2z M94,26.6c0-0.9-0.8-1.7-1.7-1.7H3.8
		c-0.9,0-1.7,0.8-1.7,1.7c0,0.9,0.8,1.7,1.7,1.7h88.5C93.2,28.3,93.9,27.6,94,26.6L94,26.6z M92.3,6.7H3.8C2.8,6.7,2.1,6,2.1,5
		s0.8-1.7,1.7-1.7h88.5c0.9,0,1.7,0.8,1.7,1.7S93.2,6.7,92.3,6.7L92.3,6.7z M72.5,19.1c1,0.5,2.1,0.4,3-0.2l3.4-2.5l3.4,2.5l0,0
		c0.5,0.3,1.1,0.5,1.7,0.5c0.4,0,0.9-0.1,1.3-0.3c1-0.5,1.6-1.5,1.6-2.5v-6.5H70.8v6.5C70.8,17.7,71.5,18.7,72.5,19.1z M51.9,19.1
		c1,0.5,2.1,0.4,3-0.2l3.4-2.5l3.4,2.5l0,0c0.9,0.6,2,0.7,3,0.2c1-0.5,1.6-1.5,1.5-2.5v-6.5H50.3v6.5C50.3,17.7,50.9,18.7,51.9,19.1
		z M10.7,19.1c1,0.5,2.1,0.4,3-0.2l3.4-2.5l3.4,2.5l0,0c0.9,0.6,2,0.7,3,0.2c1-0.5,1.6-1.5,1.5-2.5v-6.5H9.1v6.5
		C9.1,17.7,9.8,18.7,10.7,19.1z M71,31.7v6.5c0,1.6,1.2,2.8,2.8,2.9c0.6,0,1.2-0.2,1.7-0.6l3.4-2.5l3.4,2.5l0,0
		c0.5,0.3,1.1,0.5,1.7,0.5c0.4,0,0.9-0.1,1.3-0.3c1-0.5,1.6-1.5,1.6-2.5v-6.4H71z M31.3,19.1c1,0.5,2.1,0.4,3-0.2l3.4-2.5l3.4,2.5
		l0,0c0.9,0.6,2,0.7,3,0.2c1-0.4,1.7-1.4,1.7-2.5v-6.5H29.8v6.5C29.8,17.7,30.4,18.6,31.3,19.1z M9.2,31.7v6.5
		c0,1.1,0.6,2.1,1.6,2.5c1,0.5,2.1,0.4,3-0.2l3.4-2.5l3.4,2.5l0,0c0.9,0.6,2,0.7,3,0.2c1-0.5,1.6-1.5,1.5-2.5v-6.5H9.2z M50.3,31.7
		v6.5c0,1.6,1.3,2.8,2.8,2.8c0.6,0,1.2-0.2,1.7-0.6l3.4-2.5l3.4,2.5l0,0c0.9,0.6,2,0.7,3,0.2c1-0.5,1.6-1.5,1.5-2.5v-6.4H50.3z
		 M29.8,31.7v6.5c0,1.6,1.2,2.8,2.8,2.9c0.6,0,1.2-0.2,1.7-0.6l3.4-2.5l3.4,2.5l0,0c0.9,0.6,2,0.7,3,0.2c1-0.4,1.6-1.4,1.6-2.5v-6.5
		H29.8z"/>
</g>
</svg>
